G04 EAGLE Gerber RS-274X export*
G75*
%MOMM*%
%FSLAX34Y34*%
%LPD*%
%INBoard Outline*%
%IPPOS*%
%AMOC8*
5,1,8,0,0,1.08239X$1,22.5*%
G01*
%ADD10C,0.000000*%
%ADD11C,0.254000*%


D10*
X0Y0D02*
X1054100Y0D01*
X1054100Y427230D01*
X0Y427230D01*
X0Y0D01*
X845900Y317500D02*
X845902Y317641D01*
X845908Y317782D01*
X845918Y317922D01*
X845932Y318062D01*
X845950Y318202D01*
X845971Y318341D01*
X845997Y318480D01*
X846026Y318618D01*
X846060Y318754D01*
X846097Y318890D01*
X846138Y319025D01*
X846183Y319159D01*
X846232Y319291D01*
X846284Y319422D01*
X846340Y319551D01*
X846400Y319678D01*
X846463Y319804D01*
X846529Y319928D01*
X846600Y320051D01*
X846673Y320171D01*
X846750Y320289D01*
X846830Y320405D01*
X846914Y320518D01*
X847000Y320629D01*
X847090Y320738D01*
X847183Y320844D01*
X847278Y320947D01*
X847377Y321048D01*
X847478Y321146D01*
X847582Y321241D01*
X847689Y321333D01*
X847798Y321422D01*
X847910Y321507D01*
X848024Y321590D01*
X848140Y321670D01*
X848259Y321746D01*
X848380Y321818D01*
X848502Y321888D01*
X848627Y321953D01*
X848753Y322016D01*
X848881Y322074D01*
X849011Y322129D01*
X849142Y322181D01*
X849275Y322228D01*
X849409Y322272D01*
X849544Y322313D01*
X849680Y322349D01*
X849817Y322381D01*
X849955Y322410D01*
X850093Y322435D01*
X850233Y322455D01*
X850373Y322472D01*
X850513Y322485D01*
X850654Y322494D01*
X850794Y322499D01*
X850935Y322500D01*
X851076Y322497D01*
X851217Y322490D01*
X851357Y322479D01*
X851497Y322464D01*
X851637Y322445D01*
X851776Y322423D01*
X851914Y322396D01*
X852052Y322366D01*
X852188Y322331D01*
X852324Y322293D01*
X852458Y322251D01*
X852592Y322205D01*
X852724Y322156D01*
X852854Y322102D01*
X852983Y322045D01*
X853110Y321985D01*
X853236Y321921D01*
X853359Y321853D01*
X853481Y321782D01*
X853601Y321708D01*
X853718Y321630D01*
X853833Y321549D01*
X853946Y321465D01*
X854057Y321378D01*
X854165Y321287D01*
X854270Y321194D01*
X854373Y321097D01*
X854473Y320998D01*
X854570Y320896D01*
X854664Y320791D01*
X854755Y320684D01*
X854843Y320574D01*
X854928Y320462D01*
X855010Y320347D01*
X855089Y320230D01*
X855164Y320111D01*
X855236Y319990D01*
X855304Y319867D01*
X855369Y319742D01*
X855431Y319615D01*
X855488Y319486D01*
X855543Y319356D01*
X855593Y319225D01*
X855640Y319092D01*
X855683Y318958D01*
X855722Y318822D01*
X855757Y318686D01*
X855789Y318549D01*
X855816Y318411D01*
X855840Y318272D01*
X855860Y318132D01*
X855876Y317992D01*
X855888Y317852D01*
X855896Y317711D01*
X855900Y317570D01*
X855900Y317430D01*
X855896Y317289D01*
X855888Y317148D01*
X855876Y317008D01*
X855860Y316868D01*
X855840Y316728D01*
X855816Y316589D01*
X855789Y316451D01*
X855757Y316314D01*
X855722Y316178D01*
X855683Y316042D01*
X855640Y315908D01*
X855593Y315775D01*
X855543Y315644D01*
X855488Y315514D01*
X855431Y315385D01*
X855369Y315258D01*
X855304Y315133D01*
X855236Y315010D01*
X855164Y314889D01*
X855089Y314770D01*
X855010Y314653D01*
X854928Y314538D01*
X854843Y314426D01*
X854755Y314316D01*
X854664Y314209D01*
X854570Y314104D01*
X854473Y314002D01*
X854373Y313903D01*
X854270Y313806D01*
X854165Y313713D01*
X854057Y313622D01*
X853946Y313535D01*
X853833Y313451D01*
X853718Y313370D01*
X853601Y313292D01*
X853481Y313218D01*
X853359Y313147D01*
X853236Y313079D01*
X853110Y313015D01*
X852983Y312955D01*
X852854Y312898D01*
X852724Y312844D01*
X852592Y312795D01*
X852458Y312749D01*
X852324Y312707D01*
X852188Y312669D01*
X852052Y312634D01*
X851914Y312604D01*
X851776Y312577D01*
X851637Y312555D01*
X851497Y312536D01*
X851357Y312521D01*
X851217Y312510D01*
X851076Y312503D01*
X850935Y312500D01*
X850794Y312501D01*
X850654Y312506D01*
X850513Y312515D01*
X850373Y312528D01*
X850233Y312545D01*
X850093Y312565D01*
X849955Y312590D01*
X849817Y312619D01*
X849680Y312651D01*
X849544Y312687D01*
X849409Y312728D01*
X849275Y312772D01*
X849142Y312819D01*
X849011Y312871D01*
X848881Y312926D01*
X848753Y312984D01*
X848627Y313047D01*
X848502Y313112D01*
X848380Y313182D01*
X848259Y313254D01*
X848140Y313330D01*
X848024Y313410D01*
X847910Y313493D01*
X847798Y313578D01*
X847689Y313667D01*
X847582Y313759D01*
X847478Y313854D01*
X847377Y313952D01*
X847278Y314053D01*
X847183Y314156D01*
X847090Y314262D01*
X847000Y314371D01*
X846914Y314482D01*
X846830Y314595D01*
X846750Y314711D01*
X846673Y314829D01*
X846600Y314949D01*
X846529Y315072D01*
X846463Y315196D01*
X846400Y315322D01*
X846340Y315449D01*
X846284Y315578D01*
X846232Y315709D01*
X846183Y315841D01*
X846138Y315975D01*
X846097Y316110D01*
X846060Y316246D01*
X846026Y316382D01*
X845997Y316520D01*
X845971Y316659D01*
X845950Y316798D01*
X845932Y316938D01*
X845918Y317078D01*
X845908Y317218D01*
X845902Y317359D01*
X845900Y317500D01*
X757200Y361950D02*
X757205Y362379D01*
X757221Y362809D01*
X757247Y363237D01*
X757284Y363665D01*
X757332Y364092D01*
X757389Y364518D01*
X757458Y364942D01*
X757536Y365364D01*
X757625Y365784D01*
X757724Y366202D01*
X757834Y366617D01*
X757954Y367030D01*
X758083Y367439D01*
X758223Y367846D01*
X758373Y368248D01*
X758532Y368647D01*
X758701Y369042D01*
X758880Y369432D01*
X759069Y369818D01*
X759266Y370199D01*
X759473Y370576D01*
X759690Y370947D01*
X759915Y371312D01*
X760149Y371672D01*
X760392Y372027D01*
X760644Y372375D01*
X760904Y372717D01*
X761172Y373052D01*
X761449Y373381D01*
X761733Y373702D01*
X762026Y374017D01*
X762326Y374324D01*
X762633Y374624D01*
X762948Y374917D01*
X763269Y375201D01*
X763598Y375478D01*
X763933Y375746D01*
X764275Y376006D01*
X764623Y376258D01*
X764978Y376501D01*
X765338Y376735D01*
X765703Y376960D01*
X766074Y377177D01*
X766451Y377384D01*
X766832Y377581D01*
X767218Y377770D01*
X767608Y377949D01*
X768003Y378118D01*
X768402Y378277D01*
X768804Y378427D01*
X769211Y378567D01*
X769620Y378696D01*
X770033Y378816D01*
X770448Y378926D01*
X770866Y379025D01*
X771286Y379114D01*
X771708Y379192D01*
X772132Y379261D01*
X772558Y379318D01*
X772985Y379366D01*
X773413Y379403D01*
X773841Y379429D01*
X774271Y379445D01*
X774700Y379450D01*
X775129Y379445D01*
X775559Y379429D01*
X775987Y379403D01*
X776415Y379366D01*
X776842Y379318D01*
X777268Y379261D01*
X777692Y379192D01*
X778114Y379114D01*
X778534Y379025D01*
X778952Y378926D01*
X779367Y378816D01*
X779780Y378696D01*
X780189Y378567D01*
X780596Y378427D01*
X780998Y378277D01*
X781397Y378118D01*
X781792Y377949D01*
X782182Y377770D01*
X782568Y377581D01*
X782949Y377384D01*
X783326Y377177D01*
X783697Y376960D01*
X784062Y376735D01*
X784422Y376501D01*
X784777Y376258D01*
X785125Y376006D01*
X785467Y375746D01*
X785802Y375478D01*
X786131Y375201D01*
X786452Y374917D01*
X786767Y374624D01*
X787074Y374324D01*
X787374Y374017D01*
X787667Y373702D01*
X787951Y373381D01*
X788228Y373052D01*
X788496Y372717D01*
X788756Y372375D01*
X789008Y372027D01*
X789251Y371672D01*
X789485Y371312D01*
X789710Y370947D01*
X789927Y370576D01*
X790134Y370199D01*
X790331Y369818D01*
X790520Y369432D01*
X790699Y369042D01*
X790868Y368647D01*
X791027Y368248D01*
X791177Y367846D01*
X791317Y367439D01*
X791446Y367030D01*
X791566Y366617D01*
X791676Y366202D01*
X791775Y365784D01*
X791864Y365364D01*
X791942Y364942D01*
X792011Y364518D01*
X792068Y364092D01*
X792116Y363665D01*
X792153Y363237D01*
X792179Y362809D01*
X792195Y362379D01*
X792200Y361950D01*
X792195Y361521D01*
X792179Y361091D01*
X792153Y360663D01*
X792116Y360235D01*
X792068Y359808D01*
X792011Y359382D01*
X791942Y358958D01*
X791864Y358536D01*
X791775Y358116D01*
X791676Y357698D01*
X791566Y357283D01*
X791446Y356870D01*
X791317Y356461D01*
X791177Y356054D01*
X791027Y355652D01*
X790868Y355253D01*
X790699Y354858D01*
X790520Y354468D01*
X790331Y354082D01*
X790134Y353701D01*
X789927Y353324D01*
X789710Y352953D01*
X789485Y352588D01*
X789251Y352228D01*
X789008Y351873D01*
X788756Y351525D01*
X788496Y351183D01*
X788228Y350848D01*
X787951Y350519D01*
X787667Y350198D01*
X787374Y349883D01*
X787074Y349576D01*
X786767Y349276D01*
X786452Y348983D01*
X786131Y348699D01*
X785802Y348422D01*
X785467Y348154D01*
X785125Y347894D01*
X784777Y347642D01*
X784422Y347399D01*
X784062Y347165D01*
X783697Y346940D01*
X783326Y346723D01*
X782949Y346516D01*
X782568Y346319D01*
X782182Y346130D01*
X781792Y345951D01*
X781397Y345782D01*
X780998Y345623D01*
X780596Y345473D01*
X780189Y345333D01*
X779780Y345204D01*
X779367Y345084D01*
X778952Y344974D01*
X778534Y344875D01*
X778114Y344786D01*
X777692Y344708D01*
X777268Y344639D01*
X776842Y344582D01*
X776415Y344534D01*
X775987Y344497D01*
X775559Y344471D01*
X775129Y344455D01*
X774700Y344450D01*
X774271Y344455D01*
X773841Y344471D01*
X773413Y344497D01*
X772985Y344534D01*
X772558Y344582D01*
X772132Y344639D01*
X771708Y344708D01*
X771286Y344786D01*
X770866Y344875D01*
X770448Y344974D01*
X770033Y345084D01*
X769620Y345204D01*
X769211Y345333D01*
X768804Y345473D01*
X768402Y345623D01*
X768003Y345782D01*
X767608Y345951D01*
X767218Y346130D01*
X766832Y346319D01*
X766451Y346516D01*
X766074Y346723D01*
X765703Y346940D01*
X765338Y347165D01*
X764978Y347399D01*
X764623Y347642D01*
X764275Y347894D01*
X763933Y348154D01*
X763598Y348422D01*
X763269Y348699D01*
X762948Y348983D01*
X762633Y349276D01*
X762326Y349576D01*
X762026Y349883D01*
X761733Y350198D01*
X761449Y350519D01*
X761172Y350848D01*
X760904Y351183D01*
X760644Y351525D01*
X760392Y351873D01*
X760149Y352228D01*
X759915Y352588D01*
X759690Y352953D01*
X759473Y353324D01*
X759266Y353701D01*
X759069Y354082D01*
X758880Y354468D01*
X758701Y354858D01*
X758532Y355253D01*
X758373Y355652D01*
X758223Y356054D01*
X758083Y356461D01*
X757954Y356870D01*
X757834Y357283D01*
X757724Y357698D01*
X757625Y358116D01*
X757536Y358536D01*
X757458Y358958D01*
X757389Y359382D01*
X757332Y359808D01*
X757284Y360235D01*
X757247Y360663D01*
X757221Y361091D01*
X757205Y361521D01*
X757200Y361950D01*
X909600Y361950D02*
X909605Y362379D01*
X909621Y362809D01*
X909647Y363237D01*
X909684Y363665D01*
X909732Y364092D01*
X909789Y364518D01*
X909858Y364942D01*
X909936Y365364D01*
X910025Y365784D01*
X910124Y366202D01*
X910234Y366617D01*
X910354Y367030D01*
X910483Y367439D01*
X910623Y367846D01*
X910773Y368248D01*
X910932Y368647D01*
X911101Y369042D01*
X911280Y369432D01*
X911469Y369818D01*
X911666Y370199D01*
X911873Y370576D01*
X912090Y370947D01*
X912315Y371312D01*
X912549Y371672D01*
X912792Y372027D01*
X913044Y372375D01*
X913304Y372717D01*
X913572Y373052D01*
X913849Y373381D01*
X914133Y373702D01*
X914426Y374017D01*
X914726Y374324D01*
X915033Y374624D01*
X915348Y374917D01*
X915669Y375201D01*
X915998Y375478D01*
X916333Y375746D01*
X916675Y376006D01*
X917023Y376258D01*
X917378Y376501D01*
X917738Y376735D01*
X918103Y376960D01*
X918474Y377177D01*
X918851Y377384D01*
X919232Y377581D01*
X919618Y377770D01*
X920008Y377949D01*
X920403Y378118D01*
X920802Y378277D01*
X921204Y378427D01*
X921611Y378567D01*
X922020Y378696D01*
X922433Y378816D01*
X922848Y378926D01*
X923266Y379025D01*
X923686Y379114D01*
X924108Y379192D01*
X924532Y379261D01*
X924958Y379318D01*
X925385Y379366D01*
X925813Y379403D01*
X926241Y379429D01*
X926671Y379445D01*
X927100Y379450D01*
X927529Y379445D01*
X927959Y379429D01*
X928387Y379403D01*
X928815Y379366D01*
X929242Y379318D01*
X929668Y379261D01*
X930092Y379192D01*
X930514Y379114D01*
X930934Y379025D01*
X931352Y378926D01*
X931767Y378816D01*
X932180Y378696D01*
X932589Y378567D01*
X932996Y378427D01*
X933398Y378277D01*
X933797Y378118D01*
X934192Y377949D01*
X934582Y377770D01*
X934968Y377581D01*
X935349Y377384D01*
X935726Y377177D01*
X936097Y376960D01*
X936462Y376735D01*
X936822Y376501D01*
X937177Y376258D01*
X937525Y376006D01*
X937867Y375746D01*
X938202Y375478D01*
X938531Y375201D01*
X938852Y374917D01*
X939167Y374624D01*
X939474Y374324D01*
X939774Y374017D01*
X940067Y373702D01*
X940351Y373381D01*
X940628Y373052D01*
X940896Y372717D01*
X941156Y372375D01*
X941408Y372027D01*
X941651Y371672D01*
X941885Y371312D01*
X942110Y370947D01*
X942327Y370576D01*
X942534Y370199D01*
X942731Y369818D01*
X942920Y369432D01*
X943099Y369042D01*
X943268Y368647D01*
X943427Y368248D01*
X943577Y367846D01*
X943717Y367439D01*
X943846Y367030D01*
X943966Y366617D01*
X944076Y366202D01*
X944175Y365784D01*
X944264Y365364D01*
X944342Y364942D01*
X944411Y364518D01*
X944468Y364092D01*
X944516Y363665D01*
X944553Y363237D01*
X944579Y362809D01*
X944595Y362379D01*
X944600Y361950D01*
X944595Y361521D01*
X944579Y361091D01*
X944553Y360663D01*
X944516Y360235D01*
X944468Y359808D01*
X944411Y359382D01*
X944342Y358958D01*
X944264Y358536D01*
X944175Y358116D01*
X944076Y357698D01*
X943966Y357283D01*
X943846Y356870D01*
X943717Y356461D01*
X943577Y356054D01*
X943427Y355652D01*
X943268Y355253D01*
X943099Y354858D01*
X942920Y354468D01*
X942731Y354082D01*
X942534Y353701D01*
X942327Y353324D01*
X942110Y352953D01*
X941885Y352588D01*
X941651Y352228D01*
X941408Y351873D01*
X941156Y351525D01*
X940896Y351183D01*
X940628Y350848D01*
X940351Y350519D01*
X940067Y350198D01*
X939774Y349883D01*
X939474Y349576D01*
X939167Y349276D01*
X938852Y348983D01*
X938531Y348699D01*
X938202Y348422D01*
X937867Y348154D01*
X937525Y347894D01*
X937177Y347642D01*
X936822Y347399D01*
X936462Y347165D01*
X936097Y346940D01*
X935726Y346723D01*
X935349Y346516D01*
X934968Y346319D01*
X934582Y346130D01*
X934192Y345951D01*
X933797Y345782D01*
X933398Y345623D01*
X932996Y345473D01*
X932589Y345333D01*
X932180Y345204D01*
X931767Y345084D01*
X931352Y344974D01*
X930934Y344875D01*
X930514Y344786D01*
X930092Y344708D01*
X929668Y344639D01*
X929242Y344582D01*
X928815Y344534D01*
X928387Y344497D01*
X927959Y344471D01*
X927529Y344455D01*
X927100Y344450D01*
X926671Y344455D01*
X926241Y344471D01*
X925813Y344497D01*
X925385Y344534D01*
X924958Y344582D01*
X924532Y344639D01*
X924108Y344708D01*
X923686Y344786D01*
X923266Y344875D01*
X922848Y344974D01*
X922433Y345084D01*
X922020Y345204D01*
X921611Y345333D01*
X921204Y345473D01*
X920802Y345623D01*
X920403Y345782D01*
X920008Y345951D01*
X919618Y346130D01*
X919232Y346319D01*
X918851Y346516D01*
X918474Y346723D01*
X918103Y346940D01*
X917738Y347165D01*
X917378Y347399D01*
X917023Y347642D01*
X916675Y347894D01*
X916333Y348154D01*
X915998Y348422D01*
X915669Y348699D01*
X915348Y348983D01*
X915033Y349276D01*
X914726Y349576D01*
X914426Y349883D01*
X914133Y350198D01*
X913849Y350519D01*
X913572Y350848D01*
X913304Y351183D01*
X913044Y351525D01*
X912792Y351873D01*
X912549Y352228D01*
X912315Y352588D01*
X912090Y352953D01*
X911873Y353324D01*
X911666Y353701D01*
X911469Y354082D01*
X911280Y354468D01*
X911101Y354858D01*
X910932Y355253D01*
X910773Y355652D01*
X910623Y356054D01*
X910483Y356461D01*
X910354Y356870D01*
X910234Y357283D01*
X910124Y357698D01*
X910025Y358116D01*
X909936Y358536D01*
X909858Y358958D01*
X909789Y359382D01*
X909732Y359808D01*
X909684Y360235D01*
X909647Y360663D01*
X909621Y361091D01*
X909605Y361521D01*
X909600Y361950D01*
X1011200Y285750D02*
X1011205Y286179D01*
X1011221Y286609D01*
X1011247Y287037D01*
X1011284Y287465D01*
X1011332Y287892D01*
X1011389Y288318D01*
X1011458Y288742D01*
X1011536Y289164D01*
X1011625Y289584D01*
X1011724Y290002D01*
X1011834Y290417D01*
X1011954Y290830D01*
X1012083Y291239D01*
X1012223Y291646D01*
X1012373Y292048D01*
X1012532Y292447D01*
X1012701Y292842D01*
X1012880Y293232D01*
X1013069Y293618D01*
X1013266Y293999D01*
X1013473Y294376D01*
X1013690Y294747D01*
X1013915Y295112D01*
X1014149Y295472D01*
X1014392Y295827D01*
X1014644Y296175D01*
X1014904Y296517D01*
X1015172Y296852D01*
X1015449Y297181D01*
X1015733Y297502D01*
X1016026Y297817D01*
X1016326Y298124D01*
X1016633Y298424D01*
X1016948Y298717D01*
X1017269Y299001D01*
X1017598Y299278D01*
X1017933Y299546D01*
X1018275Y299806D01*
X1018623Y300058D01*
X1018978Y300301D01*
X1019338Y300535D01*
X1019703Y300760D01*
X1020074Y300977D01*
X1020451Y301184D01*
X1020832Y301381D01*
X1021218Y301570D01*
X1021608Y301749D01*
X1022003Y301918D01*
X1022402Y302077D01*
X1022804Y302227D01*
X1023211Y302367D01*
X1023620Y302496D01*
X1024033Y302616D01*
X1024448Y302726D01*
X1024866Y302825D01*
X1025286Y302914D01*
X1025708Y302992D01*
X1026132Y303061D01*
X1026558Y303118D01*
X1026985Y303166D01*
X1027413Y303203D01*
X1027841Y303229D01*
X1028271Y303245D01*
X1028700Y303250D01*
X1029129Y303245D01*
X1029559Y303229D01*
X1029987Y303203D01*
X1030415Y303166D01*
X1030842Y303118D01*
X1031268Y303061D01*
X1031692Y302992D01*
X1032114Y302914D01*
X1032534Y302825D01*
X1032952Y302726D01*
X1033367Y302616D01*
X1033780Y302496D01*
X1034189Y302367D01*
X1034596Y302227D01*
X1034998Y302077D01*
X1035397Y301918D01*
X1035792Y301749D01*
X1036182Y301570D01*
X1036568Y301381D01*
X1036949Y301184D01*
X1037326Y300977D01*
X1037697Y300760D01*
X1038062Y300535D01*
X1038422Y300301D01*
X1038777Y300058D01*
X1039125Y299806D01*
X1039467Y299546D01*
X1039802Y299278D01*
X1040131Y299001D01*
X1040452Y298717D01*
X1040767Y298424D01*
X1041074Y298124D01*
X1041374Y297817D01*
X1041667Y297502D01*
X1041951Y297181D01*
X1042228Y296852D01*
X1042496Y296517D01*
X1042756Y296175D01*
X1043008Y295827D01*
X1043251Y295472D01*
X1043485Y295112D01*
X1043710Y294747D01*
X1043927Y294376D01*
X1044134Y293999D01*
X1044331Y293618D01*
X1044520Y293232D01*
X1044699Y292842D01*
X1044868Y292447D01*
X1045027Y292048D01*
X1045177Y291646D01*
X1045317Y291239D01*
X1045446Y290830D01*
X1045566Y290417D01*
X1045676Y290002D01*
X1045775Y289584D01*
X1045864Y289164D01*
X1045942Y288742D01*
X1046011Y288318D01*
X1046068Y287892D01*
X1046116Y287465D01*
X1046153Y287037D01*
X1046179Y286609D01*
X1046195Y286179D01*
X1046200Y285750D01*
X1046195Y285321D01*
X1046179Y284891D01*
X1046153Y284463D01*
X1046116Y284035D01*
X1046068Y283608D01*
X1046011Y283182D01*
X1045942Y282758D01*
X1045864Y282336D01*
X1045775Y281916D01*
X1045676Y281498D01*
X1045566Y281083D01*
X1045446Y280670D01*
X1045317Y280261D01*
X1045177Y279854D01*
X1045027Y279452D01*
X1044868Y279053D01*
X1044699Y278658D01*
X1044520Y278268D01*
X1044331Y277882D01*
X1044134Y277501D01*
X1043927Y277124D01*
X1043710Y276753D01*
X1043485Y276388D01*
X1043251Y276028D01*
X1043008Y275673D01*
X1042756Y275325D01*
X1042496Y274983D01*
X1042228Y274648D01*
X1041951Y274319D01*
X1041667Y273998D01*
X1041374Y273683D01*
X1041074Y273376D01*
X1040767Y273076D01*
X1040452Y272783D01*
X1040131Y272499D01*
X1039802Y272222D01*
X1039467Y271954D01*
X1039125Y271694D01*
X1038777Y271442D01*
X1038422Y271199D01*
X1038062Y270965D01*
X1037697Y270740D01*
X1037326Y270523D01*
X1036949Y270316D01*
X1036568Y270119D01*
X1036182Y269930D01*
X1035792Y269751D01*
X1035397Y269582D01*
X1034998Y269423D01*
X1034596Y269273D01*
X1034189Y269133D01*
X1033780Y269004D01*
X1033367Y268884D01*
X1032952Y268774D01*
X1032534Y268675D01*
X1032114Y268586D01*
X1031692Y268508D01*
X1031268Y268439D01*
X1030842Y268382D01*
X1030415Y268334D01*
X1029987Y268297D01*
X1029559Y268271D01*
X1029129Y268255D01*
X1028700Y268250D01*
X1028271Y268255D01*
X1027841Y268271D01*
X1027413Y268297D01*
X1026985Y268334D01*
X1026558Y268382D01*
X1026132Y268439D01*
X1025708Y268508D01*
X1025286Y268586D01*
X1024866Y268675D01*
X1024448Y268774D01*
X1024033Y268884D01*
X1023620Y269004D01*
X1023211Y269133D01*
X1022804Y269273D01*
X1022402Y269423D01*
X1022003Y269582D01*
X1021608Y269751D01*
X1021218Y269930D01*
X1020832Y270119D01*
X1020451Y270316D01*
X1020074Y270523D01*
X1019703Y270740D01*
X1019338Y270965D01*
X1018978Y271199D01*
X1018623Y271442D01*
X1018275Y271694D01*
X1017933Y271954D01*
X1017598Y272222D01*
X1017269Y272499D01*
X1016948Y272783D01*
X1016633Y273076D01*
X1016326Y273376D01*
X1016026Y273683D01*
X1015733Y273998D01*
X1015449Y274319D01*
X1015172Y274648D01*
X1014904Y274983D01*
X1014644Y275325D01*
X1014392Y275673D01*
X1014149Y276028D01*
X1013915Y276388D01*
X1013690Y276753D01*
X1013473Y277124D01*
X1013266Y277501D01*
X1013069Y277882D01*
X1012880Y278268D01*
X1012701Y278658D01*
X1012532Y279053D01*
X1012373Y279452D01*
X1012223Y279854D01*
X1012083Y280261D01*
X1011954Y280670D01*
X1011834Y281083D01*
X1011724Y281498D01*
X1011625Y281916D01*
X1011536Y282336D01*
X1011458Y282758D01*
X1011389Y283182D01*
X1011332Y283608D01*
X1011284Y284035D01*
X1011247Y284463D01*
X1011221Y284891D01*
X1011205Y285321D01*
X1011200Y285750D01*
X433350Y361950D02*
X433355Y362379D01*
X433371Y362809D01*
X433397Y363237D01*
X433434Y363665D01*
X433482Y364092D01*
X433539Y364518D01*
X433608Y364942D01*
X433686Y365364D01*
X433775Y365784D01*
X433874Y366202D01*
X433984Y366617D01*
X434104Y367030D01*
X434233Y367439D01*
X434373Y367846D01*
X434523Y368248D01*
X434682Y368647D01*
X434851Y369042D01*
X435030Y369432D01*
X435219Y369818D01*
X435416Y370199D01*
X435623Y370576D01*
X435840Y370947D01*
X436065Y371312D01*
X436299Y371672D01*
X436542Y372027D01*
X436794Y372375D01*
X437054Y372717D01*
X437322Y373052D01*
X437599Y373381D01*
X437883Y373702D01*
X438176Y374017D01*
X438476Y374324D01*
X438783Y374624D01*
X439098Y374917D01*
X439419Y375201D01*
X439748Y375478D01*
X440083Y375746D01*
X440425Y376006D01*
X440773Y376258D01*
X441128Y376501D01*
X441488Y376735D01*
X441853Y376960D01*
X442224Y377177D01*
X442601Y377384D01*
X442982Y377581D01*
X443368Y377770D01*
X443758Y377949D01*
X444153Y378118D01*
X444552Y378277D01*
X444954Y378427D01*
X445361Y378567D01*
X445770Y378696D01*
X446183Y378816D01*
X446598Y378926D01*
X447016Y379025D01*
X447436Y379114D01*
X447858Y379192D01*
X448282Y379261D01*
X448708Y379318D01*
X449135Y379366D01*
X449563Y379403D01*
X449991Y379429D01*
X450421Y379445D01*
X450850Y379450D01*
X451279Y379445D01*
X451709Y379429D01*
X452137Y379403D01*
X452565Y379366D01*
X452992Y379318D01*
X453418Y379261D01*
X453842Y379192D01*
X454264Y379114D01*
X454684Y379025D01*
X455102Y378926D01*
X455517Y378816D01*
X455930Y378696D01*
X456339Y378567D01*
X456746Y378427D01*
X457148Y378277D01*
X457547Y378118D01*
X457942Y377949D01*
X458332Y377770D01*
X458718Y377581D01*
X459099Y377384D01*
X459476Y377177D01*
X459847Y376960D01*
X460212Y376735D01*
X460572Y376501D01*
X460927Y376258D01*
X461275Y376006D01*
X461617Y375746D01*
X461952Y375478D01*
X462281Y375201D01*
X462602Y374917D01*
X462917Y374624D01*
X463224Y374324D01*
X463524Y374017D01*
X463817Y373702D01*
X464101Y373381D01*
X464378Y373052D01*
X464646Y372717D01*
X464906Y372375D01*
X465158Y372027D01*
X465401Y371672D01*
X465635Y371312D01*
X465860Y370947D01*
X466077Y370576D01*
X466284Y370199D01*
X466481Y369818D01*
X466670Y369432D01*
X466849Y369042D01*
X467018Y368647D01*
X467177Y368248D01*
X467327Y367846D01*
X467467Y367439D01*
X467596Y367030D01*
X467716Y366617D01*
X467826Y366202D01*
X467925Y365784D01*
X468014Y365364D01*
X468092Y364942D01*
X468161Y364518D01*
X468218Y364092D01*
X468266Y363665D01*
X468303Y363237D01*
X468329Y362809D01*
X468345Y362379D01*
X468350Y361950D01*
X468345Y361521D01*
X468329Y361091D01*
X468303Y360663D01*
X468266Y360235D01*
X468218Y359808D01*
X468161Y359382D01*
X468092Y358958D01*
X468014Y358536D01*
X467925Y358116D01*
X467826Y357698D01*
X467716Y357283D01*
X467596Y356870D01*
X467467Y356461D01*
X467327Y356054D01*
X467177Y355652D01*
X467018Y355253D01*
X466849Y354858D01*
X466670Y354468D01*
X466481Y354082D01*
X466284Y353701D01*
X466077Y353324D01*
X465860Y352953D01*
X465635Y352588D01*
X465401Y352228D01*
X465158Y351873D01*
X464906Y351525D01*
X464646Y351183D01*
X464378Y350848D01*
X464101Y350519D01*
X463817Y350198D01*
X463524Y349883D01*
X463224Y349576D01*
X462917Y349276D01*
X462602Y348983D01*
X462281Y348699D01*
X461952Y348422D01*
X461617Y348154D01*
X461275Y347894D01*
X460927Y347642D01*
X460572Y347399D01*
X460212Y347165D01*
X459847Y346940D01*
X459476Y346723D01*
X459099Y346516D01*
X458718Y346319D01*
X458332Y346130D01*
X457942Y345951D01*
X457547Y345782D01*
X457148Y345623D01*
X456746Y345473D01*
X456339Y345333D01*
X455930Y345204D01*
X455517Y345084D01*
X455102Y344974D01*
X454684Y344875D01*
X454264Y344786D01*
X453842Y344708D01*
X453418Y344639D01*
X452992Y344582D01*
X452565Y344534D01*
X452137Y344497D01*
X451709Y344471D01*
X451279Y344455D01*
X450850Y344450D01*
X450421Y344455D01*
X449991Y344471D01*
X449563Y344497D01*
X449135Y344534D01*
X448708Y344582D01*
X448282Y344639D01*
X447858Y344708D01*
X447436Y344786D01*
X447016Y344875D01*
X446598Y344974D01*
X446183Y345084D01*
X445770Y345204D01*
X445361Y345333D01*
X444954Y345473D01*
X444552Y345623D01*
X444153Y345782D01*
X443758Y345951D01*
X443368Y346130D01*
X442982Y346319D01*
X442601Y346516D01*
X442224Y346723D01*
X441853Y346940D01*
X441488Y347165D01*
X441128Y347399D01*
X440773Y347642D01*
X440425Y347894D01*
X440083Y348154D01*
X439748Y348422D01*
X439419Y348699D01*
X439098Y348983D01*
X438783Y349276D01*
X438476Y349576D01*
X438176Y349883D01*
X437883Y350198D01*
X437599Y350519D01*
X437322Y350848D01*
X437054Y351183D01*
X436794Y351525D01*
X436542Y351873D01*
X436299Y352228D01*
X436065Y352588D01*
X435840Y352953D01*
X435623Y353324D01*
X435416Y353701D01*
X435219Y354082D01*
X435030Y354468D01*
X434851Y354858D01*
X434682Y355253D01*
X434523Y355652D01*
X434373Y356054D01*
X434233Y356461D01*
X434104Y356870D01*
X433984Y357283D01*
X433874Y357698D01*
X433775Y358116D01*
X433686Y358536D01*
X433608Y358958D01*
X433539Y359382D01*
X433482Y359808D01*
X433434Y360235D01*
X433397Y360663D01*
X433371Y361091D01*
X433355Y361521D01*
X433350Y361950D01*
X974170Y361950D02*
X974172Y362091D01*
X974178Y362232D01*
X974188Y362372D01*
X974202Y362512D01*
X974220Y362652D01*
X974241Y362791D01*
X974267Y362930D01*
X974296Y363068D01*
X974330Y363204D01*
X974367Y363340D01*
X974408Y363475D01*
X974453Y363609D01*
X974502Y363741D01*
X974554Y363872D01*
X974610Y364001D01*
X974670Y364128D01*
X974733Y364254D01*
X974799Y364378D01*
X974870Y364501D01*
X974943Y364621D01*
X975020Y364739D01*
X975100Y364855D01*
X975184Y364968D01*
X975270Y365079D01*
X975360Y365188D01*
X975453Y365294D01*
X975548Y365397D01*
X975647Y365498D01*
X975748Y365596D01*
X975852Y365691D01*
X975959Y365783D01*
X976068Y365872D01*
X976180Y365957D01*
X976294Y366040D01*
X976410Y366120D01*
X976529Y366196D01*
X976650Y366268D01*
X976772Y366338D01*
X976897Y366403D01*
X977023Y366466D01*
X977151Y366524D01*
X977281Y366579D01*
X977412Y366631D01*
X977545Y366678D01*
X977679Y366722D01*
X977814Y366763D01*
X977950Y366799D01*
X978087Y366831D01*
X978225Y366860D01*
X978363Y366885D01*
X978503Y366905D01*
X978643Y366922D01*
X978783Y366935D01*
X978924Y366944D01*
X979064Y366949D01*
X979205Y366950D01*
X979346Y366947D01*
X979487Y366940D01*
X979627Y366929D01*
X979767Y366914D01*
X979907Y366895D01*
X980046Y366873D01*
X980184Y366846D01*
X980322Y366816D01*
X980458Y366781D01*
X980594Y366743D01*
X980728Y366701D01*
X980862Y366655D01*
X980994Y366606D01*
X981124Y366552D01*
X981253Y366495D01*
X981380Y366435D01*
X981506Y366371D01*
X981629Y366303D01*
X981751Y366232D01*
X981871Y366158D01*
X981988Y366080D01*
X982103Y365999D01*
X982216Y365915D01*
X982327Y365828D01*
X982435Y365737D01*
X982540Y365644D01*
X982643Y365547D01*
X982743Y365448D01*
X982840Y365346D01*
X982934Y365241D01*
X983025Y365134D01*
X983113Y365024D01*
X983198Y364912D01*
X983280Y364797D01*
X983359Y364680D01*
X983434Y364561D01*
X983506Y364440D01*
X983574Y364317D01*
X983639Y364192D01*
X983701Y364065D01*
X983758Y363936D01*
X983813Y363806D01*
X983863Y363675D01*
X983910Y363542D01*
X983953Y363408D01*
X983992Y363272D01*
X984027Y363136D01*
X984059Y362999D01*
X984086Y362861D01*
X984110Y362722D01*
X984130Y362582D01*
X984146Y362442D01*
X984158Y362302D01*
X984166Y362161D01*
X984170Y362020D01*
X984170Y361880D01*
X984166Y361739D01*
X984158Y361598D01*
X984146Y361458D01*
X984130Y361318D01*
X984110Y361178D01*
X984086Y361039D01*
X984059Y360901D01*
X984027Y360764D01*
X983992Y360628D01*
X983953Y360492D01*
X983910Y360358D01*
X983863Y360225D01*
X983813Y360094D01*
X983758Y359964D01*
X983701Y359835D01*
X983639Y359708D01*
X983574Y359583D01*
X983506Y359460D01*
X983434Y359339D01*
X983359Y359220D01*
X983280Y359103D01*
X983198Y358988D01*
X983113Y358876D01*
X983025Y358766D01*
X982934Y358659D01*
X982840Y358554D01*
X982743Y358452D01*
X982643Y358353D01*
X982540Y358256D01*
X982435Y358163D01*
X982327Y358072D01*
X982216Y357985D01*
X982103Y357901D01*
X981988Y357820D01*
X981871Y357742D01*
X981751Y357668D01*
X981629Y357597D01*
X981506Y357529D01*
X981380Y357465D01*
X981253Y357405D01*
X981124Y357348D01*
X980994Y357294D01*
X980862Y357245D01*
X980728Y357199D01*
X980594Y357157D01*
X980458Y357119D01*
X980322Y357084D01*
X980184Y357054D01*
X980046Y357027D01*
X979907Y357005D01*
X979767Y356986D01*
X979627Y356971D01*
X979487Y356960D01*
X979346Y356953D01*
X979205Y356950D01*
X979064Y356951D01*
X978924Y356956D01*
X978783Y356965D01*
X978643Y356978D01*
X978503Y356995D01*
X978363Y357015D01*
X978225Y357040D01*
X978087Y357069D01*
X977950Y357101D01*
X977814Y357137D01*
X977679Y357178D01*
X977545Y357222D01*
X977412Y357269D01*
X977281Y357321D01*
X977151Y357376D01*
X977023Y357434D01*
X976897Y357497D01*
X976772Y357562D01*
X976650Y357632D01*
X976529Y357704D01*
X976410Y357780D01*
X976294Y357860D01*
X976180Y357943D01*
X976068Y358028D01*
X975959Y358117D01*
X975852Y358209D01*
X975748Y358304D01*
X975647Y358402D01*
X975548Y358503D01*
X975453Y358606D01*
X975360Y358712D01*
X975270Y358821D01*
X975184Y358932D01*
X975100Y359045D01*
X975020Y359161D01*
X974943Y359279D01*
X974870Y359399D01*
X974799Y359522D01*
X974733Y359646D01*
X974670Y359772D01*
X974610Y359899D01*
X974554Y360028D01*
X974502Y360159D01*
X974453Y360291D01*
X974408Y360425D01*
X974367Y360560D01*
X974330Y360696D01*
X974296Y360832D01*
X974267Y360970D01*
X974241Y361109D01*
X974220Y361248D01*
X974202Y361388D01*
X974188Y361528D01*
X974178Y361668D01*
X974172Y361809D01*
X974170Y361950D01*
X1022430Y361950D02*
X1022432Y362091D01*
X1022438Y362232D01*
X1022448Y362372D01*
X1022462Y362512D01*
X1022480Y362652D01*
X1022501Y362791D01*
X1022527Y362930D01*
X1022556Y363068D01*
X1022590Y363204D01*
X1022627Y363340D01*
X1022668Y363475D01*
X1022713Y363609D01*
X1022762Y363741D01*
X1022814Y363872D01*
X1022870Y364001D01*
X1022930Y364128D01*
X1022993Y364254D01*
X1023059Y364378D01*
X1023130Y364501D01*
X1023203Y364621D01*
X1023280Y364739D01*
X1023360Y364855D01*
X1023444Y364968D01*
X1023530Y365079D01*
X1023620Y365188D01*
X1023713Y365294D01*
X1023808Y365397D01*
X1023907Y365498D01*
X1024008Y365596D01*
X1024112Y365691D01*
X1024219Y365783D01*
X1024328Y365872D01*
X1024440Y365957D01*
X1024554Y366040D01*
X1024670Y366120D01*
X1024789Y366196D01*
X1024910Y366268D01*
X1025032Y366338D01*
X1025157Y366403D01*
X1025283Y366466D01*
X1025411Y366524D01*
X1025541Y366579D01*
X1025672Y366631D01*
X1025805Y366678D01*
X1025939Y366722D01*
X1026074Y366763D01*
X1026210Y366799D01*
X1026347Y366831D01*
X1026485Y366860D01*
X1026623Y366885D01*
X1026763Y366905D01*
X1026903Y366922D01*
X1027043Y366935D01*
X1027184Y366944D01*
X1027324Y366949D01*
X1027465Y366950D01*
X1027606Y366947D01*
X1027747Y366940D01*
X1027887Y366929D01*
X1028027Y366914D01*
X1028167Y366895D01*
X1028306Y366873D01*
X1028444Y366846D01*
X1028582Y366816D01*
X1028718Y366781D01*
X1028854Y366743D01*
X1028988Y366701D01*
X1029122Y366655D01*
X1029254Y366606D01*
X1029384Y366552D01*
X1029513Y366495D01*
X1029640Y366435D01*
X1029766Y366371D01*
X1029889Y366303D01*
X1030011Y366232D01*
X1030131Y366158D01*
X1030248Y366080D01*
X1030363Y365999D01*
X1030476Y365915D01*
X1030587Y365828D01*
X1030695Y365737D01*
X1030800Y365644D01*
X1030903Y365547D01*
X1031003Y365448D01*
X1031100Y365346D01*
X1031194Y365241D01*
X1031285Y365134D01*
X1031373Y365024D01*
X1031458Y364912D01*
X1031540Y364797D01*
X1031619Y364680D01*
X1031694Y364561D01*
X1031766Y364440D01*
X1031834Y364317D01*
X1031899Y364192D01*
X1031961Y364065D01*
X1032018Y363936D01*
X1032073Y363806D01*
X1032123Y363675D01*
X1032170Y363542D01*
X1032213Y363408D01*
X1032252Y363272D01*
X1032287Y363136D01*
X1032319Y362999D01*
X1032346Y362861D01*
X1032370Y362722D01*
X1032390Y362582D01*
X1032406Y362442D01*
X1032418Y362302D01*
X1032426Y362161D01*
X1032430Y362020D01*
X1032430Y361880D01*
X1032426Y361739D01*
X1032418Y361598D01*
X1032406Y361458D01*
X1032390Y361318D01*
X1032370Y361178D01*
X1032346Y361039D01*
X1032319Y360901D01*
X1032287Y360764D01*
X1032252Y360628D01*
X1032213Y360492D01*
X1032170Y360358D01*
X1032123Y360225D01*
X1032073Y360094D01*
X1032018Y359964D01*
X1031961Y359835D01*
X1031899Y359708D01*
X1031834Y359583D01*
X1031766Y359460D01*
X1031694Y359339D01*
X1031619Y359220D01*
X1031540Y359103D01*
X1031458Y358988D01*
X1031373Y358876D01*
X1031285Y358766D01*
X1031194Y358659D01*
X1031100Y358554D01*
X1031003Y358452D01*
X1030903Y358353D01*
X1030800Y358256D01*
X1030695Y358163D01*
X1030587Y358072D01*
X1030476Y357985D01*
X1030363Y357901D01*
X1030248Y357820D01*
X1030131Y357742D01*
X1030011Y357668D01*
X1029889Y357597D01*
X1029766Y357529D01*
X1029640Y357465D01*
X1029513Y357405D01*
X1029384Y357348D01*
X1029254Y357294D01*
X1029122Y357245D01*
X1028988Y357199D01*
X1028854Y357157D01*
X1028718Y357119D01*
X1028582Y357084D01*
X1028444Y357054D01*
X1028306Y357027D01*
X1028167Y357005D01*
X1028027Y356986D01*
X1027887Y356971D01*
X1027747Y356960D01*
X1027606Y356953D01*
X1027465Y356950D01*
X1027324Y356951D01*
X1027184Y356956D01*
X1027043Y356965D01*
X1026903Y356978D01*
X1026763Y356995D01*
X1026623Y357015D01*
X1026485Y357040D01*
X1026347Y357069D01*
X1026210Y357101D01*
X1026074Y357137D01*
X1025939Y357178D01*
X1025805Y357222D01*
X1025672Y357269D01*
X1025541Y357321D01*
X1025411Y357376D01*
X1025283Y357434D01*
X1025157Y357497D01*
X1025032Y357562D01*
X1024910Y357632D01*
X1024789Y357704D01*
X1024670Y357780D01*
X1024554Y357860D01*
X1024440Y357943D01*
X1024328Y358028D01*
X1024219Y358117D01*
X1024112Y358209D01*
X1024008Y358304D01*
X1023907Y358402D01*
X1023808Y358503D01*
X1023713Y358606D01*
X1023620Y358712D01*
X1023530Y358821D01*
X1023444Y358932D01*
X1023360Y359045D01*
X1023280Y359161D01*
X1023203Y359279D01*
X1023130Y359399D01*
X1023059Y359522D01*
X1022993Y359646D01*
X1022930Y359772D01*
X1022870Y359899D01*
X1022814Y360028D01*
X1022762Y360159D01*
X1022713Y360291D01*
X1022668Y360425D01*
X1022627Y360560D01*
X1022590Y360696D01*
X1022556Y360832D01*
X1022527Y360970D01*
X1022501Y361109D01*
X1022480Y361248D01*
X1022462Y361388D01*
X1022448Y361528D01*
X1022438Y361668D01*
X1022432Y361809D01*
X1022430Y361950D01*
X9400Y30480D02*
X9405Y30873D01*
X9419Y31265D01*
X9443Y31657D01*
X9477Y32048D01*
X9520Y32439D01*
X9573Y32828D01*
X9636Y33215D01*
X9707Y33601D01*
X9789Y33986D01*
X9879Y34368D01*
X9980Y34747D01*
X10089Y35125D01*
X10208Y35499D01*
X10335Y35870D01*
X10472Y36238D01*
X10618Y36603D01*
X10773Y36964D01*
X10936Y37321D01*
X11108Y37674D01*
X11289Y38022D01*
X11479Y38366D01*
X11676Y38706D01*
X11882Y39040D01*
X12096Y39369D01*
X12319Y39693D01*
X12549Y40011D01*
X12786Y40324D01*
X13032Y40630D01*
X13285Y40931D01*
X13545Y41225D01*
X13812Y41513D01*
X14086Y41794D01*
X14367Y42068D01*
X14655Y42335D01*
X14949Y42595D01*
X15250Y42848D01*
X15556Y43094D01*
X15869Y43331D01*
X16187Y43561D01*
X16511Y43784D01*
X16840Y43998D01*
X17174Y44204D01*
X17514Y44401D01*
X17858Y44591D01*
X18206Y44772D01*
X18559Y44944D01*
X18916Y45107D01*
X19277Y45262D01*
X19642Y45408D01*
X20010Y45545D01*
X20381Y45672D01*
X20755Y45791D01*
X21133Y45900D01*
X21512Y46001D01*
X21894Y46091D01*
X22279Y46173D01*
X22665Y46244D01*
X23052Y46307D01*
X23441Y46360D01*
X23832Y46403D01*
X24223Y46437D01*
X24615Y46461D01*
X25007Y46475D01*
X25400Y46480D01*
X25793Y46475D01*
X26185Y46461D01*
X26577Y46437D01*
X26968Y46403D01*
X27359Y46360D01*
X27748Y46307D01*
X28135Y46244D01*
X28521Y46173D01*
X28906Y46091D01*
X29288Y46001D01*
X29667Y45900D01*
X30045Y45791D01*
X30419Y45672D01*
X30790Y45545D01*
X31158Y45408D01*
X31523Y45262D01*
X31884Y45107D01*
X32241Y44944D01*
X32594Y44772D01*
X32942Y44591D01*
X33286Y44401D01*
X33626Y44204D01*
X33960Y43998D01*
X34289Y43784D01*
X34613Y43561D01*
X34931Y43331D01*
X35244Y43094D01*
X35550Y42848D01*
X35851Y42595D01*
X36145Y42335D01*
X36433Y42068D01*
X36714Y41794D01*
X36988Y41513D01*
X37255Y41225D01*
X37515Y40931D01*
X37768Y40630D01*
X38014Y40324D01*
X38251Y40011D01*
X38481Y39693D01*
X38704Y39369D01*
X38918Y39040D01*
X39124Y38706D01*
X39321Y38366D01*
X39511Y38022D01*
X39692Y37674D01*
X39864Y37321D01*
X40027Y36964D01*
X40182Y36603D01*
X40328Y36238D01*
X40465Y35870D01*
X40592Y35499D01*
X40711Y35125D01*
X40820Y34747D01*
X40921Y34368D01*
X41011Y33986D01*
X41093Y33601D01*
X41164Y33215D01*
X41227Y32828D01*
X41280Y32439D01*
X41323Y32048D01*
X41357Y31657D01*
X41381Y31265D01*
X41395Y30873D01*
X41400Y30480D01*
X41395Y30087D01*
X41381Y29695D01*
X41357Y29303D01*
X41323Y28912D01*
X41280Y28521D01*
X41227Y28132D01*
X41164Y27745D01*
X41093Y27359D01*
X41011Y26974D01*
X40921Y26592D01*
X40820Y26213D01*
X40711Y25835D01*
X40592Y25461D01*
X40465Y25090D01*
X40328Y24722D01*
X40182Y24357D01*
X40027Y23996D01*
X39864Y23639D01*
X39692Y23286D01*
X39511Y22938D01*
X39321Y22594D01*
X39124Y22254D01*
X38918Y21920D01*
X38704Y21591D01*
X38481Y21267D01*
X38251Y20949D01*
X38014Y20636D01*
X37768Y20330D01*
X37515Y20029D01*
X37255Y19735D01*
X36988Y19447D01*
X36714Y19166D01*
X36433Y18892D01*
X36145Y18625D01*
X35851Y18365D01*
X35550Y18112D01*
X35244Y17866D01*
X34931Y17629D01*
X34613Y17399D01*
X34289Y17176D01*
X33960Y16962D01*
X33626Y16756D01*
X33286Y16559D01*
X32942Y16369D01*
X32594Y16188D01*
X32241Y16016D01*
X31884Y15853D01*
X31523Y15698D01*
X31158Y15552D01*
X30790Y15415D01*
X30419Y15288D01*
X30045Y15169D01*
X29667Y15060D01*
X29288Y14959D01*
X28906Y14869D01*
X28521Y14787D01*
X28135Y14716D01*
X27748Y14653D01*
X27359Y14600D01*
X26968Y14557D01*
X26577Y14523D01*
X26185Y14499D01*
X25793Y14485D01*
X25400Y14480D01*
X25007Y14485D01*
X24615Y14499D01*
X24223Y14523D01*
X23832Y14557D01*
X23441Y14600D01*
X23052Y14653D01*
X22665Y14716D01*
X22279Y14787D01*
X21894Y14869D01*
X21512Y14959D01*
X21133Y15060D01*
X20755Y15169D01*
X20381Y15288D01*
X20010Y15415D01*
X19642Y15552D01*
X19277Y15698D01*
X18916Y15853D01*
X18559Y16016D01*
X18206Y16188D01*
X17858Y16369D01*
X17514Y16559D01*
X17174Y16756D01*
X16840Y16962D01*
X16511Y17176D01*
X16187Y17399D01*
X15869Y17629D01*
X15556Y17866D01*
X15250Y18112D01*
X14949Y18365D01*
X14655Y18625D01*
X14367Y18892D01*
X14086Y19166D01*
X13812Y19447D01*
X13545Y19735D01*
X13285Y20029D01*
X13032Y20330D01*
X12786Y20636D01*
X12549Y20949D01*
X12319Y21267D01*
X12096Y21591D01*
X11882Y21920D01*
X11676Y22254D01*
X11479Y22594D01*
X11289Y22938D01*
X11108Y23286D01*
X10936Y23639D01*
X10773Y23996D01*
X10618Y24357D01*
X10472Y24722D01*
X10335Y25090D01*
X10208Y25461D01*
X10089Y25835D01*
X9980Y26213D01*
X9879Y26592D01*
X9789Y26974D01*
X9707Y27359D01*
X9636Y27745D01*
X9573Y28132D01*
X9520Y28521D01*
X9477Y28912D01*
X9443Y29303D01*
X9419Y29695D01*
X9405Y30087D01*
X9400Y30480D01*
X955550Y30480D02*
X955555Y30873D01*
X955569Y31265D01*
X955593Y31657D01*
X955627Y32048D01*
X955670Y32439D01*
X955723Y32828D01*
X955786Y33215D01*
X955857Y33601D01*
X955939Y33986D01*
X956029Y34368D01*
X956130Y34747D01*
X956239Y35125D01*
X956358Y35499D01*
X956485Y35870D01*
X956622Y36238D01*
X956768Y36603D01*
X956923Y36964D01*
X957086Y37321D01*
X957258Y37674D01*
X957439Y38022D01*
X957629Y38366D01*
X957826Y38706D01*
X958032Y39040D01*
X958246Y39369D01*
X958469Y39693D01*
X958699Y40011D01*
X958936Y40324D01*
X959182Y40630D01*
X959435Y40931D01*
X959695Y41225D01*
X959962Y41513D01*
X960236Y41794D01*
X960517Y42068D01*
X960805Y42335D01*
X961099Y42595D01*
X961400Y42848D01*
X961706Y43094D01*
X962019Y43331D01*
X962337Y43561D01*
X962661Y43784D01*
X962990Y43998D01*
X963324Y44204D01*
X963664Y44401D01*
X964008Y44591D01*
X964356Y44772D01*
X964709Y44944D01*
X965066Y45107D01*
X965427Y45262D01*
X965792Y45408D01*
X966160Y45545D01*
X966531Y45672D01*
X966905Y45791D01*
X967283Y45900D01*
X967662Y46001D01*
X968044Y46091D01*
X968429Y46173D01*
X968815Y46244D01*
X969202Y46307D01*
X969591Y46360D01*
X969982Y46403D01*
X970373Y46437D01*
X970765Y46461D01*
X971157Y46475D01*
X971550Y46480D01*
X971943Y46475D01*
X972335Y46461D01*
X972727Y46437D01*
X973118Y46403D01*
X973509Y46360D01*
X973898Y46307D01*
X974285Y46244D01*
X974671Y46173D01*
X975056Y46091D01*
X975438Y46001D01*
X975817Y45900D01*
X976195Y45791D01*
X976569Y45672D01*
X976940Y45545D01*
X977308Y45408D01*
X977673Y45262D01*
X978034Y45107D01*
X978391Y44944D01*
X978744Y44772D01*
X979092Y44591D01*
X979436Y44401D01*
X979776Y44204D01*
X980110Y43998D01*
X980439Y43784D01*
X980763Y43561D01*
X981081Y43331D01*
X981394Y43094D01*
X981700Y42848D01*
X982001Y42595D01*
X982295Y42335D01*
X982583Y42068D01*
X982864Y41794D01*
X983138Y41513D01*
X983405Y41225D01*
X983665Y40931D01*
X983918Y40630D01*
X984164Y40324D01*
X984401Y40011D01*
X984631Y39693D01*
X984854Y39369D01*
X985068Y39040D01*
X985274Y38706D01*
X985471Y38366D01*
X985661Y38022D01*
X985842Y37674D01*
X986014Y37321D01*
X986177Y36964D01*
X986332Y36603D01*
X986478Y36238D01*
X986615Y35870D01*
X986742Y35499D01*
X986861Y35125D01*
X986970Y34747D01*
X987071Y34368D01*
X987161Y33986D01*
X987243Y33601D01*
X987314Y33215D01*
X987377Y32828D01*
X987430Y32439D01*
X987473Y32048D01*
X987507Y31657D01*
X987531Y31265D01*
X987545Y30873D01*
X987550Y30480D01*
X987545Y30087D01*
X987531Y29695D01*
X987507Y29303D01*
X987473Y28912D01*
X987430Y28521D01*
X987377Y28132D01*
X987314Y27745D01*
X987243Y27359D01*
X987161Y26974D01*
X987071Y26592D01*
X986970Y26213D01*
X986861Y25835D01*
X986742Y25461D01*
X986615Y25090D01*
X986478Y24722D01*
X986332Y24357D01*
X986177Y23996D01*
X986014Y23639D01*
X985842Y23286D01*
X985661Y22938D01*
X985471Y22594D01*
X985274Y22254D01*
X985068Y21920D01*
X984854Y21591D01*
X984631Y21267D01*
X984401Y20949D01*
X984164Y20636D01*
X983918Y20330D01*
X983665Y20029D01*
X983405Y19735D01*
X983138Y19447D01*
X982864Y19166D01*
X982583Y18892D01*
X982295Y18625D01*
X982001Y18365D01*
X981700Y18112D01*
X981394Y17866D01*
X981081Y17629D01*
X980763Y17399D01*
X980439Y17176D01*
X980110Y16962D01*
X979776Y16756D01*
X979436Y16559D01*
X979092Y16369D01*
X978744Y16188D01*
X978391Y16016D01*
X978034Y15853D01*
X977673Y15698D01*
X977308Y15552D01*
X976940Y15415D01*
X976569Y15288D01*
X976195Y15169D01*
X975817Y15060D01*
X975438Y14959D01*
X975056Y14869D01*
X974671Y14787D01*
X974285Y14716D01*
X973898Y14653D01*
X973509Y14600D01*
X973118Y14557D01*
X972727Y14523D01*
X972335Y14499D01*
X971943Y14485D01*
X971550Y14480D01*
X971157Y14485D01*
X970765Y14499D01*
X970373Y14523D01*
X969982Y14557D01*
X969591Y14600D01*
X969202Y14653D01*
X968815Y14716D01*
X968429Y14787D01*
X968044Y14869D01*
X967662Y14959D01*
X967283Y15060D01*
X966905Y15169D01*
X966531Y15288D01*
X966160Y15415D01*
X965792Y15552D01*
X965427Y15698D01*
X965066Y15853D01*
X964709Y16016D01*
X964356Y16188D01*
X964008Y16369D01*
X963664Y16559D01*
X963324Y16756D01*
X962990Y16962D01*
X962661Y17176D01*
X962337Y17399D01*
X962019Y17629D01*
X961706Y17866D01*
X961400Y18112D01*
X961099Y18365D01*
X960805Y18625D01*
X960517Y18892D01*
X960236Y19166D01*
X959962Y19447D01*
X959695Y19735D01*
X959435Y20029D01*
X959182Y20330D01*
X958936Y20636D01*
X958699Y20949D01*
X958469Y21267D01*
X958246Y21591D01*
X958032Y21920D01*
X957826Y22254D01*
X957629Y22594D01*
X957439Y22938D01*
X957258Y23286D01*
X957086Y23639D01*
X956923Y23996D01*
X956768Y24357D01*
X956622Y24722D01*
X956485Y25090D01*
X956358Y25461D01*
X956239Y25835D01*
X956130Y26213D01*
X956029Y26592D01*
X955939Y26974D01*
X955857Y27359D01*
X955786Y27745D01*
X955723Y28132D01*
X955670Y28521D01*
X955627Y28912D01*
X955593Y29303D01*
X955569Y29695D01*
X955555Y30087D01*
X955550Y30480D01*
X9400Y285750D02*
X9405Y286143D01*
X9419Y286535D01*
X9443Y286927D01*
X9477Y287318D01*
X9520Y287709D01*
X9573Y288098D01*
X9636Y288485D01*
X9707Y288871D01*
X9789Y289256D01*
X9879Y289638D01*
X9980Y290017D01*
X10089Y290395D01*
X10208Y290769D01*
X10335Y291140D01*
X10472Y291508D01*
X10618Y291873D01*
X10773Y292234D01*
X10936Y292591D01*
X11108Y292944D01*
X11289Y293292D01*
X11479Y293636D01*
X11676Y293976D01*
X11882Y294310D01*
X12096Y294639D01*
X12319Y294963D01*
X12549Y295281D01*
X12786Y295594D01*
X13032Y295900D01*
X13285Y296201D01*
X13545Y296495D01*
X13812Y296783D01*
X14086Y297064D01*
X14367Y297338D01*
X14655Y297605D01*
X14949Y297865D01*
X15250Y298118D01*
X15556Y298364D01*
X15869Y298601D01*
X16187Y298831D01*
X16511Y299054D01*
X16840Y299268D01*
X17174Y299474D01*
X17514Y299671D01*
X17858Y299861D01*
X18206Y300042D01*
X18559Y300214D01*
X18916Y300377D01*
X19277Y300532D01*
X19642Y300678D01*
X20010Y300815D01*
X20381Y300942D01*
X20755Y301061D01*
X21133Y301170D01*
X21512Y301271D01*
X21894Y301361D01*
X22279Y301443D01*
X22665Y301514D01*
X23052Y301577D01*
X23441Y301630D01*
X23832Y301673D01*
X24223Y301707D01*
X24615Y301731D01*
X25007Y301745D01*
X25400Y301750D01*
X25793Y301745D01*
X26185Y301731D01*
X26577Y301707D01*
X26968Y301673D01*
X27359Y301630D01*
X27748Y301577D01*
X28135Y301514D01*
X28521Y301443D01*
X28906Y301361D01*
X29288Y301271D01*
X29667Y301170D01*
X30045Y301061D01*
X30419Y300942D01*
X30790Y300815D01*
X31158Y300678D01*
X31523Y300532D01*
X31884Y300377D01*
X32241Y300214D01*
X32594Y300042D01*
X32942Y299861D01*
X33286Y299671D01*
X33626Y299474D01*
X33960Y299268D01*
X34289Y299054D01*
X34613Y298831D01*
X34931Y298601D01*
X35244Y298364D01*
X35550Y298118D01*
X35851Y297865D01*
X36145Y297605D01*
X36433Y297338D01*
X36714Y297064D01*
X36988Y296783D01*
X37255Y296495D01*
X37515Y296201D01*
X37768Y295900D01*
X38014Y295594D01*
X38251Y295281D01*
X38481Y294963D01*
X38704Y294639D01*
X38918Y294310D01*
X39124Y293976D01*
X39321Y293636D01*
X39511Y293292D01*
X39692Y292944D01*
X39864Y292591D01*
X40027Y292234D01*
X40182Y291873D01*
X40328Y291508D01*
X40465Y291140D01*
X40592Y290769D01*
X40711Y290395D01*
X40820Y290017D01*
X40921Y289638D01*
X41011Y289256D01*
X41093Y288871D01*
X41164Y288485D01*
X41227Y288098D01*
X41280Y287709D01*
X41323Y287318D01*
X41357Y286927D01*
X41381Y286535D01*
X41395Y286143D01*
X41400Y285750D01*
X41395Y285357D01*
X41381Y284965D01*
X41357Y284573D01*
X41323Y284182D01*
X41280Y283791D01*
X41227Y283402D01*
X41164Y283015D01*
X41093Y282629D01*
X41011Y282244D01*
X40921Y281862D01*
X40820Y281483D01*
X40711Y281105D01*
X40592Y280731D01*
X40465Y280360D01*
X40328Y279992D01*
X40182Y279627D01*
X40027Y279266D01*
X39864Y278909D01*
X39692Y278556D01*
X39511Y278208D01*
X39321Y277864D01*
X39124Y277524D01*
X38918Y277190D01*
X38704Y276861D01*
X38481Y276537D01*
X38251Y276219D01*
X38014Y275906D01*
X37768Y275600D01*
X37515Y275299D01*
X37255Y275005D01*
X36988Y274717D01*
X36714Y274436D01*
X36433Y274162D01*
X36145Y273895D01*
X35851Y273635D01*
X35550Y273382D01*
X35244Y273136D01*
X34931Y272899D01*
X34613Y272669D01*
X34289Y272446D01*
X33960Y272232D01*
X33626Y272026D01*
X33286Y271829D01*
X32942Y271639D01*
X32594Y271458D01*
X32241Y271286D01*
X31884Y271123D01*
X31523Y270968D01*
X31158Y270822D01*
X30790Y270685D01*
X30419Y270558D01*
X30045Y270439D01*
X29667Y270330D01*
X29288Y270229D01*
X28906Y270139D01*
X28521Y270057D01*
X28135Y269986D01*
X27748Y269923D01*
X27359Y269870D01*
X26968Y269827D01*
X26577Y269793D01*
X26185Y269769D01*
X25793Y269755D01*
X25400Y269750D01*
X25007Y269755D01*
X24615Y269769D01*
X24223Y269793D01*
X23832Y269827D01*
X23441Y269870D01*
X23052Y269923D01*
X22665Y269986D01*
X22279Y270057D01*
X21894Y270139D01*
X21512Y270229D01*
X21133Y270330D01*
X20755Y270439D01*
X20381Y270558D01*
X20010Y270685D01*
X19642Y270822D01*
X19277Y270968D01*
X18916Y271123D01*
X18559Y271286D01*
X18206Y271458D01*
X17858Y271639D01*
X17514Y271829D01*
X17174Y272026D01*
X16840Y272232D01*
X16511Y272446D01*
X16187Y272669D01*
X15869Y272899D01*
X15556Y273136D01*
X15250Y273382D01*
X14949Y273635D01*
X14655Y273895D01*
X14367Y274162D01*
X14086Y274436D01*
X13812Y274717D01*
X13545Y275005D01*
X13285Y275299D01*
X13032Y275600D01*
X12786Y275906D01*
X12549Y276219D01*
X12319Y276537D01*
X12096Y276861D01*
X11882Y277190D01*
X11676Y277524D01*
X11479Y277864D01*
X11289Y278208D01*
X11108Y278556D01*
X10936Y278909D01*
X10773Y279266D01*
X10618Y279627D01*
X10472Y279992D01*
X10335Y280360D01*
X10208Y280731D01*
X10089Y281105D01*
X9980Y281483D01*
X9879Y281862D01*
X9789Y282244D01*
X9707Y282629D01*
X9636Y283015D01*
X9573Y283402D01*
X9520Y283791D01*
X9477Y284182D01*
X9443Y284573D01*
X9419Y284965D01*
X9405Y285357D01*
X9400Y285750D01*
X955550Y285750D02*
X955555Y286143D01*
X955569Y286535D01*
X955593Y286927D01*
X955627Y287318D01*
X955670Y287709D01*
X955723Y288098D01*
X955786Y288485D01*
X955857Y288871D01*
X955939Y289256D01*
X956029Y289638D01*
X956130Y290017D01*
X956239Y290395D01*
X956358Y290769D01*
X956485Y291140D01*
X956622Y291508D01*
X956768Y291873D01*
X956923Y292234D01*
X957086Y292591D01*
X957258Y292944D01*
X957439Y293292D01*
X957629Y293636D01*
X957826Y293976D01*
X958032Y294310D01*
X958246Y294639D01*
X958469Y294963D01*
X958699Y295281D01*
X958936Y295594D01*
X959182Y295900D01*
X959435Y296201D01*
X959695Y296495D01*
X959962Y296783D01*
X960236Y297064D01*
X960517Y297338D01*
X960805Y297605D01*
X961099Y297865D01*
X961400Y298118D01*
X961706Y298364D01*
X962019Y298601D01*
X962337Y298831D01*
X962661Y299054D01*
X962990Y299268D01*
X963324Y299474D01*
X963664Y299671D01*
X964008Y299861D01*
X964356Y300042D01*
X964709Y300214D01*
X965066Y300377D01*
X965427Y300532D01*
X965792Y300678D01*
X966160Y300815D01*
X966531Y300942D01*
X966905Y301061D01*
X967283Y301170D01*
X967662Y301271D01*
X968044Y301361D01*
X968429Y301443D01*
X968815Y301514D01*
X969202Y301577D01*
X969591Y301630D01*
X969982Y301673D01*
X970373Y301707D01*
X970765Y301731D01*
X971157Y301745D01*
X971550Y301750D01*
X971943Y301745D01*
X972335Y301731D01*
X972727Y301707D01*
X973118Y301673D01*
X973509Y301630D01*
X973898Y301577D01*
X974285Y301514D01*
X974671Y301443D01*
X975056Y301361D01*
X975438Y301271D01*
X975817Y301170D01*
X976195Y301061D01*
X976569Y300942D01*
X976940Y300815D01*
X977308Y300678D01*
X977673Y300532D01*
X978034Y300377D01*
X978391Y300214D01*
X978744Y300042D01*
X979092Y299861D01*
X979436Y299671D01*
X979776Y299474D01*
X980110Y299268D01*
X980439Y299054D01*
X980763Y298831D01*
X981081Y298601D01*
X981394Y298364D01*
X981700Y298118D01*
X982001Y297865D01*
X982295Y297605D01*
X982583Y297338D01*
X982864Y297064D01*
X983138Y296783D01*
X983405Y296495D01*
X983665Y296201D01*
X983918Y295900D01*
X984164Y295594D01*
X984401Y295281D01*
X984631Y294963D01*
X984854Y294639D01*
X985068Y294310D01*
X985274Y293976D01*
X985471Y293636D01*
X985661Y293292D01*
X985842Y292944D01*
X986014Y292591D01*
X986177Y292234D01*
X986332Y291873D01*
X986478Y291508D01*
X986615Y291140D01*
X986742Y290769D01*
X986861Y290395D01*
X986970Y290017D01*
X987071Y289638D01*
X987161Y289256D01*
X987243Y288871D01*
X987314Y288485D01*
X987377Y288098D01*
X987430Y287709D01*
X987473Y287318D01*
X987507Y286927D01*
X987531Y286535D01*
X987545Y286143D01*
X987550Y285750D01*
X987545Y285357D01*
X987531Y284965D01*
X987507Y284573D01*
X987473Y284182D01*
X987430Y283791D01*
X987377Y283402D01*
X987314Y283015D01*
X987243Y282629D01*
X987161Y282244D01*
X987071Y281862D01*
X986970Y281483D01*
X986861Y281105D01*
X986742Y280731D01*
X986615Y280360D01*
X986478Y279992D01*
X986332Y279627D01*
X986177Y279266D01*
X986014Y278909D01*
X985842Y278556D01*
X985661Y278208D01*
X985471Y277864D01*
X985274Y277524D01*
X985068Y277190D01*
X984854Y276861D01*
X984631Y276537D01*
X984401Y276219D01*
X984164Y275906D01*
X983918Y275600D01*
X983665Y275299D01*
X983405Y275005D01*
X983138Y274717D01*
X982864Y274436D01*
X982583Y274162D01*
X982295Y273895D01*
X982001Y273635D01*
X981700Y273382D01*
X981394Y273136D01*
X981081Y272899D01*
X980763Y272669D01*
X980439Y272446D01*
X980110Y272232D01*
X979776Y272026D01*
X979436Y271829D01*
X979092Y271639D01*
X978744Y271458D01*
X978391Y271286D01*
X978034Y271123D01*
X977673Y270968D01*
X977308Y270822D01*
X976940Y270685D01*
X976569Y270558D01*
X976195Y270439D01*
X975817Y270330D01*
X975438Y270229D01*
X975056Y270139D01*
X974671Y270057D01*
X974285Y269986D01*
X973898Y269923D01*
X973509Y269870D01*
X973118Y269827D01*
X972727Y269793D01*
X972335Y269769D01*
X971943Y269755D01*
X971550Y269750D01*
X971157Y269755D01*
X970765Y269769D01*
X970373Y269793D01*
X969982Y269827D01*
X969591Y269870D01*
X969202Y269923D01*
X968815Y269986D01*
X968429Y270057D01*
X968044Y270139D01*
X967662Y270229D01*
X967283Y270330D01*
X966905Y270439D01*
X966531Y270558D01*
X966160Y270685D01*
X965792Y270822D01*
X965427Y270968D01*
X965066Y271123D01*
X964709Y271286D01*
X964356Y271458D01*
X964008Y271639D01*
X963664Y271829D01*
X963324Y272026D01*
X962990Y272232D01*
X962661Y272446D01*
X962337Y272669D01*
X962019Y272899D01*
X961706Y273136D01*
X961400Y273382D01*
X961099Y273635D01*
X960805Y273895D01*
X960517Y274162D01*
X960236Y274436D01*
X959962Y274717D01*
X959695Y275005D01*
X959435Y275299D01*
X959182Y275600D01*
X958936Y275906D01*
X958699Y276219D01*
X958469Y276537D01*
X958246Y276861D01*
X958032Y277190D01*
X957826Y277524D01*
X957629Y277864D01*
X957439Y278208D01*
X957258Y278556D01*
X957086Y278909D01*
X956923Y279266D01*
X956768Y279627D01*
X956622Y279992D01*
X956485Y280360D01*
X956358Y280731D01*
X956239Y281105D01*
X956130Y281483D01*
X956029Y281862D01*
X955939Y282244D01*
X955857Y282629D01*
X955786Y283015D01*
X955723Y283402D01*
X955670Y283791D01*
X955627Y284182D01*
X955593Y284573D01*
X955569Y284965D01*
X955555Y285357D01*
X955550Y285750D01*
D11*
X0Y0D02*
X1054100Y0D01*
X1054100Y427230D01*
X0Y427230D01*
X0Y0D01*
X855900Y317219D02*
X855837Y316661D01*
X855712Y316114D01*
X855527Y315584D01*
X855283Y315078D01*
X854984Y314602D01*
X854634Y314163D01*
X854237Y313766D01*
X853798Y313416D01*
X853322Y313117D01*
X852816Y312873D01*
X852286Y312688D01*
X851739Y312563D01*
X851181Y312500D01*
X850619Y312500D01*
X850061Y312563D01*
X849514Y312688D01*
X848984Y312873D01*
X848478Y313117D01*
X848002Y313416D01*
X847563Y313766D01*
X847166Y314163D01*
X846816Y314602D01*
X846517Y315078D01*
X846273Y315584D01*
X846088Y316114D01*
X845963Y316661D01*
X845900Y317219D01*
X845900Y317781D01*
X845963Y318339D01*
X846088Y318886D01*
X846273Y319416D01*
X846517Y319922D01*
X846816Y320398D01*
X847166Y320837D01*
X847563Y321234D01*
X848002Y321584D01*
X848478Y321883D01*
X848984Y322127D01*
X849514Y322312D01*
X850061Y322437D01*
X850619Y322500D01*
X851181Y322500D01*
X851739Y322437D01*
X852286Y322312D01*
X852816Y322127D01*
X853322Y321883D01*
X853798Y321584D01*
X854237Y321234D01*
X854634Y320837D01*
X854984Y320398D01*
X855283Y319922D01*
X855527Y319416D01*
X855712Y318886D01*
X855837Y318339D01*
X855900Y317781D01*
X855900Y317219D01*
X792200Y361377D02*
X792125Y360234D01*
X791976Y359098D01*
X791752Y357974D01*
X791455Y356867D01*
X791087Y355782D01*
X790649Y354724D01*
X790142Y353696D01*
X789569Y352704D01*
X788932Y351751D01*
X788235Y350842D01*
X787479Y349981D01*
X786669Y349171D01*
X785808Y348415D01*
X784899Y347718D01*
X783946Y347081D01*
X782954Y346508D01*
X781926Y346001D01*
X780868Y345563D01*
X779783Y345195D01*
X778676Y344898D01*
X777552Y344675D01*
X776416Y344525D01*
X775273Y344450D01*
X774127Y344450D01*
X772984Y344525D01*
X771848Y344675D01*
X770724Y344898D01*
X769617Y345195D01*
X768532Y345563D01*
X767474Y346001D01*
X766446Y346508D01*
X765454Y347081D01*
X764501Y347718D01*
X763592Y348415D01*
X762731Y349171D01*
X761921Y349981D01*
X761165Y350842D01*
X760468Y351751D01*
X759831Y352704D01*
X759258Y353696D01*
X758751Y354724D01*
X758313Y355782D01*
X757945Y356867D01*
X757648Y357974D01*
X757425Y359098D01*
X757275Y360234D01*
X757200Y361377D01*
X757200Y362523D01*
X757275Y363666D01*
X757425Y364802D01*
X757648Y365926D01*
X757945Y367033D01*
X758313Y368118D01*
X758751Y369176D01*
X759258Y370204D01*
X759831Y371196D01*
X760468Y372149D01*
X761165Y373058D01*
X761921Y373919D01*
X762731Y374729D01*
X763592Y375485D01*
X764501Y376182D01*
X765454Y376819D01*
X766446Y377392D01*
X767474Y377899D01*
X768532Y378337D01*
X769617Y378705D01*
X770724Y379002D01*
X771848Y379226D01*
X772984Y379375D01*
X774127Y379450D01*
X775273Y379450D01*
X776416Y379375D01*
X777552Y379226D01*
X778676Y379002D01*
X779783Y378705D01*
X780868Y378337D01*
X781926Y377899D01*
X782954Y377392D01*
X783946Y376819D01*
X784899Y376182D01*
X785808Y375485D01*
X786669Y374729D01*
X787479Y373919D01*
X788235Y373058D01*
X788932Y372149D01*
X789569Y371196D01*
X790142Y370204D01*
X790649Y369176D01*
X791087Y368118D01*
X791455Y367033D01*
X791752Y365926D01*
X791976Y364802D01*
X792125Y363666D01*
X792200Y362523D01*
X792200Y361377D01*
X944600Y361377D02*
X944525Y360234D01*
X944376Y359098D01*
X944152Y357974D01*
X943855Y356867D01*
X943487Y355782D01*
X943049Y354724D01*
X942542Y353696D01*
X941969Y352704D01*
X941332Y351751D01*
X940635Y350842D01*
X939879Y349981D01*
X939069Y349171D01*
X938208Y348415D01*
X937299Y347718D01*
X936346Y347081D01*
X935354Y346508D01*
X934326Y346001D01*
X933268Y345563D01*
X932183Y345195D01*
X931076Y344898D01*
X929952Y344675D01*
X928816Y344525D01*
X927673Y344450D01*
X926527Y344450D01*
X925384Y344525D01*
X924248Y344675D01*
X923124Y344898D01*
X922017Y345195D01*
X920932Y345563D01*
X919874Y346001D01*
X918846Y346508D01*
X917854Y347081D01*
X916901Y347718D01*
X915992Y348415D01*
X915131Y349171D01*
X914321Y349981D01*
X913565Y350842D01*
X912868Y351751D01*
X912231Y352704D01*
X911658Y353696D01*
X911151Y354724D01*
X910713Y355782D01*
X910345Y356867D01*
X910048Y357974D01*
X909825Y359098D01*
X909675Y360234D01*
X909600Y361377D01*
X909600Y362523D01*
X909675Y363666D01*
X909825Y364802D01*
X910048Y365926D01*
X910345Y367033D01*
X910713Y368118D01*
X911151Y369176D01*
X911658Y370204D01*
X912231Y371196D01*
X912868Y372149D01*
X913565Y373058D01*
X914321Y373919D01*
X915131Y374729D01*
X915992Y375485D01*
X916901Y376182D01*
X917854Y376819D01*
X918846Y377392D01*
X919874Y377899D01*
X920932Y378337D01*
X922017Y378705D01*
X923124Y379002D01*
X924248Y379226D01*
X925384Y379375D01*
X926527Y379450D01*
X927673Y379450D01*
X928816Y379375D01*
X929952Y379226D01*
X931076Y379002D01*
X932183Y378705D01*
X933268Y378337D01*
X934326Y377899D01*
X935354Y377392D01*
X936346Y376819D01*
X937299Y376182D01*
X938208Y375485D01*
X939069Y374729D01*
X939879Y373919D01*
X940635Y373058D01*
X941332Y372149D01*
X941969Y371196D01*
X942542Y370204D01*
X943049Y369176D01*
X943487Y368118D01*
X943855Y367033D01*
X944152Y365926D01*
X944376Y364802D01*
X944525Y363666D01*
X944600Y362523D01*
X944600Y361377D01*
X1046200Y285177D02*
X1046125Y284034D01*
X1045976Y282898D01*
X1045752Y281774D01*
X1045455Y280667D01*
X1045087Y279582D01*
X1044649Y278524D01*
X1044142Y277496D01*
X1043569Y276504D01*
X1042932Y275551D01*
X1042235Y274642D01*
X1041479Y273781D01*
X1040669Y272971D01*
X1039808Y272215D01*
X1038899Y271518D01*
X1037946Y270881D01*
X1036954Y270308D01*
X1035926Y269801D01*
X1034868Y269363D01*
X1033783Y268995D01*
X1032676Y268698D01*
X1031552Y268475D01*
X1030416Y268325D01*
X1029273Y268250D01*
X1028127Y268250D01*
X1026984Y268325D01*
X1025848Y268475D01*
X1024724Y268698D01*
X1023617Y268995D01*
X1022532Y269363D01*
X1021474Y269801D01*
X1020446Y270308D01*
X1019454Y270881D01*
X1018501Y271518D01*
X1017592Y272215D01*
X1016731Y272971D01*
X1015921Y273781D01*
X1015165Y274642D01*
X1014468Y275551D01*
X1013831Y276504D01*
X1013258Y277496D01*
X1012751Y278524D01*
X1012313Y279582D01*
X1011945Y280667D01*
X1011648Y281774D01*
X1011425Y282898D01*
X1011275Y284034D01*
X1011200Y285177D01*
X1011200Y286323D01*
X1011275Y287466D01*
X1011425Y288602D01*
X1011648Y289726D01*
X1011945Y290833D01*
X1012313Y291918D01*
X1012751Y292976D01*
X1013258Y294004D01*
X1013831Y294996D01*
X1014468Y295949D01*
X1015165Y296858D01*
X1015921Y297719D01*
X1016731Y298529D01*
X1017592Y299285D01*
X1018501Y299982D01*
X1019454Y300619D01*
X1020446Y301192D01*
X1021474Y301699D01*
X1022532Y302137D01*
X1023617Y302505D01*
X1024724Y302802D01*
X1025848Y303026D01*
X1026984Y303175D01*
X1028127Y303250D01*
X1029273Y303250D01*
X1030416Y303175D01*
X1031552Y303026D01*
X1032676Y302802D01*
X1033783Y302505D01*
X1034868Y302137D01*
X1035926Y301699D01*
X1036954Y301192D01*
X1037946Y300619D01*
X1038899Y299982D01*
X1039808Y299285D01*
X1040669Y298529D01*
X1041479Y297719D01*
X1042235Y296858D01*
X1042932Y295949D01*
X1043569Y294996D01*
X1044142Y294004D01*
X1044649Y292976D01*
X1045087Y291918D01*
X1045455Y290833D01*
X1045752Y289726D01*
X1045976Y288602D01*
X1046125Y287466D01*
X1046200Y286323D01*
X1046200Y285177D01*
X468350Y361377D02*
X468275Y360234D01*
X468126Y359098D01*
X467902Y357974D01*
X467605Y356867D01*
X467237Y355782D01*
X466799Y354724D01*
X466292Y353696D01*
X465719Y352704D01*
X465082Y351751D01*
X464385Y350842D01*
X463629Y349981D01*
X462819Y349171D01*
X461958Y348415D01*
X461049Y347718D01*
X460096Y347081D01*
X459104Y346508D01*
X458076Y346001D01*
X457018Y345563D01*
X455933Y345195D01*
X454826Y344898D01*
X453702Y344675D01*
X452566Y344525D01*
X451423Y344450D01*
X450277Y344450D01*
X449134Y344525D01*
X447998Y344675D01*
X446874Y344898D01*
X445767Y345195D01*
X444682Y345563D01*
X443624Y346001D01*
X442596Y346508D01*
X441604Y347081D01*
X440651Y347718D01*
X439742Y348415D01*
X438881Y349171D01*
X438071Y349981D01*
X437315Y350842D01*
X436618Y351751D01*
X435981Y352704D01*
X435408Y353696D01*
X434901Y354724D01*
X434463Y355782D01*
X434095Y356867D01*
X433798Y357974D01*
X433575Y359098D01*
X433425Y360234D01*
X433350Y361377D01*
X433350Y362523D01*
X433425Y363666D01*
X433575Y364802D01*
X433798Y365926D01*
X434095Y367033D01*
X434463Y368118D01*
X434901Y369176D01*
X435408Y370204D01*
X435981Y371196D01*
X436618Y372149D01*
X437315Y373058D01*
X438071Y373919D01*
X438881Y374729D01*
X439742Y375485D01*
X440651Y376182D01*
X441604Y376819D01*
X442596Y377392D01*
X443624Y377899D01*
X444682Y378337D01*
X445767Y378705D01*
X446874Y379002D01*
X447998Y379226D01*
X449134Y379375D01*
X450277Y379450D01*
X451423Y379450D01*
X452566Y379375D01*
X453702Y379226D01*
X454826Y379002D01*
X455933Y378705D01*
X457018Y378337D01*
X458076Y377899D01*
X459104Y377392D01*
X460096Y376819D01*
X461049Y376182D01*
X461958Y375485D01*
X462819Y374729D01*
X463629Y373919D01*
X464385Y373058D01*
X465082Y372149D01*
X465719Y371196D01*
X466292Y370204D01*
X466799Y369176D01*
X467237Y368118D01*
X467605Y367033D01*
X467902Y365926D01*
X468126Y364802D01*
X468275Y363666D01*
X468350Y362523D01*
X468350Y361377D01*
X984170Y361669D02*
X984107Y361111D01*
X983982Y360564D01*
X983797Y360034D01*
X983553Y359528D01*
X983254Y359052D01*
X982904Y358613D01*
X982507Y358216D01*
X982068Y357866D01*
X981592Y357567D01*
X981086Y357323D01*
X980556Y357138D01*
X980009Y357013D01*
X979451Y356950D01*
X978889Y356950D01*
X978331Y357013D01*
X977784Y357138D01*
X977254Y357323D01*
X976748Y357567D01*
X976272Y357866D01*
X975833Y358216D01*
X975436Y358613D01*
X975086Y359052D01*
X974787Y359528D01*
X974543Y360034D01*
X974358Y360564D01*
X974233Y361111D01*
X974170Y361669D01*
X974170Y362231D01*
X974233Y362789D01*
X974358Y363336D01*
X974543Y363866D01*
X974787Y364372D01*
X975086Y364848D01*
X975436Y365287D01*
X975833Y365684D01*
X976272Y366034D01*
X976748Y366333D01*
X977254Y366577D01*
X977784Y366762D01*
X978331Y366887D01*
X978889Y366950D01*
X979451Y366950D01*
X980009Y366887D01*
X980556Y366762D01*
X981086Y366577D01*
X981592Y366333D01*
X982068Y366034D01*
X982507Y365684D01*
X982904Y365287D01*
X983254Y364848D01*
X983553Y364372D01*
X983797Y363866D01*
X983982Y363336D01*
X984107Y362789D01*
X984170Y362231D01*
X984170Y361669D01*
X1032430Y361669D02*
X1032367Y361111D01*
X1032242Y360564D01*
X1032057Y360034D01*
X1031813Y359528D01*
X1031514Y359052D01*
X1031164Y358613D01*
X1030767Y358216D01*
X1030328Y357866D01*
X1029852Y357567D01*
X1029346Y357323D01*
X1028816Y357138D01*
X1028269Y357013D01*
X1027711Y356950D01*
X1027149Y356950D01*
X1026591Y357013D01*
X1026044Y357138D01*
X1025514Y357323D01*
X1025008Y357567D01*
X1024532Y357866D01*
X1024093Y358216D01*
X1023696Y358613D01*
X1023346Y359052D01*
X1023047Y359528D01*
X1022803Y360034D01*
X1022618Y360564D01*
X1022493Y361111D01*
X1022430Y361669D01*
X1022430Y362231D01*
X1022493Y362789D01*
X1022618Y363336D01*
X1022803Y363866D01*
X1023047Y364372D01*
X1023346Y364848D01*
X1023696Y365287D01*
X1024093Y365684D01*
X1024532Y366034D01*
X1025008Y366333D01*
X1025514Y366577D01*
X1026044Y366762D01*
X1026591Y366887D01*
X1027149Y366950D01*
X1027711Y366950D01*
X1028269Y366887D01*
X1028816Y366762D01*
X1029346Y366577D01*
X1029852Y366333D01*
X1030328Y366034D01*
X1030767Y365684D01*
X1031164Y365287D01*
X1031514Y364848D01*
X1031813Y364372D01*
X1032057Y363866D01*
X1032242Y363336D01*
X1032367Y362789D01*
X1032430Y362231D01*
X1032430Y361669D01*
X41400Y29956D02*
X41332Y28911D01*
X41195Y27872D01*
X40990Y26845D01*
X40719Y25833D01*
X40383Y24841D01*
X39982Y23873D01*
X39518Y22934D01*
X38995Y22026D01*
X38413Y21155D01*
X37775Y20324D01*
X37084Y19537D01*
X36343Y18796D01*
X35556Y18105D01*
X34725Y17468D01*
X33854Y16886D01*
X32946Y16362D01*
X32007Y15898D01*
X31039Y15497D01*
X30047Y15161D01*
X29035Y14890D01*
X28008Y14685D01*
X26969Y14549D01*
X25924Y14480D01*
X24876Y14480D01*
X23831Y14549D01*
X22792Y14685D01*
X21765Y14890D01*
X20753Y15161D01*
X19761Y15497D01*
X18793Y15898D01*
X17854Y16362D01*
X16946Y16886D01*
X16075Y17468D01*
X15244Y18105D01*
X14457Y18796D01*
X13716Y19537D01*
X13025Y20324D01*
X12388Y21155D01*
X11806Y22026D01*
X11282Y22934D01*
X10818Y23873D01*
X10417Y24841D01*
X10081Y25833D01*
X9810Y26845D01*
X9605Y27872D01*
X9469Y28911D01*
X9400Y29956D01*
X9400Y31004D01*
X9469Y32049D01*
X9605Y33088D01*
X9810Y34115D01*
X10081Y35127D01*
X10417Y36119D01*
X10818Y37087D01*
X11282Y38026D01*
X11806Y38934D01*
X12388Y39805D01*
X13025Y40636D01*
X13716Y41423D01*
X14457Y42164D01*
X15244Y42855D01*
X16075Y43493D01*
X16946Y44075D01*
X17854Y44598D01*
X18793Y45062D01*
X19761Y45463D01*
X20753Y45799D01*
X21765Y46070D01*
X22792Y46275D01*
X23831Y46412D01*
X24876Y46480D01*
X25924Y46480D01*
X26969Y46412D01*
X28008Y46275D01*
X29035Y46070D01*
X30047Y45799D01*
X31039Y45463D01*
X32007Y45062D01*
X32946Y44598D01*
X33854Y44075D01*
X34725Y43493D01*
X35556Y42855D01*
X36343Y42164D01*
X37084Y41423D01*
X37775Y40636D01*
X38413Y39805D01*
X38995Y38934D01*
X39518Y38026D01*
X39982Y37087D01*
X40383Y36119D01*
X40719Y35127D01*
X40990Y34115D01*
X41195Y33088D01*
X41332Y32049D01*
X41400Y31004D01*
X41400Y29956D01*
X987550Y29956D02*
X987482Y28911D01*
X987345Y27872D01*
X987140Y26845D01*
X986869Y25833D01*
X986533Y24841D01*
X986132Y23873D01*
X985668Y22934D01*
X985145Y22026D01*
X984563Y21155D01*
X983925Y20324D01*
X983234Y19537D01*
X982493Y18796D01*
X981706Y18105D01*
X980875Y17468D01*
X980004Y16886D01*
X979096Y16362D01*
X978157Y15898D01*
X977189Y15497D01*
X976197Y15161D01*
X975185Y14890D01*
X974158Y14685D01*
X973119Y14549D01*
X972074Y14480D01*
X971026Y14480D01*
X969981Y14549D01*
X968942Y14685D01*
X967915Y14890D01*
X966903Y15161D01*
X965911Y15497D01*
X964943Y15898D01*
X964004Y16362D01*
X963096Y16886D01*
X962225Y17468D01*
X961394Y18105D01*
X960607Y18796D01*
X959866Y19537D01*
X959175Y20324D01*
X958538Y21155D01*
X957956Y22026D01*
X957432Y22934D01*
X956968Y23873D01*
X956567Y24841D01*
X956231Y25833D01*
X955960Y26845D01*
X955755Y27872D01*
X955619Y28911D01*
X955550Y29956D01*
X955550Y31004D01*
X955619Y32049D01*
X955755Y33088D01*
X955960Y34115D01*
X956231Y35127D01*
X956567Y36119D01*
X956968Y37087D01*
X957432Y38026D01*
X957956Y38934D01*
X958538Y39805D01*
X959175Y40636D01*
X959866Y41423D01*
X960607Y42164D01*
X961394Y42855D01*
X962225Y43493D01*
X963096Y44075D01*
X964004Y44598D01*
X964943Y45062D01*
X965911Y45463D01*
X966903Y45799D01*
X967915Y46070D01*
X968942Y46275D01*
X969981Y46412D01*
X971026Y46480D01*
X972074Y46480D01*
X973119Y46412D01*
X974158Y46275D01*
X975185Y46070D01*
X976197Y45799D01*
X977189Y45463D01*
X978157Y45062D01*
X979096Y44598D01*
X980004Y44075D01*
X980875Y43493D01*
X981706Y42855D01*
X982493Y42164D01*
X983234Y41423D01*
X983925Y40636D01*
X984563Y39805D01*
X985145Y38934D01*
X985668Y38026D01*
X986132Y37087D01*
X986533Y36119D01*
X986869Y35127D01*
X987140Y34115D01*
X987345Y33088D01*
X987482Y32049D01*
X987550Y31004D01*
X987550Y29956D01*
X41400Y285226D02*
X41332Y284181D01*
X41195Y283142D01*
X40990Y282115D01*
X40719Y281103D01*
X40383Y280111D01*
X39982Y279143D01*
X39518Y278204D01*
X38995Y277296D01*
X38413Y276425D01*
X37775Y275594D01*
X37084Y274807D01*
X36343Y274066D01*
X35556Y273375D01*
X34725Y272738D01*
X33854Y272156D01*
X32946Y271632D01*
X32007Y271168D01*
X31039Y270767D01*
X30047Y270431D01*
X29035Y270160D01*
X28008Y269955D01*
X26969Y269819D01*
X25924Y269750D01*
X24876Y269750D01*
X23831Y269819D01*
X22792Y269955D01*
X21765Y270160D01*
X20753Y270431D01*
X19761Y270767D01*
X18793Y271168D01*
X17854Y271632D01*
X16946Y272156D01*
X16075Y272738D01*
X15244Y273375D01*
X14457Y274066D01*
X13716Y274807D01*
X13025Y275594D01*
X12388Y276425D01*
X11806Y277296D01*
X11282Y278204D01*
X10818Y279143D01*
X10417Y280111D01*
X10081Y281103D01*
X9810Y282115D01*
X9605Y283142D01*
X9469Y284181D01*
X9400Y285226D01*
X9400Y286274D01*
X9469Y287319D01*
X9605Y288358D01*
X9810Y289385D01*
X10081Y290397D01*
X10417Y291389D01*
X10818Y292357D01*
X11282Y293296D01*
X11806Y294204D01*
X12388Y295075D01*
X13025Y295906D01*
X13716Y296693D01*
X14457Y297434D01*
X15244Y298125D01*
X16075Y298763D01*
X16946Y299345D01*
X17854Y299868D01*
X18793Y300332D01*
X19761Y300733D01*
X20753Y301069D01*
X21765Y301340D01*
X22792Y301545D01*
X23831Y301682D01*
X24876Y301750D01*
X25924Y301750D01*
X26969Y301682D01*
X28008Y301545D01*
X29035Y301340D01*
X30047Y301069D01*
X31039Y300733D01*
X32007Y300332D01*
X32946Y299868D01*
X33854Y299345D01*
X34725Y298763D01*
X35556Y298125D01*
X36343Y297434D01*
X37084Y296693D01*
X37775Y295906D01*
X38413Y295075D01*
X38995Y294204D01*
X39518Y293296D01*
X39982Y292357D01*
X40383Y291389D01*
X40719Y290397D01*
X40990Y289385D01*
X41195Y288358D01*
X41332Y287319D01*
X41400Y286274D01*
X41400Y285226D01*
X987550Y285226D02*
X987482Y284181D01*
X987345Y283142D01*
X987140Y282115D01*
X986869Y281103D01*
X986533Y280111D01*
X986132Y279143D01*
X985668Y278204D01*
X985145Y277296D01*
X984563Y276425D01*
X983925Y275594D01*
X983234Y274807D01*
X982493Y274066D01*
X981706Y273375D01*
X980875Y272738D01*
X980004Y272156D01*
X979096Y271632D01*
X978157Y271168D01*
X977189Y270767D01*
X976197Y270431D01*
X975185Y270160D01*
X974158Y269955D01*
X973119Y269819D01*
X972074Y269750D01*
X971026Y269750D01*
X969981Y269819D01*
X968942Y269955D01*
X967915Y270160D01*
X966903Y270431D01*
X965911Y270767D01*
X964943Y271168D01*
X964004Y271632D01*
X963096Y272156D01*
X962225Y272738D01*
X961394Y273375D01*
X960607Y274066D01*
X959866Y274807D01*
X959175Y275594D01*
X958538Y276425D01*
X957956Y277296D01*
X957432Y278204D01*
X956968Y279143D01*
X956567Y280111D01*
X956231Y281103D01*
X955960Y282115D01*
X955755Y283142D01*
X955619Y284181D01*
X955550Y285226D01*
X955550Y286274D01*
X955619Y287319D01*
X955755Y288358D01*
X955960Y289385D01*
X956231Y290397D01*
X956567Y291389D01*
X956968Y292357D01*
X957432Y293296D01*
X957956Y294204D01*
X958538Y295075D01*
X959175Y295906D01*
X959866Y296693D01*
X960607Y297434D01*
X961394Y298125D01*
X962225Y298763D01*
X963096Y299345D01*
X964004Y299868D01*
X964943Y300332D01*
X965911Y300733D01*
X966903Y301069D01*
X967915Y301340D01*
X968942Y301545D01*
X969981Y301682D01*
X971026Y301750D01*
X972074Y301750D01*
X973119Y301682D01*
X974158Y301545D01*
X975185Y301340D01*
X976197Y301069D01*
X977189Y300733D01*
X978157Y300332D01*
X979096Y299868D01*
X980004Y299345D01*
X980875Y298763D01*
X981706Y298125D01*
X982493Y297434D01*
X983234Y296693D01*
X983925Y295906D01*
X984563Y295075D01*
X985145Y294204D01*
X985668Y293296D01*
X986132Y292357D01*
X986533Y291389D01*
X986869Y290397D01*
X987140Y289385D01*
X987345Y288358D01*
X987482Y287319D01*
X987550Y286274D01*
X987550Y285226D01*
M02*
