M48
;GenerationSoftware,Autodesk,EAGLE,9.6.2*%
;CreationDate,2022-03-23T11:50:25Z*%
FMAT,2
ICI,OFF
METRIC,TZ,000.000
T7C0.350
T6C1.000
T5C1.016
T4C2.500
T3C2.997
T2C3.200
T1C3.500
%
G90
M71
T1
X45085Y36195
X102870Y28575
X92710Y36195
X77470Y36195
T2
X97155Y28575
X2540Y28575
X97155Y3048
X2540Y3048
T3
X13573Y20701
X7573Y20701
X10573Y16001
T4
X16510Y34798
X12319Y34798
X7620Y39624
X12319Y39624
X16637Y39624
X7620Y34798
T5
X24130Y3048
X21590Y3048
X30480Y34798
X30480Y37338
X33020Y34798
X33020Y37338
X35560Y34798
X35560Y37338
X38100Y34798
X38100Y37338
X52324Y34925
X52324Y37465
X54864Y34925
X54864Y37465
X57404Y34925
X57404Y37465
X59944Y34925
X59944Y37465
X46482Y3048
X43942Y3048
X67945Y3048
X31496Y15494
X65405Y3048
X21590Y28702
X24130Y28702
X43942Y28702
X34036Y15494
X46482Y28702
X65405Y28702
X67945Y28702
X36576Y15494
X53467Y15494
X56007Y15494
X58547Y15494
T6
X102743Y36195
X97917Y36195
X23876Y37318
X85090Y31750
X23876Y34818
T7
X75184Y10922
X82550Y26797
X78359Y7747
X58420Y6477
X18923Y5080
X23114Y21209
X90297Y4445
X89281Y4699
X88900Y26924
X39624Y32766
X87630Y27940
X82550Y33274
X93980Y5715
X82169Y38735
X92710Y5715
X63119Y36195
X47879Y38354
X83820Y28575
X85090Y26924
X62230Y33782
X54864Y39116
X86360Y28702
X81788Y3429
X89027Y33020
X74422Y23241
X73533Y20828
X93599Y31115
X77470Y17145
X78486Y32004
X73152Y31877
X93345Y17907
X93345Y15367
X87503Y15367
X87503Y17780
X91694Y13589
X89027Y13589
X89027Y19431
X73025Y23241
X91694Y19431
M30