G04 EAGLE Gerber RS-274X export*
G75*
%MOMM*%
%FSLAX34Y34*%
%LPD*%
%INSoldermask Bottom*%
%IPPOS*%
%AMOC8*
5,1,8,0,0,1.08239X$1,22.5*%
G01*
%ADD10C,1.203200*%
%ADD11C,3.703200*%
%ADD12C,1.828800*%
%ADD13C,4.998719*%
%ADD14P,1.979475X8X202.500000*%
%ADD15C,4.203200*%
%ADD16C,3.403200*%
%ADD17P,1.951766X8X112.500000*%
%ADD18R,1.803200X1.803200*%
%ADD19C,0.705600*%


D10*
X850900Y317500D03*
D11*
X774700Y361950D03*
X927100Y361950D03*
X1028700Y285750D03*
X450850Y361950D03*
D10*
X979170Y361950D03*
X1027430Y361950D03*
D12*
X585470Y163068D02*
X585470Y146812D01*
X560070Y146812D02*
X560070Y163068D01*
X534670Y163068D02*
X534670Y146812D01*
X365760Y146812D02*
X365760Y163068D01*
X340360Y163068D02*
X340360Y146812D01*
X314960Y146812D02*
X314960Y163068D01*
D13*
X135730Y207010D03*
X75730Y207010D03*
X105730Y160010D03*
D14*
X599440Y374650D03*
X599440Y349250D03*
X574040Y374650D03*
X574040Y349250D03*
X548640Y374650D03*
X548640Y349250D03*
X523240Y374650D03*
X523240Y349250D03*
X381000Y373380D03*
X381000Y347980D03*
X355600Y373380D03*
X355600Y347980D03*
X330200Y373380D03*
X330200Y347980D03*
X304800Y373380D03*
X304800Y347980D03*
D15*
X165100Y347980D03*
X123190Y347980D03*
X76200Y347980D03*
X166370Y396240D03*
X123190Y396240D03*
X76200Y396240D03*
D12*
X241300Y38608D02*
X241300Y22352D01*
X215900Y22352D02*
X215900Y38608D01*
X464820Y38608D02*
X464820Y22352D01*
X439420Y22352D02*
X439420Y38608D01*
X679450Y38608D02*
X679450Y22352D01*
X654050Y22352D02*
X654050Y38608D01*
X215900Y278892D02*
X215900Y295148D01*
X241300Y295148D02*
X241300Y278892D01*
X439420Y278892D02*
X439420Y295148D01*
X464820Y295148D02*
X464820Y278892D01*
X654050Y278892D02*
X654050Y295148D01*
X679450Y295148D02*
X679450Y278892D01*
D16*
X25400Y30480D03*
X971550Y30480D03*
X25400Y285750D03*
X971550Y285750D03*
D17*
X238760Y348180D03*
D18*
X238760Y373180D03*
D19*
X916940Y194310D03*
X890270Y194310D03*
X890270Y135890D03*
X916940Y135890D03*
X875030Y177800D03*
X875030Y153670D03*
X933450Y153670D03*
X933450Y179070D03*
X731520Y318770D03*
X784860Y320040D03*
X774700Y171450D03*
X935990Y311150D03*
X735330Y208280D03*
X744220Y232410D03*
X890270Y330200D03*
X817880Y34290D03*
X863600Y287020D03*
X548640Y391160D03*
X622300Y337820D03*
X850900Y269240D03*
X838200Y285750D03*
X478790Y383540D03*
X631190Y361950D03*
X927100Y57150D03*
X821690Y387350D03*
X939800Y57150D03*
X825500Y332740D03*
X876300Y279400D03*
X396240Y327660D03*
X889000Y269240D03*
X892810Y46990D03*
X902970Y44450D03*
X231140Y212090D03*
X189230Y50800D03*
X584200Y64770D03*
X783590Y77470D03*
X825500Y267970D03*
X751840Y109220D03*
X730250Y232410D03*
M02*
