G04 EAGLE Gerber RS-274X export*
G75*
%MOMM*%
%FSLAX34Y34*%
%LPD*%
%INSolderpaste Top*%
%IPPOS*%
%AMOC8*
5,1,8,0,0,1.08239X$1,22.5*%
G01*
%ADD10R,1.300000X1.500000*%
%ADD11R,1.500000X1.300000*%
%ADD12R,1.340000X3.020000*%
%ADD13R,0.800000X0.900000*%
%ADD14R,0.762000X1.524000*%
%ADD15R,0.900000X1.500000*%
%ADD16R,1.500000X0.900000*%
%ADD17R,4.500119X4.500119*%
%ADD18C,0.139500*%
%ADD19C,0.196500*%
%ADD20R,1.200000X1.200000*%


D10*
X749960Y200660D03*
X768960Y200660D03*
D11*
X723900Y189840D03*
X723900Y170840D03*
D12*
X675480Y231140D03*
X706280Y231140D03*
D11*
X692150Y172110D03*
X692150Y191110D03*
X659130Y189840D03*
X659130Y170840D03*
D13*
X569570Y237330D03*
X550570Y237330D03*
X560070Y217330D03*
X348590Y237330D03*
X329590Y237330D03*
X339090Y217330D03*
D10*
X550570Y190500D03*
X569570Y190500D03*
D11*
X764540Y67970D03*
X764540Y86970D03*
D10*
X550570Y259080D03*
X569570Y259080D03*
X329590Y193040D03*
X348590Y193040D03*
X329590Y260350D03*
X348590Y260350D03*
D11*
X754380Y150520D03*
X754380Y169520D03*
D14*
X681990Y335280D03*
X681990Y386080D03*
X720090Y335280D03*
X720090Y386080D03*
D15*
X977660Y249020D03*
X964960Y249020D03*
X952260Y249020D03*
X939560Y249020D03*
X926860Y249020D03*
X914160Y249020D03*
X901460Y249020D03*
X888760Y249020D03*
X876060Y249020D03*
X863360Y249020D03*
X850660Y249020D03*
X837960Y249020D03*
X825260Y249020D03*
X812560Y249020D03*
D16*
X797560Y217120D03*
X797560Y204420D03*
X797560Y191720D03*
X797560Y179020D03*
X797560Y166320D03*
X797560Y153620D03*
X797560Y140920D03*
X797560Y128220D03*
X797560Y115520D03*
X797560Y102820D03*
D15*
X812560Y71020D03*
X825260Y71020D03*
X837960Y71020D03*
X850660Y71020D03*
X863360Y71020D03*
X876060Y71020D03*
X888760Y71020D03*
X901460Y71020D03*
X914160Y71020D03*
X926860Y71020D03*
X939560Y71020D03*
X952260Y71020D03*
X964960Y71020D03*
X977660Y71020D03*
D17*
X904240Y165100D03*
D18*
X721543Y147253D02*
X713637Y147253D01*
X721543Y147253D02*
X721543Y135547D01*
X713637Y135547D01*
X713637Y147253D01*
X713637Y136872D02*
X721543Y136872D01*
X721543Y138197D02*
X713637Y138197D01*
X713637Y139522D02*
X721543Y139522D01*
X721543Y140847D02*
X713637Y140847D01*
X713637Y142172D02*
X721543Y142172D01*
X721543Y143497D02*
X713637Y143497D01*
X713637Y144822D02*
X721543Y144822D01*
X721543Y146147D02*
X713637Y146147D01*
X698643Y147253D02*
X690737Y147253D01*
X698643Y147253D02*
X698643Y135547D01*
X690737Y135547D01*
X690737Y147253D01*
X690737Y136872D02*
X698643Y136872D01*
X698643Y138197D02*
X690737Y138197D01*
X690737Y139522D02*
X698643Y139522D01*
X698643Y140847D02*
X690737Y140847D01*
X690737Y142172D02*
X698643Y142172D01*
X698643Y143497D02*
X690737Y143497D01*
X690737Y144822D02*
X698643Y144822D01*
X698643Y146147D02*
X690737Y146147D01*
X675743Y147253D02*
X667837Y147253D01*
X675743Y147253D02*
X675743Y135547D01*
X667837Y135547D01*
X667837Y147253D01*
X667837Y136872D02*
X675743Y136872D01*
X675743Y138197D02*
X667837Y138197D01*
X667837Y139522D02*
X675743Y139522D01*
X675743Y140847D02*
X667837Y140847D01*
X667837Y142172D02*
X675743Y142172D01*
X675743Y143497D02*
X667837Y143497D01*
X667837Y144822D02*
X675743Y144822D01*
X675743Y146147D02*
X667837Y146147D01*
D19*
X679472Y80068D02*
X709908Y80068D01*
X709908Y68932D01*
X679472Y68932D01*
X679472Y80068D01*
X679472Y70799D02*
X709908Y70799D01*
X709908Y72666D02*
X679472Y72666D01*
X679472Y74533D02*
X709908Y74533D01*
X709908Y76400D02*
X679472Y76400D01*
X679472Y78267D02*
X709908Y78267D01*
D20*
X729910Y304800D03*
X750910Y304800D03*
D10*
X730910Y276860D03*
X749910Y276860D03*
M02*
