G04 EAGLE Gerber RS-274X export*
G75*
%MOMM*%
%FSLAX34Y34*%
%LPD*%
%INBottom Copper*%
%IPPOS*%
%AMOC8*
5,1,8,0,0,1.08239X$1,22.5*%
G01*
%ADD10C,1.625600*%
%ADD11C,4.795519*%
%ADD12P,1.759533X8X202.500000*%
%ADD13C,4.000000*%
%ADD14P,1.731824X8X112.500000*%
%ADD15R,1.600000X1.600000*%
%ADD16C,0.502400*%
%ADD17C,1.270000*%
%ADD18C,0.304800*%
%ADD19C,0.406400*%
%ADD20C,0.200000*%
%ADD21C,0.152400*%
%ADD22C,0.127000*%
%ADD23C,0.203200*%

G36*
X1050602Y2004D02*
X1050602Y2004D01*
X1050628Y2002D01*
X1050775Y2024D01*
X1050922Y2041D01*
X1050947Y2049D01*
X1050973Y2053D01*
X1051111Y2108D01*
X1051250Y2158D01*
X1051272Y2172D01*
X1051297Y2182D01*
X1051418Y2267D01*
X1051543Y2347D01*
X1051561Y2366D01*
X1051583Y2381D01*
X1051682Y2491D01*
X1051785Y2598D01*
X1051799Y2620D01*
X1051816Y2640D01*
X1051888Y2770D01*
X1051964Y2897D01*
X1051972Y2922D01*
X1051985Y2945D01*
X1052025Y3088D01*
X1052070Y3229D01*
X1052072Y3255D01*
X1052080Y3280D01*
X1052099Y3524D01*
X1052099Y68326D01*
X1052096Y68352D01*
X1052098Y68378D01*
X1052076Y68525D01*
X1052059Y68672D01*
X1052051Y68697D01*
X1052047Y68723D01*
X1051992Y68861D01*
X1051942Y69000D01*
X1051928Y69022D01*
X1051918Y69047D01*
X1051833Y69168D01*
X1051753Y69293D01*
X1051734Y69311D01*
X1051719Y69333D01*
X1051609Y69432D01*
X1051502Y69535D01*
X1051480Y69549D01*
X1051460Y69566D01*
X1051330Y69638D01*
X1051203Y69714D01*
X1051178Y69722D01*
X1051155Y69735D01*
X1051012Y69775D01*
X1050871Y69820D01*
X1050845Y69822D01*
X1050820Y69830D01*
X1050576Y69849D01*
X994410Y69849D01*
X994409Y69850D01*
X994409Y250190D01*
X994410Y250191D01*
X1050576Y250191D01*
X1050602Y250194D01*
X1050628Y250192D01*
X1050775Y250214D01*
X1050922Y250231D01*
X1050947Y250239D01*
X1050973Y250243D01*
X1051111Y250298D01*
X1051250Y250348D01*
X1051272Y250362D01*
X1051297Y250372D01*
X1051418Y250457D01*
X1051543Y250537D01*
X1051561Y250556D01*
X1051583Y250571D01*
X1051682Y250681D01*
X1051785Y250788D01*
X1051799Y250810D01*
X1051816Y250830D01*
X1051888Y250960D01*
X1051964Y251087D01*
X1051972Y251112D01*
X1051985Y251135D01*
X1052025Y251278D01*
X1052070Y251419D01*
X1052072Y251445D01*
X1052080Y251470D01*
X1052099Y251714D01*
X1052099Y423706D01*
X1052096Y423732D01*
X1052098Y423758D01*
X1052076Y423905D01*
X1052059Y424052D01*
X1052051Y424077D01*
X1052047Y424103D01*
X1051992Y424241D01*
X1051942Y424380D01*
X1051928Y424402D01*
X1051918Y424427D01*
X1051833Y424548D01*
X1051753Y424673D01*
X1051734Y424691D01*
X1051719Y424713D01*
X1051609Y424812D01*
X1051502Y424915D01*
X1051480Y424929D01*
X1051460Y424946D01*
X1051330Y425018D01*
X1051203Y425094D01*
X1051178Y425102D01*
X1051155Y425115D01*
X1051012Y425155D01*
X1050871Y425200D01*
X1050845Y425202D01*
X1050820Y425210D01*
X1050576Y425229D01*
X3524Y425229D01*
X3498Y425226D01*
X3472Y425228D01*
X3325Y425206D01*
X3178Y425189D01*
X3153Y425181D01*
X3127Y425177D01*
X2989Y425122D01*
X2850Y425072D01*
X2828Y425058D01*
X2803Y425048D01*
X2682Y424963D01*
X2557Y424883D01*
X2539Y424864D01*
X2517Y424849D01*
X2418Y424739D01*
X2315Y424632D01*
X2301Y424610D01*
X2284Y424590D01*
X2212Y424460D01*
X2136Y424333D01*
X2128Y424308D01*
X2115Y424285D01*
X2075Y424142D01*
X2030Y424001D01*
X2028Y423975D01*
X2020Y423950D01*
X2001Y423706D01*
X2001Y294936D01*
X2009Y294861D01*
X2008Y294786D01*
X2029Y294688D01*
X2041Y294590D01*
X2066Y294519D01*
X2082Y294445D01*
X2125Y294355D01*
X2158Y294262D01*
X2199Y294198D01*
X2231Y294130D01*
X2293Y294052D01*
X2347Y293969D01*
X2401Y293916D01*
X2448Y293857D01*
X2526Y293796D01*
X2598Y293727D01*
X2662Y293688D01*
X2722Y293641D01*
X2812Y293599D01*
X2897Y293548D01*
X2969Y293525D01*
X3037Y293493D01*
X3134Y293472D01*
X3229Y293441D01*
X3304Y293435D01*
X3378Y293420D01*
X3477Y293421D01*
X3576Y293414D01*
X3651Y293425D01*
X3726Y293426D01*
X3823Y293450D01*
X3921Y293465D01*
X3991Y293493D01*
X4064Y293512D01*
X4152Y293557D01*
X4245Y293594D01*
X4307Y293637D01*
X4374Y293672D01*
X4449Y293736D01*
X4531Y293793D01*
X4581Y293849D01*
X4639Y293898D01*
X4733Y294017D01*
X4764Y294052D01*
X4773Y294068D01*
X4791Y294090D01*
X9705Y301445D01*
X16906Y306256D01*
X25400Y307946D01*
X33894Y306256D01*
X41095Y301445D01*
X45906Y294244D01*
X47596Y285750D01*
X47570Y285621D01*
X47570Y285620D01*
X47267Y284097D01*
X46964Y282574D01*
X46661Y281051D01*
X46661Y281050D01*
X46358Y279528D01*
X46358Y279527D01*
X46055Y278004D01*
X45906Y277256D01*
X41095Y270055D01*
X33894Y265244D01*
X25400Y263554D01*
X16906Y265244D01*
X9705Y270055D01*
X4791Y277410D01*
X4742Y277468D01*
X4701Y277531D01*
X4629Y277600D01*
X4565Y277676D01*
X4504Y277721D01*
X4450Y277773D01*
X4365Y277825D01*
X4285Y277884D01*
X4216Y277914D01*
X4151Y277952D01*
X4056Y277983D01*
X3965Y278022D01*
X3891Y278036D01*
X3819Y278059D01*
X3720Y278067D01*
X3622Y278084D01*
X3547Y278080D01*
X3472Y278086D01*
X3373Y278072D01*
X3274Y278067D01*
X3202Y278046D01*
X3127Y278035D01*
X3035Y277998D01*
X2939Y277971D01*
X2873Y277934D01*
X2803Y277906D01*
X2722Y277849D01*
X2635Y277801D01*
X2579Y277750D01*
X2517Y277707D01*
X2451Y277633D01*
X2377Y277566D01*
X2334Y277504D01*
X2284Y277448D01*
X2236Y277361D01*
X2179Y277280D01*
X2152Y277209D01*
X2115Y277143D01*
X2088Y277048D01*
X2052Y276955D01*
X2041Y276881D01*
X2020Y276808D01*
X2008Y276656D01*
X2001Y276610D01*
X2003Y276592D01*
X2001Y276564D01*
X2001Y39666D01*
X2009Y39591D01*
X2008Y39516D01*
X2029Y39418D01*
X2041Y39320D01*
X2066Y39249D01*
X2082Y39175D01*
X2125Y39085D01*
X2158Y38992D01*
X2199Y38928D01*
X2231Y38860D01*
X2293Y38782D01*
X2347Y38699D01*
X2401Y38646D01*
X2448Y38587D01*
X2526Y38526D01*
X2598Y38457D01*
X2662Y38418D01*
X2722Y38371D01*
X2812Y38329D01*
X2897Y38278D01*
X2969Y38255D01*
X3037Y38223D01*
X3134Y38202D01*
X3229Y38171D01*
X3304Y38165D01*
X3378Y38150D01*
X3477Y38151D01*
X3576Y38144D01*
X3651Y38155D01*
X3726Y38156D01*
X3823Y38180D01*
X3921Y38195D01*
X3991Y38223D01*
X4064Y38242D01*
X4152Y38287D01*
X4245Y38324D01*
X4307Y38367D01*
X4374Y38402D01*
X4449Y38466D01*
X4531Y38523D01*
X4581Y38579D01*
X4639Y38628D01*
X4733Y38747D01*
X4764Y38782D01*
X4773Y38798D01*
X4791Y38820D01*
X9705Y46175D01*
X16906Y50986D01*
X25400Y52676D01*
X33894Y50986D01*
X41095Y46175D01*
X45906Y38974D01*
X47596Y30480D01*
X47444Y29715D01*
X47444Y29714D01*
X47141Y28191D01*
X46838Y26668D01*
X46535Y25145D01*
X46535Y25144D01*
X46232Y23622D01*
X46232Y23621D01*
X45929Y22098D01*
X45906Y21986D01*
X41095Y14785D01*
X33894Y9974D01*
X25400Y8284D01*
X16906Y9974D01*
X9705Y14785D01*
X4791Y22140D01*
X4742Y22198D01*
X4701Y22261D01*
X4629Y22330D01*
X4565Y22406D01*
X4504Y22451D01*
X4450Y22503D01*
X4365Y22555D01*
X4285Y22614D01*
X4216Y22644D01*
X4151Y22682D01*
X4056Y22713D01*
X3965Y22752D01*
X3891Y22766D01*
X3819Y22789D01*
X3720Y22797D01*
X3622Y22814D01*
X3547Y22810D01*
X3472Y22816D01*
X3373Y22802D01*
X3274Y22797D01*
X3202Y22776D01*
X3127Y22765D01*
X3035Y22728D01*
X2939Y22701D01*
X2873Y22664D01*
X2803Y22636D01*
X2722Y22579D01*
X2635Y22531D01*
X2579Y22480D01*
X2517Y22437D01*
X2451Y22363D01*
X2377Y22296D01*
X2334Y22234D01*
X2284Y22178D01*
X2236Y22091D01*
X2179Y22010D01*
X2152Y21939D01*
X2115Y21873D01*
X2088Y21778D01*
X2052Y21685D01*
X2041Y21611D01*
X2020Y21538D01*
X2008Y21386D01*
X2001Y21340D01*
X2003Y21322D01*
X2001Y21294D01*
X2001Y3524D01*
X2004Y3498D01*
X2002Y3472D01*
X2024Y3325D01*
X2041Y3178D01*
X2049Y3153D01*
X2053Y3127D01*
X2108Y2989D01*
X2158Y2850D01*
X2172Y2828D01*
X2182Y2803D01*
X2267Y2682D01*
X2347Y2557D01*
X2366Y2539D01*
X2381Y2517D01*
X2491Y2418D01*
X2598Y2315D01*
X2620Y2301D01*
X2640Y2284D01*
X2770Y2212D01*
X2897Y2136D01*
X2922Y2128D01*
X2945Y2115D01*
X3088Y2075D01*
X3229Y2030D01*
X3255Y2028D01*
X3280Y2020D01*
X3524Y2001D01*
X1050576Y2001D01*
X1050602Y2004D01*
G37*
%LPC*%
G36*
X677581Y12953D02*
X677581Y12953D01*
X674126Y14384D01*
X671482Y17028D01*
X670051Y20483D01*
X670051Y40477D01*
X671482Y43932D01*
X674126Y46576D01*
X674833Y46869D01*
X674877Y46893D01*
X674925Y46910D01*
X675029Y46978D01*
X675138Y47038D01*
X675175Y47072D01*
X675217Y47099D01*
X675304Y47189D01*
X675396Y47272D01*
X675424Y47314D01*
X675460Y47350D01*
X675523Y47457D01*
X675594Y47559D01*
X675613Y47606D01*
X675638Y47649D01*
X675676Y47767D01*
X675722Y47883D01*
X675729Y47933D01*
X675745Y47981D01*
X675755Y48105D01*
X675773Y48228D01*
X675769Y48278D01*
X675773Y48328D01*
X675754Y48451D01*
X675744Y48575D01*
X675728Y48623D01*
X675721Y48673D01*
X675675Y48789D01*
X675637Y48907D01*
X675611Y48950D01*
X675592Y48997D01*
X675521Y49099D01*
X675457Y49205D01*
X675422Y49242D01*
X675393Y49283D01*
X675301Y49366D01*
X675214Y49455D01*
X675172Y49483D01*
X675134Y49516D01*
X675025Y49577D01*
X674921Y49644D01*
X674874Y49660D01*
X674829Y49685D01*
X674710Y49719D01*
X674593Y49760D01*
X674543Y49766D01*
X674494Y49780D01*
X674250Y49799D01*
X661485Y49799D01*
X661440Y49794D01*
X661395Y49797D01*
X661267Y49774D01*
X661139Y49759D01*
X661096Y49744D01*
X661051Y49736D01*
X660933Y49685D01*
X660811Y49642D01*
X660773Y49617D01*
X660731Y49599D01*
X660627Y49523D01*
X660518Y49453D01*
X660486Y49420D01*
X660450Y49393D01*
X660366Y49295D01*
X660276Y49202D01*
X660253Y49163D01*
X660223Y49129D01*
X660163Y49014D01*
X660097Y48903D01*
X660083Y48860D01*
X660062Y48819D01*
X660030Y48694D01*
X659991Y48571D01*
X659987Y48526D01*
X659976Y48482D01*
X659973Y48352D01*
X659963Y48224D01*
X659970Y48179D01*
X659969Y48133D01*
X659996Y48007D01*
X660015Y47879D01*
X660032Y47837D01*
X660041Y47792D01*
X660096Y47675D01*
X660143Y47555D01*
X660169Y47518D01*
X660189Y47477D01*
X660269Y47375D01*
X660342Y47269D01*
X660376Y47239D01*
X660404Y47203D01*
X660590Y47044D01*
X661000Y46746D01*
X662188Y45558D01*
X663175Y44200D01*
X663937Y42703D01*
X664456Y41106D01*
X664719Y39448D01*
X664719Y33019D01*
X655066Y33019D01*
X655040Y33016D01*
X655014Y33018D01*
X654867Y32996D01*
X654720Y32979D01*
X654695Y32971D01*
X654669Y32967D01*
X654532Y32912D01*
X654392Y32862D01*
X654370Y32848D01*
X654345Y32838D01*
X654224Y32753D01*
X654099Y32673D01*
X654081Y32654D01*
X654059Y32639D01*
X654045Y32623D01*
X653960Y32705D01*
X653937Y32719D01*
X653918Y32736D01*
X653788Y32808D01*
X653661Y32884D01*
X653636Y32892D01*
X653613Y32905D01*
X653470Y32945D01*
X653329Y32990D01*
X653303Y32992D01*
X653278Y33000D01*
X653034Y33019D01*
X643381Y33019D01*
X643381Y39448D01*
X643644Y41106D01*
X644163Y42703D01*
X644925Y44200D01*
X645912Y45558D01*
X647100Y46746D01*
X647510Y47044D01*
X647544Y47074D01*
X647582Y47099D01*
X647672Y47192D01*
X647767Y47279D01*
X647792Y47317D01*
X647824Y47350D01*
X647890Y47461D01*
X647963Y47567D01*
X647980Y47610D01*
X648003Y47649D01*
X648042Y47772D01*
X648089Y47892D01*
X648095Y47937D01*
X648109Y47981D01*
X648119Y48110D01*
X648137Y48237D01*
X648133Y48283D01*
X648137Y48328D01*
X648118Y48456D01*
X648106Y48585D01*
X648092Y48628D01*
X648085Y48673D01*
X648038Y48793D01*
X647997Y48916D01*
X647973Y48954D01*
X647957Y48997D01*
X647883Y49103D01*
X647816Y49213D01*
X647784Y49246D01*
X647758Y49283D01*
X647662Y49369D01*
X647571Y49461D01*
X647533Y49486D01*
X647499Y49516D01*
X647386Y49579D01*
X647277Y49648D01*
X647234Y49663D01*
X647194Y49685D01*
X647070Y49720D01*
X646948Y49762D01*
X646902Y49767D01*
X646858Y49780D01*
X646615Y49799D01*
X580719Y49799D01*
X566755Y63763D01*
X566755Y128220D01*
X566752Y128246D01*
X566755Y128272D01*
X566733Y128419D01*
X566716Y128566D01*
X566707Y128591D01*
X566703Y128617D01*
X566648Y128754D01*
X566598Y128894D01*
X566584Y128916D01*
X566574Y128941D01*
X566490Y129062D01*
X566409Y129187D01*
X566390Y129205D01*
X566375Y129227D01*
X566265Y129326D01*
X566158Y129429D01*
X566136Y129443D01*
X566116Y129460D01*
X565987Y129532D01*
X565859Y129608D01*
X565834Y129616D01*
X565811Y129629D01*
X565668Y129669D01*
X565527Y129714D01*
X565501Y129716D01*
X565476Y129723D01*
X565232Y129743D01*
X547766Y129743D01*
X545772Y131737D01*
X545771Y131738D01*
X544890Y132617D01*
X544812Y132679D01*
X544740Y132748D01*
X544676Y132787D01*
X544617Y132833D01*
X544526Y132876D01*
X544441Y132927D01*
X544370Y132950D01*
X544301Y132982D01*
X544204Y133003D01*
X544109Y133033D01*
X544034Y133039D01*
X543961Y133055D01*
X543861Y133053D01*
X543762Y133061D01*
X543687Y133050D01*
X543612Y133048D01*
X543516Y133024D01*
X543417Y133009D01*
X543347Y132981D01*
X543274Y132963D01*
X543186Y132917D01*
X543093Y132881D01*
X543032Y132838D01*
X542965Y132803D01*
X542889Y132738D01*
X542807Y132682D01*
X542757Y132626D01*
X542699Y132577D01*
X542640Y132497D01*
X542574Y132423D01*
X542537Y132357D01*
X542493Y132297D01*
X542453Y132205D01*
X542405Y132118D01*
X542385Y132045D01*
X542355Y131976D01*
X542337Y131878D01*
X542310Y131782D01*
X542302Y131681D01*
X542294Y131633D01*
X542296Y131598D01*
X542291Y131539D01*
X542291Y84844D01*
X541130Y82043D01*
X538987Y79900D01*
X536186Y78739D01*
X314714Y78739D01*
X311913Y79900D01*
X309770Y82043D01*
X308609Y84844D01*
X308609Y139240D01*
X308595Y139366D01*
X308588Y139492D01*
X308575Y139538D01*
X308569Y139586D01*
X308527Y139705D01*
X308492Y139827D01*
X308468Y139869D01*
X308452Y139914D01*
X308383Y140021D01*
X308322Y140131D01*
X308282Y140177D01*
X308263Y140207D01*
X308228Y140241D01*
X308163Y140317D01*
X306992Y141488D01*
X305561Y144943D01*
X305561Y145796D01*
X305558Y145822D01*
X305560Y145848D01*
X305538Y145995D01*
X305521Y146142D01*
X305513Y146167D01*
X305509Y146193D01*
X305454Y146331D01*
X305404Y146470D01*
X305390Y146492D01*
X305380Y146517D01*
X305295Y146638D01*
X305215Y146763D01*
X305196Y146781D01*
X305181Y146803D01*
X305071Y146902D01*
X304964Y147005D01*
X304942Y147019D01*
X304922Y147036D01*
X304792Y147108D01*
X304665Y147184D01*
X304640Y147192D01*
X304617Y147205D01*
X304474Y147245D01*
X304333Y147290D01*
X304307Y147292D01*
X304282Y147300D01*
X304038Y147319D01*
X302967Y147319D01*
X300166Y148480D01*
X237523Y211122D01*
X237445Y211184D01*
X237372Y211254D01*
X237308Y211293D01*
X237250Y211339D01*
X237159Y211382D01*
X237073Y211433D01*
X237002Y211456D01*
X236935Y211488D01*
X236837Y211509D01*
X236741Y211539D01*
X236667Y211545D01*
X236594Y211561D01*
X236494Y211559D01*
X236394Y211567D01*
X236320Y211556D01*
X236246Y211555D01*
X236149Y211531D01*
X236049Y211516D01*
X235980Y211488D01*
X235908Y211470D01*
X235818Y211424D01*
X235725Y211387D01*
X235664Y211345D01*
X235598Y211310D01*
X235521Y211245D01*
X235439Y211188D01*
X235389Y211133D01*
X235333Y211085D01*
X235273Y211004D01*
X235206Y210929D01*
X235170Y210864D01*
X235125Y210804D01*
X235086Y210712D01*
X235054Y210654D01*
X232707Y208307D01*
X231200Y208307D01*
X231074Y208293D01*
X230948Y208286D01*
X230901Y208273D01*
X230853Y208267D01*
X230734Y208225D01*
X230613Y208190D01*
X230571Y208166D01*
X230525Y208150D01*
X230419Y208081D01*
X230309Y208020D01*
X230262Y207980D01*
X230232Y207961D01*
X230199Y207926D01*
X230122Y207861D01*
X191947Y169686D01*
X191868Y169587D01*
X191784Y169493D01*
X191760Y169450D01*
X191730Y169413D01*
X191676Y169298D01*
X191615Y169188D01*
X191602Y169141D01*
X191581Y169097D01*
X191555Y168974D01*
X191520Y168852D01*
X191515Y168792D01*
X191508Y168757D01*
X191509Y168709D01*
X191501Y168608D01*
X191501Y54510D01*
X191515Y54384D01*
X191522Y54258D01*
X191535Y54212D01*
X191541Y54164D01*
X191583Y54045D01*
X191618Y53923D01*
X191642Y53881D01*
X191658Y53835D01*
X191727Y53729D01*
X191788Y53619D01*
X191828Y53573D01*
X191847Y53543D01*
X191882Y53509D01*
X191947Y53433D01*
X193013Y52367D01*
X193013Y49233D01*
X190797Y47017D01*
X187663Y47017D01*
X185447Y49233D01*
X185447Y52367D01*
X186513Y53433D01*
X186592Y53532D01*
X186676Y53626D01*
X186700Y53668D01*
X186730Y53706D01*
X186784Y53820D01*
X186845Y53931D01*
X186858Y53977D01*
X186879Y54021D01*
X186905Y54144D01*
X186940Y54266D01*
X186945Y54327D01*
X186952Y54361D01*
X186951Y54410D01*
X186959Y54510D01*
X186959Y171121D01*
X226911Y211072D01*
X226990Y211171D01*
X227074Y211265D01*
X227098Y211308D01*
X227128Y211345D01*
X227182Y211460D01*
X227243Y211570D01*
X227256Y211617D01*
X227277Y211661D01*
X227303Y211784D01*
X227338Y211906D01*
X227343Y211966D01*
X227350Y212001D01*
X227349Y212049D01*
X227357Y212150D01*
X227357Y213657D01*
X229709Y216008D01*
X229769Y216030D01*
X229854Y216085D01*
X229943Y216131D01*
X230000Y216179D01*
X230062Y216219D01*
X230132Y216291D01*
X230208Y216356D01*
X230253Y216416D01*
X230304Y216470D01*
X230356Y216556D01*
X230416Y216637D01*
X230445Y216705D01*
X230483Y216769D01*
X230514Y216865D01*
X230554Y216957D01*
X230567Y217030D01*
X230589Y217101D01*
X230597Y217201D01*
X230615Y217300D01*
X230611Y217374D01*
X230617Y217448D01*
X230602Y217548D01*
X230597Y217648D01*
X230577Y217719D01*
X230566Y217793D01*
X230529Y217886D01*
X230501Y217983D01*
X230464Y218048D01*
X230437Y218117D01*
X230380Y218199D01*
X230331Y218287D01*
X230265Y218363D01*
X230238Y218403D01*
X230212Y218427D01*
X230172Y218473D01*
X194970Y253675D01*
X122382Y326263D01*
X122283Y326342D01*
X122189Y326426D01*
X122147Y326450D01*
X122109Y326480D01*
X121995Y326534D01*
X121884Y326595D01*
X121838Y326608D01*
X121794Y326629D01*
X121671Y326655D01*
X121549Y326690D01*
X121488Y326695D01*
X121453Y326702D01*
X121405Y326701D01*
X121305Y326709D01*
X118959Y326709D01*
X111141Y329948D01*
X105158Y335931D01*
X101919Y343749D01*
X101919Y352211D01*
X105158Y360029D01*
X111141Y366012D01*
X118959Y369251D01*
X127421Y369251D01*
X135239Y366012D01*
X141222Y360029D01*
X142738Y356371D01*
X142787Y356283D01*
X142827Y356191D01*
X142871Y356131D01*
X142907Y356066D01*
X142974Y355992D01*
X143034Y355911D01*
X143091Y355863D01*
X143141Y355808D01*
X143224Y355751D01*
X143300Y355686D01*
X143367Y355652D01*
X143428Y355610D01*
X143521Y355573D01*
X143611Y355527D01*
X143683Y355509D01*
X143752Y355482D01*
X143851Y355467D01*
X143949Y355443D01*
X144023Y355442D01*
X144097Y355431D01*
X144197Y355440D01*
X144297Y355438D01*
X144370Y355454D01*
X144444Y355460D01*
X144540Y355491D01*
X144638Y355512D01*
X144705Y355544D01*
X144776Y355567D01*
X144862Y355619D01*
X144953Y355662D01*
X145011Y355708D01*
X145074Y355747D01*
X145146Y355817D01*
X145225Y355879D01*
X145271Y355938D01*
X145324Y355990D01*
X145379Y356074D01*
X145441Y356153D01*
X145487Y356242D01*
X145513Y356283D01*
X145525Y356317D01*
X145552Y356371D01*
X147068Y360029D01*
X153051Y366012D01*
X160869Y369251D01*
X169331Y369251D01*
X177149Y366012D01*
X183132Y360029D01*
X186371Y352211D01*
X186371Y343749D01*
X183132Y335931D01*
X177149Y329948D01*
X169331Y326709D01*
X160869Y326709D01*
X153051Y329948D01*
X147068Y335931D01*
X145552Y339589D01*
X145504Y339677D01*
X145464Y339769D01*
X145419Y339829D01*
X145383Y339894D01*
X145316Y339968D01*
X145256Y340049D01*
X145199Y340097D01*
X145149Y340152D01*
X145066Y340209D01*
X144990Y340274D01*
X144923Y340308D01*
X144862Y340350D01*
X144769Y340387D01*
X144679Y340433D01*
X144607Y340451D01*
X144538Y340478D01*
X144439Y340493D01*
X144341Y340517D01*
X144267Y340518D01*
X144193Y340529D01*
X144093Y340520D01*
X143993Y340522D01*
X143920Y340506D01*
X143846Y340500D01*
X143750Y340469D01*
X143652Y340448D01*
X143585Y340416D01*
X143514Y340393D01*
X143428Y340341D01*
X143337Y340298D01*
X143279Y340252D01*
X143216Y340213D01*
X143143Y340143D01*
X143065Y340081D01*
X143019Y340022D01*
X142966Y339970D01*
X142911Y339886D01*
X142849Y339807D01*
X142803Y339717D01*
X142777Y339677D01*
X142765Y339643D01*
X142738Y339589D01*
X141222Y335931D01*
X138823Y333531D01*
X138806Y333511D01*
X138786Y333494D01*
X138698Y333374D01*
X138606Y333258D01*
X138595Y333235D01*
X138579Y333214D01*
X138521Y333077D01*
X138457Y332943D01*
X138452Y332918D01*
X138441Y332893D01*
X138415Y332747D01*
X138384Y332603D01*
X138384Y332576D01*
X138380Y332550D01*
X138387Y332402D01*
X138390Y332254D01*
X138396Y332229D01*
X138398Y332202D01*
X138439Y332060D01*
X138475Y331916D01*
X138487Y331893D01*
X138494Y331868D01*
X138566Y331738D01*
X138634Y331606D01*
X138651Y331586D01*
X138664Y331563D01*
X138823Y331377D01*
X201783Y268417D01*
X201882Y268338D01*
X201976Y268254D01*
X202018Y268230D01*
X202056Y268200D01*
X202170Y268146D01*
X202281Y268085D01*
X202327Y268072D01*
X202371Y268051D01*
X202494Y268025D01*
X202616Y267990D01*
X202677Y267985D01*
X202712Y267978D01*
X202760Y267979D01*
X202860Y267971D01*
X208093Y267971D01*
X208138Y267976D01*
X208184Y267973D01*
X208311Y267996D01*
X208439Y268011D01*
X208482Y268026D01*
X208527Y268034D01*
X208646Y268085D01*
X208767Y268128D01*
X208806Y268153D01*
X208848Y268171D01*
X208952Y268247D01*
X209060Y268317D01*
X209092Y268350D01*
X209129Y268377D01*
X209213Y268475D01*
X209302Y268568D01*
X209326Y268607D01*
X209356Y268642D01*
X209415Y268756D01*
X209481Y268867D01*
X209495Y268910D01*
X209516Y268951D01*
X209548Y269076D01*
X209587Y269199D01*
X209591Y269244D01*
X209602Y269289D01*
X209605Y269418D01*
X209615Y269546D01*
X209609Y269591D01*
X209610Y269637D01*
X209583Y269763D01*
X209564Y269891D01*
X209547Y269933D01*
X209537Y269978D01*
X209483Y270095D01*
X209435Y270215D01*
X209409Y270252D01*
X209390Y270294D01*
X209310Y270395D01*
X209236Y270501D01*
X209202Y270531D01*
X209174Y270567D01*
X208988Y270726D01*
X208950Y270754D01*
X207762Y271942D01*
X206775Y273300D01*
X206013Y274797D01*
X205494Y276394D01*
X205231Y278052D01*
X205231Y284481D01*
X214884Y284481D01*
X214910Y284484D01*
X214936Y284482D01*
X215083Y284504D01*
X215230Y284521D01*
X215255Y284529D01*
X215281Y284533D01*
X215418Y284588D01*
X215558Y284638D01*
X215580Y284652D01*
X215605Y284662D01*
X215726Y284747D01*
X215851Y284827D01*
X215869Y284846D01*
X215891Y284861D01*
X215905Y284877D01*
X215990Y284795D01*
X216013Y284781D01*
X216032Y284764D01*
X216162Y284692D01*
X216289Y284616D01*
X216314Y284608D01*
X216337Y284595D01*
X216480Y284555D01*
X216621Y284510D01*
X216647Y284507D01*
X216672Y284500D01*
X216916Y284481D01*
X226569Y284481D01*
X226569Y278052D01*
X226306Y276394D01*
X225787Y274797D01*
X225025Y273300D01*
X224038Y271942D01*
X222850Y270754D01*
X222812Y270726D01*
X222778Y270696D01*
X222740Y270671D01*
X222650Y270578D01*
X222555Y270491D01*
X222529Y270453D01*
X222498Y270420D01*
X222431Y270310D01*
X222359Y270203D01*
X222342Y270160D01*
X222319Y270121D01*
X222280Y269999D01*
X222233Y269878D01*
X222226Y269833D01*
X222213Y269789D01*
X222202Y269661D01*
X222184Y269533D01*
X222188Y269487D01*
X222185Y269442D01*
X222204Y269314D01*
X222215Y269186D01*
X222229Y269142D01*
X222236Y269097D01*
X222284Y268977D01*
X222324Y268855D01*
X222348Y268816D01*
X222365Y268773D01*
X222439Y268667D01*
X222506Y268557D01*
X222538Y268525D01*
X222564Y268487D01*
X222660Y268401D01*
X222750Y268309D01*
X222789Y268284D01*
X222823Y268254D01*
X222936Y268191D01*
X223045Y268122D01*
X223088Y268107D01*
X223128Y268085D01*
X223252Y268050D01*
X223374Y268008D01*
X223419Y268003D01*
X223463Y267990D01*
X223707Y267971D01*
X235448Y267971D01*
X235498Y267977D01*
X235549Y267974D01*
X235671Y267996D01*
X235795Y268011D01*
X235842Y268028D01*
X235892Y268037D01*
X236006Y268086D01*
X236123Y268128D01*
X236165Y268155D01*
X236211Y268176D01*
X236311Y268250D01*
X236415Y268317D01*
X236451Y268353D01*
X236491Y268383D01*
X236571Y268478D01*
X236658Y268568D01*
X236684Y268611D01*
X236716Y268649D01*
X236773Y268760D01*
X236837Y268867D01*
X236852Y268915D01*
X236875Y268960D01*
X236905Y269081D01*
X236943Y269199D01*
X236947Y269249D01*
X236959Y269298D01*
X236961Y269422D01*
X236971Y269546D01*
X236963Y269596D01*
X236964Y269646D01*
X236937Y269768D01*
X236919Y269891D01*
X236900Y269938D01*
X236890Y269987D01*
X236836Y270099D01*
X236790Y270215D01*
X236762Y270256D01*
X236740Y270302D01*
X236662Y270399D01*
X236591Y270501D01*
X236554Y270535D01*
X236523Y270574D01*
X236425Y270651D01*
X236333Y270734D01*
X236288Y270759D01*
X236249Y270790D01*
X236031Y270901D01*
X235976Y270924D01*
X233332Y273568D01*
X231901Y277023D01*
X231901Y297017D01*
X233332Y300472D01*
X235976Y303116D01*
X239431Y304547D01*
X243169Y304547D01*
X246624Y303116D01*
X249268Y300472D01*
X250699Y297017D01*
X250699Y277023D01*
X249268Y273568D01*
X246624Y270924D01*
X246569Y270901D01*
X246525Y270877D01*
X246477Y270860D01*
X246373Y270792D01*
X246264Y270732D01*
X246227Y270698D01*
X246185Y270671D01*
X246098Y270581D01*
X246006Y270498D01*
X245977Y270456D01*
X245942Y270420D01*
X245878Y270313D01*
X245808Y270211D01*
X245789Y270164D01*
X245763Y270121D01*
X245726Y270003D01*
X245680Y269887D01*
X245673Y269837D01*
X245657Y269789D01*
X245647Y269665D01*
X245629Y269542D01*
X245633Y269492D01*
X245629Y269442D01*
X245648Y269319D01*
X245658Y269195D01*
X245673Y269147D01*
X245681Y269097D01*
X245727Y268981D01*
X245765Y268863D01*
X245791Y268820D01*
X245810Y268773D01*
X245881Y268671D01*
X245945Y268565D01*
X245980Y268529D01*
X246009Y268487D01*
X246101Y268404D01*
X246188Y268315D01*
X246230Y268287D01*
X246267Y268254D01*
X246376Y268193D01*
X246481Y268126D01*
X246528Y268110D01*
X246572Y268085D01*
X246692Y268051D01*
X246809Y268010D01*
X246859Y268004D01*
X246908Y267990D01*
X247152Y267971D01*
X262329Y267971D01*
X262352Y267973D01*
X262375Y267971D01*
X262524Y267993D01*
X262675Y268011D01*
X262697Y268018D01*
X262720Y268022D01*
X262861Y268077D01*
X263003Y268128D01*
X263022Y268141D01*
X263044Y268149D01*
X263169Y268235D01*
X263296Y268317D01*
X263312Y268334D01*
X263331Y268347D01*
X263433Y268459D01*
X263538Y268568D01*
X263550Y268588D01*
X263565Y268605D01*
X263639Y268737D01*
X263717Y268867D01*
X263724Y268889D01*
X263735Y268909D01*
X263777Y269055D01*
X263823Y269199D01*
X263825Y269222D01*
X263831Y269244D01*
X263852Y269488D01*
X264393Y408674D01*
X264392Y408677D01*
X264393Y408680D01*
X264393Y410191D01*
X264977Y411587D01*
X264978Y411590D01*
X264980Y411593D01*
X265559Y412991D01*
X266631Y414055D01*
X266633Y414057D01*
X266635Y414059D01*
X267708Y415131D01*
X269108Y415705D01*
X269111Y415706D01*
X269114Y415708D01*
X270512Y416287D01*
X272026Y416281D01*
X272029Y416281D01*
X272032Y416281D01*
X602226Y416281D01*
X605027Y415120D01*
X607170Y412977D01*
X608331Y410176D01*
X608331Y379682D01*
X608345Y379556D01*
X608352Y379430D01*
X608365Y379384D01*
X608371Y379336D01*
X608413Y379217D01*
X608448Y379095D01*
X608472Y379053D01*
X608488Y379008D01*
X608557Y378901D01*
X608618Y378791D01*
X608658Y378745D01*
X608677Y378715D01*
X608712Y378681D01*
X608777Y378605D01*
X608839Y378543D01*
X608839Y374396D01*
X608842Y374370D01*
X608840Y374344D01*
X608862Y374197D01*
X608879Y374050D01*
X608887Y374025D01*
X608891Y373999D01*
X608946Y373861D01*
X608996Y373722D01*
X609010Y373700D01*
X609020Y373675D01*
X609105Y373554D01*
X609185Y373429D01*
X609204Y373411D01*
X609219Y373389D01*
X609329Y373290D01*
X609436Y373187D01*
X609458Y373173D01*
X609478Y373156D01*
X609608Y373084D01*
X609735Y373008D01*
X609760Y373000D01*
X609783Y372987D01*
X609926Y372947D01*
X610067Y372902D01*
X610093Y372900D01*
X610118Y372892D01*
X610362Y372873D01*
X726457Y372873D01*
X775541Y323789D01*
X775640Y323710D01*
X775734Y323626D01*
X775776Y323602D01*
X775814Y323572D01*
X775928Y323518D01*
X776039Y323457D01*
X776085Y323444D01*
X776129Y323423D01*
X776252Y323397D01*
X776374Y323362D01*
X776435Y323357D01*
X776470Y323350D01*
X776518Y323351D01*
X776618Y323343D01*
X782182Y323343D01*
X782308Y323357D01*
X782434Y323364D01*
X782480Y323377D01*
X782528Y323383D01*
X782647Y323425D01*
X782769Y323460D01*
X782811Y323484D01*
X782856Y323500D01*
X782963Y323569D01*
X783073Y323630D01*
X783119Y323670D01*
X783149Y323689D01*
X783183Y323724D01*
X783259Y323789D01*
X783293Y323823D01*
X786427Y323823D01*
X788643Y321607D01*
X788643Y318473D01*
X786427Y316257D01*
X783293Y316257D01*
X783259Y316291D01*
X783160Y316370D01*
X783066Y316454D01*
X783024Y316478D01*
X782986Y316508D01*
X782872Y316562D01*
X782761Y316623D01*
X782715Y316636D01*
X782671Y316657D01*
X782548Y316683D01*
X782426Y316718D01*
X782365Y316723D01*
X782330Y316730D01*
X782282Y316729D01*
X782182Y316737D01*
X778367Y316737D01*
X778268Y316726D01*
X778167Y316724D01*
X778095Y316706D01*
X778021Y316697D01*
X777927Y316664D01*
X777829Y316639D01*
X777763Y316605D01*
X777693Y316580D01*
X777609Y316525D01*
X777519Y316479D01*
X777463Y316431D01*
X777400Y316391D01*
X777330Y316319D01*
X777254Y316254D01*
X777210Y316194D01*
X777158Y316140D01*
X777107Y316054D01*
X777047Y315973D01*
X777017Y315905D01*
X776979Y315841D01*
X776949Y315745D01*
X776909Y315653D01*
X776896Y315580D01*
X776873Y315509D01*
X776865Y315409D01*
X776847Y315310D01*
X776851Y315236D01*
X776845Y315162D01*
X776860Y315062D01*
X776865Y314962D01*
X776886Y314891D01*
X776897Y314817D01*
X776934Y314724D01*
X776962Y314627D01*
X776998Y314562D01*
X777025Y314493D01*
X777083Y314411D01*
X777132Y314323D01*
X777197Y314247D01*
X777224Y314207D01*
X777251Y314183D01*
X777290Y314137D01*
X804186Y287241D01*
X804285Y287162D01*
X804379Y287078D01*
X804422Y287054D01*
X804459Y287024D01*
X804574Y286970D01*
X804684Y286909D01*
X804731Y286896D01*
X804774Y286875D01*
X804898Y286849D01*
X805020Y286814D01*
X805080Y286809D01*
X805115Y286802D01*
X805163Y286803D01*
X805263Y286795D01*
X833264Y286795D01*
X833390Y286809D01*
X833516Y286816D01*
X833562Y286829D01*
X833610Y286835D01*
X833729Y286877D01*
X833851Y286912D01*
X833893Y286936D01*
X833938Y286952D01*
X834045Y287021D01*
X834155Y287082D01*
X834201Y287122D01*
X834231Y287141D01*
X834265Y287176D01*
X834341Y287241D01*
X836633Y289533D01*
X839767Y289533D01*
X841983Y287317D01*
X841983Y284464D01*
X841986Y284438D01*
X841984Y284412D01*
X842006Y284265D01*
X842023Y284118D01*
X842031Y284093D01*
X842035Y284067D01*
X842090Y283929D01*
X842140Y283790D01*
X842154Y283768D01*
X842164Y283743D01*
X842249Y283622D01*
X842329Y283497D01*
X842348Y283479D01*
X842363Y283457D01*
X842473Y283358D01*
X842580Y283255D01*
X842602Y283241D01*
X842622Y283224D01*
X842752Y283152D01*
X842879Y283076D01*
X842904Y283068D01*
X842927Y283055D01*
X843070Y283015D01*
X843211Y282970D01*
X843237Y282968D01*
X843262Y282960D01*
X843506Y282941D01*
X853138Y282941D01*
X853264Y282955D01*
X853390Y282962D01*
X853437Y282975D01*
X853485Y282981D01*
X853604Y283023D01*
X853725Y283058D01*
X853767Y283082D01*
X853813Y283098D01*
X853919Y283167D01*
X854029Y283228D01*
X854076Y283268D01*
X854106Y283287D01*
X854139Y283322D01*
X854216Y283387D01*
X860140Y289312D01*
X860142Y289312D01*
X860188Y289325D01*
X860236Y289331D01*
X860355Y289373D01*
X860477Y289408D01*
X860519Y289432D01*
X860564Y289448D01*
X860671Y289517D01*
X860781Y289578D01*
X860827Y289618D01*
X860857Y289637D01*
X860891Y289672D01*
X860967Y289737D01*
X862033Y290803D01*
X865167Y290803D01*
X867383Y288587D01*
X867383Y285453D01*
X865167Y283237D01*
X861878Y283237D01*
X861750Y283298D01*
X861724Y283304D01*
X861700Y283314D01*
X861554Y283340D01*
X861409Y283371D01*
X861383Y283371D01*
X861357Y283376D01*
X861209Y283368D01*
X861061Y283365D01*
X861035Y283359D01*
X861009Y283358D01*
X860867Y283317D01*
X860723Y283280D01*
X860699Y283268D01*
X860674Y283261D01*
X860545Y283189D01*
X860413Y283121D01*
X860393Y283104D01*
X860370Y283091D01*
X860184Y282932D01*
X855651Y278399D01*
X801622Y278399D01*
X799845Y280175D01*
X799845Y280176D01*
X721185Y358836D01*
X721086Y358915D01*
X720992Y358999D01*
X720950Y359023D01*
X720912Y359053D01*
X720798Y359107D01*
X720687Y359168D01*
X720640Y359181D01*
X720597Y359202D01*
X720473Y359228D01*
X720351Y359263D01*
X720291Y359268D01*
X720256Y359275D01*
X720208Y359274D01*
X720108Y359282D01*
X639648Y359282D01*
X639522Y359268D01*
X639396Y359261D01*
X639350Y359248D01*
X639302Y359242D01*
X639183Y359200D01*
X639061Y359165D01*
X639019Y359141D01*
X638974Y359125D01*
X638867Y359056D01*
X638757Y358995D01*
X638711Y358955D01*
X638681Y358936D01*
X638647Y358901D01*
X638571Y358836D01*
X624779Y345044D01*
X624700Y344945D01*
X624616Y344851D01*
X624592Y344809D01*
X624562Y344771D01*
X624508Y344657D01*
X624447Y344546D01*
X624434Y344500D01*
X624413Y344456D01*
X624387Y344333D01*
X624352Y344211D01*
X624347Y344150D01*
X624340Y344115D01*
X624341Y344067D01*
X624333Y343967D01*
X624333Y341768D01*
X624347Y341642D01*
X624354Y341516D01*
X624367Y341470D01*
X624373Y341422D01*
X624415Y341303D01*
X624450Y341181D01*
X624474Y341139D01*
X624490Y341094D01*
X624559Y340987D01*
X624620Y340877D01*
X624660Y340831D01*
X624679Y340801D01*
X624714Y340767D01*
X624779Y340691D01*
X626083Y339387D01*
X626083Y336253D01*
X623867Y334037D01*
X620733Y334037D01*
X618517Y336253D01*
X618517Y339387D01*
X619821Y340691D01*
X619900Y340790D01*
X619984Y340884D01*
X620008Y340926D01*
X620038Y340964D01*
X620092Y341078D01*
X620153Y341189D01*
X620166Y341235D01*
X620187Y341279D01*
X620213Y341402D01*
X620248Y341524D01*
X620253Y341585D01*
X620260Y341620D01*
X620259Y341668D01*
X620267Y341768D01*
X620267Y346282D01*
X629811Y355825D01*
X629827Y355846D01*
X629847Y355863D01*
X629935Y355982D01*
X630027Y356098D01*
X630039Y356122D01*
X630054Y356143D01*
X630113Y356279D01*
X630176Y356414D01*
X630182Y356439D01*
X630192Y356463D01*
X630218Y356609D01*
X630250Y356754D01*
X630249Y356780D01*
X630254Y356806D01*
X630246Y356955D01*
X630244Y357103D01*
X630237Y357128D01*
X630236Y357154D01*
X630195Y357297D01*
X630159Y357441D01*
X630147Y357464D01*
X630139Y357489D01*
X630071Y357612D01*
X630060Y357639D01*
X630047Y357658D01*
X629999Y357751D01*
X629982Y357771D01*
X629969Y357793D01*
X629878Y357900D01*
X629861Y357925D01*
X629845Y357940D01*
X629811Y357980D01*
X627407Y360383D01*
X627407Y363517D01*
X627557Y363667D01*
X627620Y363745D01*
X627690Y363818D01*
X627728Y363882D01*
X627774Y363940D01*
X627817Y364031D01*
X627868Y364117D01*
X627891Y364188D01*
X627923Y364255D01*
X627944Y364353D01*
X627975Y364449D01*
X627981Y364523D01*
X627996Y364596D01*
X627995Y364696D01*
X628003Y364796D01*
X627992Y364870D01*
X627990Y364944D01*
X627966Y365041D01*
X627951Y365141D01*
X627923Y365210D01*
X627905Y365282D01*
X627859Y365371D01*
X627822Y365465D01*
X627780Y365526D01*
X627746Y365592D01*
X627680Y365669D01*
X627623Y365751D01*
X627568Y365801D01*
X627520Y365857D01*
X627439Y365917D01*
X627364Y365984D01*
X627299Y366020D01*
X627240Y366065D01*
X627147Y366104D01*
X627059Y366153D01*
X626988Y366173D01*
X626920Y366203D01*
X626821Y366220D01*
X626724Y366248D01*
X626624Y366256D01*
X626577Y366264D01*
X626541Y366262D01*
X626480Y366267D01*
X604980Y366267D01*
X604854Y366253D01*
X604728Y366246D01*
X604682Y366233D01*
X604634Y366227D01*
X604515Y366185D01*
X604393Y366150D01*
X604351Y366126D01*
X604306Y366110D01*
X604199Y366041D01*
X604089Y365980D01*
X604043Y365940D01*
X604013Y365921D01*
X603979Y365886D01*
X603903Y365821D01*
X603333Y365251D01*
X595547Y365251D01*
X590041Y370757D01*
X590041Y378543D01*
X592643Y381145D01*
X592722Y381244D01*
X592806Y381338D01*
X592830Y381380D01*
X592860Y381418D01*
X592914Y381532D01*
X592975Y381643D01*
X592988Y381689D01*
X593009Y381733D01*
X593035Y381856D01*
X593070Y381978D01*
X593075Y382039D01*
X593082Y382074D01*
X593081Y382122D01*
X593089Y382222D01*
X593089Y399516D01*
X593086Y399542D01*
X593088Y399568D01*
X593066Y399715D01*
X593049Y399862D01*
X593041Y399887D01*
X593037Y399913D01*
X592982Y400051D01*
X592932Y400190D01*
X592918Y400212D01*
X592908Y400237D01*
X592823Y400358D01*
X592743Y400483D01*
X592724Y400501D01*
X592709Y400523D01*
X592599Y400622D01*
X592492Y400725D01*
X592470Y400739D01*
X592450Y400756D01*
X592320Y400828D01*
X592193Y400904D01*
X592168Y400912D01*
X592145Y400925D01*
X592002Y400965D01*
X591861Y401010D01*
X591835Y401012D01*
X591810Y401020D01*
X591566Y401039D01*
X390144Y401039D01*
X390118Y401036D01*
X390092Y401038D01*
X389945Y401016D01*
X389798Y400999D01*
X389773Y400991D01*
X389747Y400987D01*
X389609Y400932D01*
X389470Y400882D01*
X389448Y400868D01*
X389423Y400858D01*
X389302Y400773D01*
X389177Y400693D01*
X389159Y400674D01*
X389137Y400659D01*
X389038Y400549D01*
X388935Y400442D01*
X388921Y400420D01*
X388904Y400400D01*
X388832Y400270D01*
X388756Y400143D01*
X388748Y400118D01*
X388735Y400095D01*
X388695Y399952D01*
X388650Y399811D01*
X388648Y399785D01*
X388640Y399760D01*
X388621Y399516D01*
X388621Y379682D01*
X388635Y379556D01*
X388642Y379430D01*
X388655Y379384D01*
X388661Y379336D01*
X388703Y379217D01*
X388738Y379095D01*
X388762Y379053D01*
X388778Y379008D01*
X388847Y378901D01*
X388908Y378791D01*
X388948Y378745D01*
X388967Y378715D01*
X389002Y378681D01*
X389067Y378605D01*
X390399Y377273D01*
X390399Y369487D01*
X386209Y365297D01*
X386147Y365219D01*
X386077Y365146D01*
X386038Y365082D01*
X385992Y365024D01*
X385949Y364933D01*
X385898Y364847D01*
X385875Y364776D01*
X385843Y364709D01*
X385822Y364611D01*
X385792Y364515D01*
X385786Y364441D01*
X385770Y364368D01*
X385772Y364268D01*
X385764Y364168D01*
X385775Y364094D01*
X385776Y364020D01*
X385800Y363923D01*
X385815Y363823D01*
X385843Y363754D01*
X385861Y363682D01*
X385907Y363592D01*
X385944Y363499D01*
X385986Y363438D01*
X386021Y363372D01*
X386086Y363295D01*
X386143Y363213D01*
X386198Y363163D01*
X386246Y363107D01*
X386327Y363047D01*
X386402Y362980D01*
X386467Y362944D01*
X386527Y362899D01*
X386619Y362860D01*
X386707Y362811D01*
X386778Y362791D01*
X386847Y362761D01*
X386945Y362744D01*
X387042Y362716D01*
X387142Y362708D01*
X387190Y362700D01*
X387225Y362702D01*
X387286Y362697D01*
X403416Y362697D01*
X404607Y361506D01*
X404607Y299563D01*
X404621Y299438D01*
X404628Y299311D01*
X404641Y299265D01*
X404647Y299217D01*
X404689Y299098D01*
X404724Y298976D01*
X404748Y298934D01*
X404764Y298889D01*
X404833Y298782D01*
X404894Y298672D01*
X404934Y298626D01*
X404953Y298596D01*
X404988Y298562D01*
X405053Y298486D01*
X426151Y277388D01*
X426229Y277326D01*
X426302Y277256D01*
X426366Y277218D01*
X426424Y277171D01*
X426515Y277128D01*
X426601Y277077D01*
X426672Y277054D01*
X426739Y277022D01*
X426837Y277001D01*
X426933Y276971D01*
X427007Y276965D01*
X427080Y276949D01*
X427180Y276951D01*
X427280Y276943D01*
X427354Y276954D01*
X427428Y276955D01*
X427525Y276980D01*
X427625Y276994D01*
X427694Y277022D01*
X427766Y277040D01*
X427856Y277086D01*
X427949Y277123D01*
X428010Y277166D01*
X428076Y277200D01*
X428153Y277265D01*
X428235Y277322D01*
X428285Y277377D01*
X428341Y277426D01*
X428401Y277506D01*
X428468Y277581D01*
X428504Y277646D01*
X428549Y277706D01*
X428588Y277798D01*
X428637Y277886D01*
X428657Y277958D01*
X428687Y278026D01*
X428704Y278125D01*
X428732Y278221D01*
X428740Y278321D01*
X428748Y278369D01*
X428746Y278405D01*
X428751Y278465D01*
X428751Y284481D01*
X436881Y284481D01*
X436881Y267289D01*
X436895Y267164D01*
X436902Y267037D01*
X436915Y266991D01*
X436921Y266943D01*
X436963Y266824D01*
X436998Y266702D01*
X437022Y266660D01*
X437038Y266615D01*
X437107Y266509D01*
X437168Y266398D01*
X437208Y266352D01*
X437227Y266322D01*
X437262Y266288D01*
X437327Y266212D01*
X459760Y243779D01*
X459859Y243700D01*
X459953Y243616D01*
X459995Y243592D01*
X460033Y243562D01*
X460147Y243508D01*
X460258Y243447D01*
X460304Y243434D01*
X460348Y243413D01*
X460472Y243387D01*
X460593Y243352D01*
X460654Y243347D01*
X460689Y243340D01*
X460737Y243341D01*
X460837Y243333D01*
X879094Y243333D01*
X879120Y243336D01*
X879146Y243334D01*
X879293Y243356D01*
X879440Y243373D01*
X879465Y243381D01*
X879491Y243385D01*
X879629Y243440D01*
X879768Y243490D01*
X879790Y243504D01*
X879815Y243514D01*
X879936Y243599D01*
X880061Y243679D01*
X880079Y243698D01*
X880101Y243713D01*
X880200Y243823D01*
X880303Y243930D01*
X880317Y243952D01*
X880334Y243972D01*
X880406Y244102D01*
X880482Y244229D01*
X880490Y244254D01*
X880503Y244277D01*
X880543Y244420D01*
X880588Y244561D01*
X880590Y244587D01*
X880598Y244612D01*
X880617Y244856D01*
X880617Y270082D01*
X881808Y271273D01*
X885052Y271273D01*
X885178Y271287D01*
X885304Y271294D01*
X885350Y271307D01*
X885398Y271313D01*
X885517Y271355D01*
X885639Y271390D01*
X885681Y271414D01*
X885726Y271430D01*
X885833Y271499D01*
X885943Y271560D01*
X885989Y271600D01*
X886019Y271619D01*
X886053Y271654D01*
X886129Y271719D01*
X887433Y273023D01*
X890493Y273023D01*
X890521Y273026D01*
X890549Y273024D01*
X890694Y273046D01*
X890839Y273063D01*
X890866Y273072D01*
X890894Y273076D01*
X891030Y273131D01*
X891167Y273180D01*
X891191Y273195D01*
X891217Y273206D01*
X891337Y273290D01*
X891460Y273369D01*
X891480Y273389D01*
X891503Y273406D01*
X891601Y273515D01*
X891702Y273620D01*
X891717Y273644D01*
X891736Y273665D01*
X891806Y273793D01*
X891881Y273919D01*
X891890Y273946D01*
X891903Y273971D01*
X891943Y274111D01*
X891987Y274251D01*
X891990Y274279D01*
X891997Y274306D01*
X892016Y274550D01*
X892013Y275804D01*
X892010Y275828D01*
X892012Y275852D01*
X891990Y276001D01*
X891972Y276150D01*
X891964Y276173D01*
X891960Y276197D01*
X891905Y276337D01*
X891854Y276478D01*
X891840Y276498D01*
X891831Y276521D01*
X891746Y276644D01*
X891664Y276770D01*
X891646Y276787D01*
X891633Y276807D01*
X891521Y276908D01*
X891413Y277012D01*
X891392Y277024D01*
X891374Y277040D01*
X891242Y277113D01*
X891113Y277190D01*
X891090Y277197D01*
X891069Y277209D01*
X890924Y277250D01*
X890781Y277295D01*
X890757Y277297D01*
X890733Y277304D01*
X890490Y277323D01*
X880204Y277323D01*
X880078Y277309D01*
X879952Y277302D01*
X879906Y277289D01*
X879858Y277283D01*
X879739Y277241D01*
X879617Y277206D01*
X879575Y277182D01*
X879530Y277166D01*
X879423Y277097D01*
X879313Y277036D01*
X879267Y276996D01*
X879237Y276977D01*
X879203Y276942D01*
X879127Y276877D01*
X877867Y275617D01*
X874733Y275617D01*
X872517Y277833D01*
X872517Y280967D01*
X874733Y283183D01*
X877867Y283183D01*
X879215Y281835D01*
X879314Y281756D01*
X879408Y281672D01*
X879450Y281648D01*
X879488Y281618D01*
X879602Y281564D01*
X879713Y281503D01*
X879759Y281490D01*
X879803Y281469D01*
X879926Y281443D01*
X880048Y281408D01*
X880109Y281403D01*
X880144Y281396D01*
X880192Y281397D01*
X880292Y281389D01*
X894027Y281389D01*
X894028Y281389D01*
X894031Y281389D01*
X894876Y281391D01*
X895470Y280797D01*
X895471Y280796D01*
X895473Y280794D01*
X896069Y280201D01*
X896069Y279365D01*
X896069Y279364D01*
X896069Y279361D01*
X896105Y265633D01*
X896109Y265599D01*
X896109Y264170D01*
X896110Y264168D01*
X896109Y264166D01*
X896112Y263320D01*
X895518Y262727D01*
X895517Y262725D01*
X895515Y262724D01*
X894922Y262127D01*
X894086Y262127D01*
X894085Y262127D01*
X894082Y262127D01*
X892657Y262123D01*
X892609Y262127D01*
X890016Y262127D01*
X889990Y262124D01*
X889964Y262126D01*
X889817Y262104D01*
X889670Y262087D01*
X889645Y262079D01*
X889619Y262075D01*
X889481Y262020D01*
X889342Y261970D01*
X889320Y261956D01*
X889295Y261946D01*
X889174Y261861D01*
X889049Y261781D01*
X889031Y261762D01*
X889009Y261747D01*
X888910Y261637D01*
X888807Y261530D01*
X888793Y261508D01*
X888776Y261488D01*
X888704Y261358D01*
X888628Y261231D01*
X888620Y261206D01*
X888607Y261183D01*
X888567Y261040D01*
X888522Y260899D01*
X888520Y260873D01*
X888512Y260848D01*
X888493Y260604D01*
X888493Y239542D01*
X888507Y239416D01*
X888514Y239290D01*
X888527Y239243D01*
X888533Y239195D01*
X888575Y239076D01*
X888610Y238955D01*
X888634Y238913D01*
X888650Y238867D01*
X888719Y238761D01*
X888731Y238739D01*
X888731Y236791D01*
X887401Y235461D01*
X885489Y235461D01*
X885448Y235484D01*
X885411Y235514D01*
X885296Y235568D01*
X885186Y235629D01*
X885139Y235642D01*
X885095Y235663D01*
X884972Y235689D01*
X884850Y235724D01*
X884790Y235729D01*
X884755Y235736D01*
X884707Y235735D01*
X884606Y235743D01*
X749526Y235743D01*
X749500Y235740D01*
X749474Y235742D01*
X749327Y235720D01*
X749180Y235703D01*
X749155Y235695D01*
X749129Y235691D01*
X748991Y235636D01*
X748852Y235586D01*
X748830Y235572D01*
X748805Y235562D01*
X748684Y235477D01*
X748559Y235397D01*
X748541Y235378D01*
X748519Y235363D01*
X748420Y235253D01*
X748317Y235146D01*
X748303Y235124D01*
X748286Y235104D01*
X748214Y234974D01*
X748138Y234847D01*
X748130Y234822D01*
X748117Y234799D01*
X748077Y234656D01*
X748032Y234515D01*
X748030Y234489D01*
X748022Y234464D01*
X748003Y234220D01*
X748003Y230843D01*
X745787Y228627D01*
X742653Y228627D01*
X741587Y229693D01*
X741488Y229772D01*
X741394Y229856D01*
X741352Y229880D01*
X741314Y229910D01*
X741200Y229964D01*
X741089Y230025D01*
X741043Y230038D01*
X740999Y230059D01*
X740876Y230085D01*
X740754Y230120D01*
X740693Y230125D01*
X740658Y230132D01*
X740610Y230131D01*
X740510Y230139D01*
X739124Y230139D01*
X739098Y230136D01*
X739072Y230138D01*
X738925Y230116D01*
X738778Y230099D01*
X738753Y230091D01*
X738727Y230087D01*
X738589Y230032D01*
X738450Y229982D01*
X738428Y229968D01*
X738403Y229958D01*
X738282Y229873D01*
X738157Y229793D01*
X738139Y229774D01*
X738117Y229759D01*
X738018Y229649D01*
X737915Y229542D01*
X737901Y229520D01*
X737884Y229500D01*
X737812Y229370D01*
X737736Y229243D01*
X737728Y229218D01*
X737715Y229195D01*
X737675Y229052D01*
X737630Y228911D01*
X737628Y228885D01*
X737620Y228860D01*
X737601Y228616D01*
X737601Y211990D01*
X737615Y211864D01*
X737622Y211738D01*
X737635Y211692D01*
X737641Y211644D01*
X737683Y211525D01*
X737718Y211403D01*
X737742Y211361D01*
X737758Y211316D01*
X737827Y211209D01*
X737888Y211099D01*
X737928Y211053D01*
X737947Y211023D01*
X737982Y210989D01*
X738047Y210913D01*
X739113Y209847D01*
X739113Y206713D01*
X738047Y205647D01*
X737981Y205564D01*
X737937Y205519D01*
X737928Y205504D01*
X737884Y205454D01*
X737860Y205412D01*
X737830Y205374D01*
X737776Y205260D01*
X737715Y205149D01*
X737702Y205103D01*
X737681Y205059D01*
X737655Y204936D01*
X737620Y204814D01*
X737615Y204753D01*
X737608Y204718D01*
X737609Y204670D01*
X737601Y204570D01*
X737601Y175244D01*
X737604Y175218D01*
X737602Y175192D01*
X737624Y175045D01*
X737641Y174898D01*
X737649Y174873D01*
X737653Y174847D01*
X737708Y174709D01*
X737758Y174570D01*
X737772Y174548D01*
X737782Y174523D01*
X737867Y174402D01*
X737947Y174277D01*
X737966Y174259D01*
X737981Y174237D01*
X738091Y174138D01*
X738198Y174035D01*
X738220Y174021D01*
X738240Y174004D01*
X738370Y173932D01*
X738497Y173856D01*
X738522Y173848D01*
X738545Y173835D01*
X738688Y173795D01*
X738829Y173750D01*
X738855Y173748D01*
X738880Y173740D01*
X739124Y173721D01*
X770382Y173721D01*
X770408Y173724D01*
X770434Y173722D01*
X770581Y173744D01*
X770728Y173761D01*
X770753Y173769D01*
X770779Y173773D01*
X770917Y173828D01*
X771056Y173878D01*
X771078Y173892D01*
X771103Y173902D01*
X771224Y173987D01*
X771349Y174067D01*
X771367Y174086D01*
X771389Y174101D01*
X771488Y174211D01*
X771591Y174318D01*
X771605Y174340D01*
X771622Y174360D01*
X771694Y174490D01*
X771770Y174617D01*
X771778Y174642D01*
X771791Y174665D01*
X771831Y174808D01*
X771876Y174949D01*
X771878Y174975D01*
X771886Y175000D01*
X771905Y175244D01*
X771905Y225948D01*
X773542Y227585D01*
X912796Y227585D01*
X912822Y227588D01*
X912848Y227586D01*
X912995Y227608D01*
X913142Y227625D01*
X913167Y227633D01*
X913193Y227637D01*
X913331Y227692D01*
X913470Y227742D01*
X913492Y227756D01*
X913517Y227766D01*
X913638Y227851D01*
X913763Y227931D01*
X913781Y227950D01*
X913803Y227965D01*
X913902Y228075D01*
X914005Y228182D01*
X914019Y228204D01*
X914036Y228224D01*
X914108Y228354D01*
X914184Y228481D01*
X914192Y228506D01*
X914205Y228529D01*
X914245Y228672D01*
X914290Y228813D01*
X914292Y228839D01*
X914300Y228864D01*
X914319Y229108D01*
X914319Y275632D01*
X914305Y275758D01*
X914298Y275884D01*
X914285Y275930D01*
X914279Y275978D01*
X914237Y276097D01*
X914202Y276219D01*
X914178Y276261D01*
X914162Y276306D01*
X914093Y276413D01*
X914032Y276523D01*
X913992Y276569D01*
X913973Y276599D01*
X913938Y276633D01*
X913873Y276709D01*
X859639Y330943D01*
X859540Y331022D01*
X859446Y331106D01*
X859404Y331130D01*
X859366Y331160D01*
X859252Y331214D01*
X859141Y331275D01*
X859095Y331288D01*
X859051Y331309D01*
X858928Y331335D01*
X858806Y331370D01*
X858745Y331375D01*
X858710Y331382D01*
X858662Y331381D01*
X858562Y331389D01*
X845778Y331389D01*
X845652Y331375D01*
X845526Y331368D01*
X845480Y331355D01*
X845432Y331349D01*
X845313Y331307D01*
X845191Y331272D01*
X845149Y331248D01*
X845104Y331232D01*
X844997Y331163D01*
X844887Y331102D01*
X844841Y331062D01*
X844811Y331043D01*
X844777Y331008D01*
X844701Y330943D01*
X835571Y321813D01*
X835492Y321714D01*
X835408Y321620D01*
X835384Y321578D01*
X835354Y321540D01*
X835300Y321426D01*
X835239Y321315D01*
X835226Y321269D01*
X835205Y321225D01*
X835179Y321102D01*
X835144Y320980D01*
X835139Y320919D01*
X835132Y320885D01*
X835133Y320836D01*
X835125Y320736D01*
X835125Y319863D01*
X829487Y314225D01*
X821513Y314225D01*
X819430Y316308D01*
X819430Y316309D01*
X796369Y339370D01*
X794285Y341453D01*
X794285Y350617D01*
X794280Y350667D01*
X794282Y350718D01*
X794260Y350840D01*
X794245Y350964D01*
X794228Y351011D01*
X794219Y351061D01*
X794170Y351175D01*
X794128Y351292D01*
X794101Y351334D01*
X794080Y351380D01*
X794006Y351480D01*
X793939Y351584D01*
X793903Y351619D01*
X793873Y351660D01*
X793778Y351740D01*
X793688Y351827D01*
X793645Y351853D01*
X793607Y351885D01*
X793496Y351942D01*
X793389Y352005D01*
X793341Y352021D01*
X793296Y352044D01*
X793176Y352074D01*
X793057Y352112D01*
X793007Y352116D01*
X792958Y352128D01*
X792834Y352130D01*
X792710Y352140D01*
X792660Y352132D01*
X792610Y352133D01*
X792488Y352106D01*
X792365Y352088D01*
X792318Y352069D01*
X792269Y352059D01*
X792157Y352005D01*
X792041Y351959D01*
X792000Y351931D01*
X791954Y351909D01*
X791857Y351831D01*
X791755Y351760D01*
X791721Y351723D01*
X791682Y351692D01*
X791605Y351594D01*
X791522Y351502D01*
X791497Y351457D01*
X791466Y351418D01*
X791355Y351200D01*
X791353Y351197D01*
X791353Y351196D01*
X791232Y350904D01*
X785746Y345418D01*
X778579Y342449D01*
X770821Y342449D01*
X763654Y345418D01*
X758168Y350904D01*
X755199Y358071D01*
X755199Y365829D01*
X758168Y372996D01*
X763654Y378482D01*
X770821Y381451D01*
X778579Y381451D01*
X785746Y378482D01*
X791232Y372996D01*
X791355Y372700D01*
X791379Y372656D01*
X791396Y372608D01*
X791464Y372504D01*
X791524Y372395D01*
X791558Y372358D01*
X791585Y372316D01*
X791675Y372229D01*
X791758Y372137D01*
X791800Y372108D01*
X791836Y372073D01*
X791943Y372010D01*
X792045Y371939D01*
X792092Y371920D01*
X792135Y371895D01*
X792253Y371857D01*
X792369Y371811D01*
X792419Y371804D01*
X792467Y371788D01*
X792591Y371778D01*
X792714Y371760D01*
X792764Y371764D01*
X792814Y371760D01*
X792937Y371779D01*
X793061Y371789D01*
X793109Y371805D01*
X793159Y371812D01*
X793274Y371858D01*
X793393Y371896D01*
X793436Y371922D01*
X793483Y371941D01*
X793585Y372012D01*
X793691Y372076D01*
X793728Y372111D01*
X793769Y372140D01*
X793852Y372232D01*
X793941Y372319D01*
X793969Y372361D01*
X794002Y372398D01*
X794062Y372507D01*
X794130Y372612D01*
X794147Y372659D01*
X794171Y372703D01*
X794205Y372823D01*
X794246Y372940D01*
X794252Y372990D01*
X794266Y373039D01*
X794285Y373283D01*
X794285Y383717D01*
X812623Y402055D01*
X842187Y402055D01*
X876511Y367731D01*
X876610Y367652D01*
X876703Y367568D01*
X876746Y367544D01*
X876784Y367514D01*
X876898Y367460D01*
X877009Y367399D01*
X877055Y367386D01*
X877099Y367365D01*
X877222Y367339D01*
X877344Y367304D01*
X877405Y367299D01*
X877439Y367292D01*
X877487Y367293D01*
X877588Y367285D01*
X889727Y367285D01*
X891364Y365648D01*
X891364Y352739D01*
X891379Y352613D01*
X891385Y352487D01*
X891399Y352441D01*
X891404Y352393D01*
X891447Y352274D01*
X891482Y352152D01*
X891505Y352110D01*
X891522Y352065D01*
X891590Y351958D01*
X891652Y351848D01*
X891691Y351802D01*
X891711Y351772D01*
X891746Y351738D01*
X891811Y351662D01*
X929081Y314391D01*
X929180Y314312D01*
X929274Y314228D01*
X929317Y314204D01*
X929354Y314174D01*
X929469Y314120D01*
X929579Y314059D01*
X929626Y314046D01*
X929670Y314025D01*
X929793Y313999D01*
X929915Y313964D01*
X929976Y313959D01*
X930010Y313952D01*
X930058Y313953D01*
X930159Y313945D01*
X932804Y313945D01*
X932930Y313959D01*
X933056Y313966D01*
X933102Y313979D01*
X933150Y313985D01*
X933270Y314027D01*
X933391Y314062D01*
X933433Y314086D01*
X933479Y314102D01*
X933585Y314171D01*
X933695Y314232D01*
X933741Y314272D01*
X933771Y314291D01*
X933805Y314326D01*
X933881Y314391D01*
X934423Y314933D01*
X937557Y314933D01*
X939773Y312717D01*
X939773Y309583D01*
X937557Y307367D01*
X934423Y307367D01*
X933881Y307909D01*
X933782Y307988D01*
X933688Y308072D01*
X933646Y308096D01*
X933608Y308126D01*
X933494Y308180D01*
X933383Y308241D01*
X933337Y308254D01*
X933293Y308275D01*
X933170Y308301D01*
X933048Y308336D01*
X932987Y308341D01*
X932953Y308348D01*
X932904Y308347D01*
X932804Y308355D01*
X927212Y308355D01*
X925129Y310438D01*
X925129Y310439D01*
X885775Y349793D01*
X885775Y360172D01*
X885772Y360198D01*
X885774Y360224D01*
X885752Y360371D01*
X885735Y360518D01*
X885726Y360543D01*
X885722Y360569D01*
X885668Y360707D01*
X885618Y360846D01*
X885603Y360868D01*
X885594Y360893D01*
X885509Y361014D01*
X885429Y361139D01*
X885410Y361157D01*
X885395Y361179D01*
X885285Y361278D01*
X885178Y361381D01*
X885155Y361395D01*
X885136Y361412D01*
X885006Y361484D01*
X884879Y361560D01*
X884854Y361568D01*
X884831Y361581D01*
X884688Y361621D01*
X884547Y361666D01*
X884521Y361668D01*
X884495Y361676D01*
X884252Y361695D01*
X874641Y361695D01*
X840318Y396019D01*
X840219Y396098D01*
X840125Y396182D01*
X840082Y396206D01*
X840045Y396236D01*
X839930Y396290D01*
X839820Y396351D01*
X839773Y396364D01*
X839730Y396385D01*
X839606Y396411D01*
X839484Y396446D01*
X839424Y396451D01*
X839389Y396458D01*
X839341Y396457D01*
X839241Y396465D01*
X815569Y396465D01*
X815444Y396451D01*
X815318Y396444D01*
X815271Y396431D01*
X815223Y396425D01*
X815104Y396383D01*
X814983Y396348D01*
X814941Y396324D01*
X814895Y396308D01*
X814789Y396239D01*
X814679Y396178D01*
X814632Y396138D01*
X814602Y396119D01*
X814569Y396084D01*
X814492Y396019D01*
X800321Y381848D01*
X800242Y381749D01*
X800158Y381655D01*
X800134Y381612D01*
X800104Y381575D01*
X800050Y381460D01*
X799989Y381350D01*
X799976Y381303D01*
X799955Y381260D01*
X799929Y381136D01*
X799894Y381014D01*
X799889Y380954D01*
X799882Y380919D01*
X799883Y380871D01*
X799875Y380771D01*
X799875Y344399D01*
X799889Y344274D01*
X799896Y344148D01*
X799909Y344101D01*
X799915Y344053D01*
X799957Y343934D01*
X799992Y343813D01*
X800016Y343771D01*
X800032Y343725D01*
X800101Y343619D01*
X800162Y343509D01*
X800202Y343462D01*
X800221Y343432D01*
X800256Y343399D01*
X800321Y343322D01*
X823382Y320261D01*
X823481Y320182D01*
X823575Y320098D01*
X823618Y320074D01*
X823655Y320044D01*
X823770Y319990D01*
X823880Y319929D01*
X823927Y319916D01*
X823970Y319895D01*
X824094Y319869D01*
X824216Y319834D01*
X824276Y319829D01*
X824311Y319822D01*
X824359Y319823D01*
X824459Y319815D01*
X826541Y319815D01*
X826666Y319829D01*
X826792Y319836D01*
X826839Y319849D01*
X826887Y319855D01*
X827006Y319897D01*
X827127Y319932D01*
X827169Y319956D01*
X827215Y319972D01*
X827321Y320041D01*
X827431Y320102D01*
X827478Y320142D01*
X827508Y320161D01*
X827541Y320196D01*
X827618Y320261D01*
X829089Y321732D01*
X829168Y321831D01*
X829252Y321925D01*
X829276Y321968D01*
X829306Y322005D01*
X829360Y322120D01*
X829421Y322230D01*
X829434Y322277D01*
X829455Y322320D01*
X829481Y322444D01*
X829516Y322566D01*
X829521Y322626D01*
X829528Y322661D01*
X829527Y322709D01*
X829535Y322809D01*
X829535Y323682D01*
X831619Y325766D01*
X839642Y333789D01*
X839704Y333867D01*
X839774Y333940D01*
X839812Y334004D01*
X839858Y334062D01*
X839901Y334153D01*
X839953Y334239D01*
X839976Y334310D01*
X840007Y334377D01*
X840028Y334475D01*
X840059Y334571D01*
X840065Y334645D01*
X840081Y334718D01*
X840079Y334818D01*
X840087Y334918D01*
X840076Y334992D01*
X840075Y335066D01*
X840050Y335163D01*
X840035Y335263D01*
X840008Y335332D01*
X839990Y335404D01*
X839944Y335494D01*
X839907Y335587D01*
X839864Y335648D01*
X839830Y335714D01*
X839765Y335791D01*
X839708Y335873D01*
X839653Y335923D01*
X839604Y335979D01*
X839523Y336039D01*
X839449Y336106D01*
X839384Y336142D01*
X839324Y336187D01*
X839232Y336226D01*
X839144Y336275D01*
X839072Y336295D01*
X839004Y336325D01*
X838905Y336342D01*
X838809Y336370D01*
X838708Y336378D01*
X838661Y336386D01*
X838625Y336384D01*
X838565Y336389D01*
X833733Y336389D01*
X833607Y336375D01*
X833481Y336368D01*
X833434Y336355D01*
X833386Y336349D01*
X833267Y336307D01*
X833146Y336272D01*
X833104Y336248D01*
X833058Y336232D01*
X832952Y336163D01*
X832842Y336102D01*
X832795Y336062D01*
X832765Y336043D01*
X832732Y336008D01*
X832655Y335943D01*
X829729Y333017D01*
X829650Y332918D01*
X829566Y332824D01*
X829542Y332781D01*
X829512Y332744D01*
X829458Y332629D01*
X829397Y332519D01*
X829384Y332472D01*
X829363Y332428D01*
X829337Y332305D01*
X829302Y332183D01*
X829297Y332122D01*
X829290Y332088D01*
X829291Y332040D01*
X829283Y331939D01*
X829283Y331173D01*
X827067Y328957D01*
X823933Y328957D01*
X821717Y331173D01*
X821717Y334307D01*
X823933Y336523D01*
X824699Y336523D01*
X824825Y336537D01*
X824951Y336544D01*
X824998Y336557D01*
X825046Y336563D01*
X825165Y336605D01*
X825286Y336640D01*
X825328Y336664D01*
X825374Y336680D01*
X825480Y336749D01*
X825590Y336810D01*
X825637Y336850D01*
X825667Y336869D01*
X825700Y336904D01*
X825777Y336969D01*
X830786Y341979D01*
X859295Y341979D01*
X859388Y341989D01*
X859482Y341990D01*
X859560Y342009D01*
X859641Y342019D01*
X859729Y342050D01*
X859820Y342072D01*
X859893Y342109D01*
X859969Y342136D01*
X860048Y342187D01*
X860132Y342229D01*
X860194Y342281D01*
X860262Y342325D01*
X860327Y342393D01*
X860399Y342453D01*
X860448Y342517D01*
X860504Y342576D01*
X860552Y342656D01*
X860609Y342731D01*
X860641Y342805D01*
X860683Y342875D01*
X860712Y342964D01*
X860749Y343050D01*
X860765Y343130D01*
X860789Y343207D01*
X860797Y343300D01*
X860814Y343392D01*
X860811Y343473D01*
X860817Y343554D01*
X860803Y343647D01*
X860799Y343740D01*
X860778Y343819D01*
X860766Y343899D01*
X860731Y343986D01*
X860706Y344076D01*
X860667Y344147D01*
X860637Y344223D01*
X860583Y344300D01*
X860538Y344382D01*
X860466Y344468D01*
X860438Y344509D01*
X860415Y344530D01*
X860381Y344570D01*
X847747Y357430D01*
X847643Y357513D01*
X847545Y357602D01*
X847508Y357622D01*
X847476Y357649D01*
X847356Y357706D01*
X847240Y357771D01*
X847200Y357782D01*
X847162Y357800D01*
X847032Y357829D01*
X846904Y357866D01*
X846853Y357870D01*
X846822Y357877D01*
X846772Y357876D01*
X846660Y357885D01*
X819262Y357885D01*
X817179Y359968D01*
X817179Y359969D01*
X810005Y367142D01*
X810005Y379618D01*
X812088Y381701D01*
X812089Y381701D01*
X817461Y387073D01*
X817540Y387172D01*
X817624Y387266D01*
X817648Y387309D01*
X817678Y387346D01*
X817732Y387461D01*
X817793Y387571D01*
X817806Y387618D01*
X817827Y387662D01*
X817853Y387785D01*
X817888Y387907D01*
X817893Y387968D01*
X817900Y388002D01*
X817899Y388050D01*
X817907Y388151D01*
X817907Y388917D01*
X820123Y391133D01*
X823257Y391133D01*
X825473Y388917D01*
X825473Y385783D01*
X823257Y383567D01*
X822491Y383567D01*
X822365Y383553D01*
X822239Y383546D01*
X822192Y383533D01*
X822144Y383527D01*
X822025Y383485D01*
X821904Y383450D01*
X821862Y383426D01*
X821816Y383410D01*
X821710Y383341D01*
X821600Y383280D01*
X821553Y383240D01*
X821523Y383221D01*
X821490Y383186D01*
X821413Y383121D01*
X816041Y377749D01*
X815971Y377660D01*
X815957Y377646D01*
X815953Y377640D01*
X815878Y377556D01*
X815854Y377513D01*
X815824Y377476D01*
X815770Y377361D01*
X815709Y377251D01*
X815696Y377204D01*
X815675Y377160D01*
X815649Y377037D01*
X815614Y376915D01*
X815609Y376854D01*
X815602Y376820D01*
X815603Y376772D01*
X815595Y376671D01*
X815595Y370089D01*
X815609Y369963D01*
X815616Y369837D01*
X815629Y369790D01*
X815635Y369742D01*
X815677Y369623D01*
X815712Y369502D01*
X815736Y369460D01*
X815752Y369414D01*
X815821Y369308D01*
X815882Y369198D01*
X815922Y369152D01*
X815941Y369121D01*
X815976Y369088D01*
X816041Y369011D01*
X821131Y363921D01*
X821230Y363842D01*
X821324Y363758D01*
X821367Y363734D01*
X821404Y363704D01*
X821519Y363650D01*
X821629Y363589D01*
X821676Y363576D01*
X821720Y363555D01*
X821843Y363529D01*
X821965Y363494D01*
X822025Y363489D01*
X822060Y363482D01*
X822108Y363483D01*
X822209Y363475D01*
X846705Y363475D01*
X846824Y363488D01*
X846843Y363489D01*
X848477Y363475D01*
X848482Y363475D01*
X848490Y363475D01*
X849644Y363475D01*
X850450Y362653D01*
X850455Y362650D01*
X850460Y362644D01*
X851590Y361514D01*
X851591Y361512D01*
X851613Y361479D01*
X851646Y361447D01*
X851703Y361379D01*
X883877Y328629D01*
X883961Y328562D01*
X884038Y328488D01*
X884096Y328453D01*
X884149Y328410D01*
X884245Y328364D01*
X884337Y328309D01*
X884401Y328288D01*
X884462Y328259D01*
X884567Y328235D01*
X884669Y328203D01*
X884736Y328197D01*
X884802Y328182D01*
X884910Y328183D01*
X885016Y328175D01*
X885083Y328185D01*
X885151Y328185D01*
X885255Y328210D01*
X885361Y328226D01*
X885424Y328251D01*
X885490Y328267D01*
X885585Y328315D01*
X885685Y328355D01*
X885740Y328394D01*
X885801Y328424D01*
X885883Y328493D01*
X885971Y328554D01*
X886016Y328604D01*
X886068Y328648D01*
X886133Y328733D01*
X886204Y328813D01*
X886237Y328872D01*
X886278Y328926D01*
X886321Y329024D01*
X886373Y329118D01*
X886391Y329183D01*
X886419Y329245D01*
X886438Y329350D01*
X886468Y329453D01*
X886475Y329542D01*
X886483Y329587D01*
X886482Y329627D01*
X886487Y329697D01*
X886487Y331767D01*
X888703Y333983D01*
X891837Y333983D01*
X894053Y331767D01*
X894053Y328633D01*
X893511Y328091D01*
X893432Y327992D01*
X893348Y327898D01*
X893324Y327856D01*
X893294Y327818D01*
X893240Y327704D01*
X893179Y327593D01*
X893166Y327547D01*
X893145Y327503D01*
X893119Y327380D01*
X893084Y327258D01*
X893079Y327197D01*
X893072Y327162D01*
X893073Y327114D01*
X893065Y327014D01*
X893065Y326909D01*
X893079Y326783D01*
X893086Y326657D01*
X893099Y326610D01*
X893105Y326562D01*
X893147Y326443D01*
X893182Y326322D01*
X893206Y326280D01*
X893222Y326234D01*
X893291Y326128D01*
X893352Y326018D01*
X893392Y325971D01*
X893411Y325941D01*
X893446Y325908D01*
X893511Y325831D01*
X935038Y284304D01*
X935038Y262075D01*
X935053Y261949D01*
X935059Y261823D01*
X935073Y261777D01*
X935078Y261729D01*
X935121Y261610D01*
X935156Y261488D01*
X935179Y261446D01*
X935196Y261401D01*
X935264Y261295D01*
X935326Y261184D01*
X935365Y261138D01*
X935385Y261108D01*
X935419Y261074D01*
X935484Y260998D01*
X955295Y241188D01*
X955295Y92822D01*
X934913Y72441D01*
X934834Y72342D01*
X934750Y72248D01*
X934726Y72205D01*
X934696Y72168D01*
X934642Y72053D01*
X934581Y71943D01*
X934568Y71896D01*
X934547Y71852D01*
X934521Y71729D01*
X934486Y71607D01*
X934481Y71546D01*
X934474Y71512D01*
X934475Y71464D01*
X934467Y71363D01*
X934467Y68598D01*
X934470Y68571D01*
X934468Y68545D01*
X934490Y68399D01*
X934507Y68251D01*
X934515Y68227D01*
X934519Y68201D01*
X934574Y68063D01*
X934624Y67923D01*
X934638Y67901D01*
X934648Y67877D01*
X934733Y67755D01*
X934813Y67630D01*
X934832Y67612D01*
X934847Y67591D01*
X934957Y67492D01*
X935064Y67388D01*
X935086Y67375D01*
X935106Y67357D01*
X935236Y67285D01*
X935363Y67209D01*
X935388Y67201D01*
X935411Y67189D01*
X935554Y67148D01*
X935695Y67103D01*
X935721Y67101D01*
X935746Y67094D01*
X935990Y67074D01*
X947788Y67074D01*
X949425Y65437D01*
X949425Y53163D01*
X943787Y47525D01*
X938569Y47525D01*
X938443Y47511D01*
X938317Y47504D01*
X938270Y47491D01*
X938222Y47485D01*
X938103Y47443D01*
X937982Y47408D01*
X937940Y47384D01*
X937894Y47368D01*
X937788Y47299D01*
X937678Y47238D01*
X937631Y47198D01*
X937601Y47179D01*
X937568Y47144D01*
X937491Y47079D01*
X921908Y31495D01*
X821066Y31495D01*
X820940Y31481D01*
X820814Y31474D01*
X820768Y31461D01*
X820720Y31455D01*
X820601Y31413D01*
X820479Y31378D01*
X820437Y31354D01*
X820392Y31338D01*
X820285Y31269D01*
X820175Y31208D01*
X820129Y31168D01*
X820099Y31149D01*
X820065Y31114D01*
X819989Y31049D01*
X819447Y30507D01*
X816313Y30507D01*
X814097Y32723D01*
X814097Y35857D01*
X816313Y38073D01*
X819447Y38073D01*
X819989Y37531D01*
X820088Y37452D01*
X820182Y37368D01*
X820224Y37344D01*
X820262Y37314D01*
X820376Y37260D01*
X820487Y37199D01*
X820533Y37186D01*
X820577Y37165D01*
X820700Y37139D01*
X820822Y37104D01*
X820883Y37099D01*
X820918Y37092D01*
X820966Y37093D01*
X821066Y37085D01*
X918961Y37085D01*
X919087Y37099D01*
X919213Y37106D01*
X919260Y37119D01*
X919308Y37125D01*
X919427Y37167D01*
X919548Y37202D01*
X919590Y37226D01*
X919636Y37242D01*
X919742Y37311D01*
X919852Y37372D01*
X919898Y37412D01*
X919929Y37431D01*
X919962Y37466D01*
X920039Y37531D01*
X927433Y44925D01*
X927495Y45003D01*
X927565Y45076D01*
X927603Y45140D01*
X927649Y45198D01*
X927692Y45289D01*
X927744Y45375D01*
X927766Y45446D01*
X927798Y45513D01*
X927819Y45611D01*
X927850Y45707D01*
X927856Y45781D01*
X927871Y45854D01*
X927870Y45954D01*
X927878Y46054D01*
X927867Y46128D01*
X927866Y46202D01*
X927841Y46299D01*
X927826Y46399D01*
X927799Y46468D01*
X927781Y46540D01*
X927734Y46630D01*
X927697Y46723D01*
X927655Y46784D01*
X927621Y46850D01*
X927556Y46927D01*
X927498Y47009D01*
X927443Y47059D01*
X927395Y47115D01*
X927314Y47175D01*
X927240Y47242D01*
X927175Y47278D01*
X927115Y47323D01*
X927023Y47362D01*
X926935Y47411D01*
X926863Y47431D01*
X926795Y47461D01*
X926696Y47478D01*
X926599Y47506D01*
X926499Y47514D01*
X926452Y47522D01*
X926416Y47520D01*
X926355Y47525D01*
X920956Y47525D01*
X916685Y51796D01*
X916685Y62118D01*
X918779Y64211D01*
X918858Y64310D01*
X918942Y64404D01*
X918966Y64447D01*
X918996Y64484D01*
X919050Y64599D01*
X919111Y64709D01*
X919124Y64756D01*
X919145Y64800D01*
X919171Y64923D01*
X919206Y65045D01*
X919211Y65106D01*
X919218Y65140D01*
X919217Y65188D01*
X919225Y65289D01*
X919225Y78628D01*
X939099Y98501D01*
X939178Y98600D01*
X939262Y98694D01*
X939286Y98737D01*
X939316Y98774D01*
X939370Y98889D01*
X939431Y98999D01*
X939444Y99046D01*
X939465Y99090D01*
X939491Y99213D01*
X939526Y99335D01*
X939531Y99396D01*
X939538Y99430D01*
X939537Y99478D01*
X939545Y99579D01*
X939545Y235701D01*
X939531Y235827D01*
X939524Y235953D01*
X939511Y236000D01*
X939505Y236048D01*
X939463Y236167D01*
X939428Y236288D01*
X939404Y236330D01*
X939388Y236376D01*
X939319Y236482D01*
X939258Y236592D01*
X939218Y236638D01*
X939199Y236669D01*
X939164Y236702D01*
X939099Y236779D01*
X922509Y253369D01*
X922431Y253431D01*
X922358Y253501D01*
X922294Y253539D01*
X922236Y253585D01*
X922145Y253628D01*
X922059Y253680D01*
X921988Y253702D01*
X921921Y253734D01*
X921823Y253755D01*
X921727Y253786D01*
X921653Y253792D01*
X921580Y253807D01*
X921480Y253806D01*
X921380Y253814D01*
X921306Y253803D01*
X921232Y253802D01*
X921135Y253777D01*
X921035Y253762D01*
X920966Y253735D01*
X920894Y253717D01*
X920804Y253670D01*
X920711Y253633D01*
X920650Y253591D01*
X920584Y253557D01*
X920507Y253492D01*
X920425Y253434D01*
X920375Y253379D01*
X920319Y253331D01*
X920259Y253250D01*
X920192Y253176D01*
X920156Y253111D01*
X920111Y253051D01*
X920072Y252959D01*
X920023Y252871D01*
X920003Y252799D01*
X919973Y252731D01*
X919956Y252632D01*
X919928Y252535D01*
X919920Y252435D01*
X919912Y252388D01*
X919914Y252352D01*
X919909Y252291D01*
X919909Y223632D01*
X918272Y221995D01*
X779018Y221995D01*
X778992Y221992D01*
X778966Y221994D01*
X778819Y221972D01*
X778672Y221955D01*
X778647Y221947D01*
X778621Y221943D01*
X778483Y221888D01*
X778344Y221838D01*
X778322Y221824D01*
X778297Y221814D01*
X778176Y221729D01*
X778051Y221649D01*
X778033Y221630D01*
X778011Y221615D01*
X777912Y221505D01*
X777809Y221398D01*
X777795Y221376D01*
X777778Y221356D01*
X777706Y221226D01*
X777630Y221099D01*
X777622Y221074D01*
X777609Y221051D01*
X777569Y220908D01*
X777524Y220767D01*
X777522Y220741D01*
X777514Y220716D01*
X777495Y220472D01*
X777495Y174636D01*
X777509Y174510D01*
X777516Y174384D01*
X777529Y174338D01*
X777535Y174290D01*
X777577Y174171D01*
X777612Y174049D01*
X777636Y174007D01*
X777652Y173962D01*
X777721Y173855D01*
X777782Y173745D01*
X777822Y173699D01*
X777841Y173669D01*
X777876Y173635D01*
X777941Y173559D01*
X778483Y173017D01*
X778483Y169883D01*
X776267Y167667D01*
X773133Y167667D01*
X772067Y168733D01*
X771968Y168812D01*
X771874Y168896D01*
X771832Y168920D01*
X771794Y168950D01*
X771680Y169004D01*
X771569Y169065D01*
X771523Y169078D01*
X771479Y169099D01*
X771356Y169125D01*
X771234Y169160D01*
X771173Y169165D01*
X771138Y169172D01*
X771090Y169171D01*
X770990Y169179D01*
X734044Y169179D01*
X734018Y169176D01*
X733992Y169178D01*
X733845Y169156D01*
X733698Y169139D01*
X733673Y169131D01*
X733647Y169127D01*
X733509Y169072D01*
X733370Y169022D01*
X733348Y169008D01*
X733323Y168998D01*
X733202Y168913D01*
X733077Y168833D01*
X733059Y168814D01*
X733037Y168799D01*
X732938Y168689D01*
X732835Y168582D01*
X732821Y168560D01*
X732804Y168540D01*
X732732Y168410D01*
X732656Y168283D01*
X732648Y168258D01*
X732635Y168235D01*
X732595Y168092D01*
X732550Y167951D01*
X732548Y167925D01*
X732540Y167900D01*
X732521Y167656D01*
X732521Y123174D01*
X732524Y123148D01*
X732522Y123122D01*
X732544Y122975D01*
X732561Y122828D01*
X732569Y122803D01*
X732573Y122777D01*
X732628Y122639D01*
X732678Y122500D01*
X732692Y122478D01*
X732702Y122453D01*
X732787Y122332D01*
X732867Y122207D01*
X732886Y122189D01*
X732901Y122167D01*
X733011Y122068D01*
X733118Y121965D01*
X733140Y121951D01*
X733160Y121934D01*
X733290Y121862D01*
X733417Y121786D01*
X733442Y121778D01*
X733465Y121765D01*
X733608Y121725D01*
X733749Y121680D01*
X733775Y121678D01*
X733800Y121670D01*
X734044Y121651D01*
X752781Y121651D01*
X754111Y120321D01*
X754111Y112930D01*
X754125Y112804D01*
X754132Y112678D01*
X754145Y112632D01*
X754151Y112584D01*
X754193Y112465D01*
X754228Y112343D01*
X754252Y112301D01*
X754268Y112256D01*
X754337Y112149D01*
X754398Y112039D01*
X754438Y111993D01*
X754457Y111963D01*
X754492Y111929D01*
X754557Y111853D01*
X755623Y110787D01*
X755623Y107653D01*
X753407Y105437D01*
X750273Y105437D01*
X748057Y107653D01*
X748057Y110787D01*
X749123Y111853D01*
X749202Y111952D01*
X749286Y112046D01*
X749310Y112088D01*
X749340Y112126D01*
X749394Y112240D01*
X749455Y112351D01*
X749468Y112397D01*
X749489Y112441D01*
X749515Y112564D01*
X749550Y112686D01*
X749555Y112747D01*
X749562Y112782D01*
X749561Y112830D01*
X749569Y112930D01*
X749569Y115586D01*
X749566Y115612D01*
X749568Y115638D01*
X749546Y115785D01*
X749529Y115932D01*
X749521Y115957D01*
X749517Y115983D01*
X749462Y116121D01*
X749412Y116260D01*
X749398Y116282D01*
X749388Y116307D01*
X749303Y116428D01*
X749223Y116553D01*
X749204Y116571D01*
X749189Y116593D01*
X749079Y116692D01*
X748972Y116795D01*
X748950Y116809D01*
X748930Y116826D01*
X748800Y116898D01*
X748673Y116974D01*
X748648Y116982D01*
X748625Y116995D01*
X748482Y117035D01*
X748341Y117080D01*
X748315Y117082D01*
X748290Y117090D01*
X748046Y117109D01*
X729309Y117109D01*
X727979Y118439D01*
X727979Y228700D01*
X727965Y228826D01*
X727958Y228952D01*
X727945Y228998D01*
X727939Y229046D01*
X727897Y229165D01*
X727862Y229287D01*
X727838Y229329D01*
X727822Y229374D01*
X727753Y229481D01*
X727692Y229591D01*
X727652Y229637D01*
X727633Y229667D01*
X727598Y229701D01*
X727533Y229777D01*
X726467Y230843D01*
X726467Y234220D01*
X726464Y234246D01*
X726466Y234272D01*
X726444Y234419D01*
X726427Y234566D01*
X726419Y234591D01*
X726415Y234617D01*
X726360Y234755D01*
X726310Y234894D01*
X726296Y234916D01*
X726286Y234941D01*
X726201Y235062D01*
X726121Y235187D01*
X726102Y235205D01*
X726087Y235227D01*
X725977Y235326D01*
X725870Y235429D01*
X725848Y235443D01*
X725828Y235460D01*
X725698Y235532D01*
X725571Y235608D01*
X725546Y235616D01*
X725523Y235629D01*
X725380Y235669D01*
X725239Y235714D01*
X725213Y235716D01*
X725188Y235724D01*
X724944Y235743D01*
X457062Y235743D01*
X397747Y295058D01*
X397747Y322354D01*
X397744Y322380D01*
X397746Y322406D01*
X397724Y322553D01*
X397707Y322700D01*
X397699Y322725D01*
X397695Y322751D01*
X397640Y322889D01*
X397590Y323028D01*
X397576Y323050D01*
X397566Y323075D01*
X397481Y323196D01*
X397401Y323321D01*
X397382Y323339D01*
X397367Y323361D01*
X397257Y323460D01*
X397150Y323563D01*
X397128Y323577D01*
X397108Y323594D01*
X396978Y323666D01*
X396851Y323742D01*
X396826Y323750D01*
X396803Y323763D01*
X396660Y323803D01*
X396519Y323848D01*
X396493Y323850D01*
X396468Y323858D01*
X396224Y323877D01*
X394673Y323877D01*
X392457Y326093D01*
X392457Y329227D01*
X394673Y331443D01*
X397807Y331443D01*
X397941Y331309D01*
X398019Y331246D01*
X398092Y331176D01*
X398156Y331138D01*
X398214Y331092D01*
X398305Y331049D01*
X398391Y330998D01*
X398462Y330975D01*
X398529Y330943D01*
X398627Y330922D01*
X398723Y330891D01*
X398797Y330885D01*
X398870Y330870D01*
X398970Y330871D01*
X399070Y330863D01*
X399144Y330874D01*
X399218Y330876D01*
X399315Y330900D01*
X399415Y330915D01*
X399484Y330943D01*
X399556Y330961D01*
X399645Y331007D01*
X399739Y331044D01*
X399800Y331086D01*
X399866Y331120D01*
X399943Y331186D01*
X400025Y331243D01*
X400075Y331298D01*
X400131Y331346D01*
X400191Y331427D01*
X400258Y331502D01*
X400294Y331567D01*
X400339Y331626D01*
X400378Y331719D01*
X400427Y331807D01*
X400447Y331878D01*
X400477Y331946D01*
X400494Y332045D01*
X400522Y332142D01*
X400530Y332242D01*
X400538Y332289D01*
X400536Y332325D01*
X400541Y332386D01*
X400541Y357108D01*
X400538Y357134D01*
X400540Y357160D01*
X400518Y357307D01*
X400501Y357454D01*
X400493Y357479D01*
X400489Y357505D01*
X400434Y357643D01*
X400384Y357782D01*
X400370Y357804D01*
X400360Y357829D01*
X400275Y357950D01*
X400195Y358075D01*
X400176Y358093D01*
X400161Y358115D01*
X400051Y358214D01*
X399944Y358317D01*
X399922Y358331D01*
X399902Y358348D01*
X399772Y358420D01*
X399645Y358496D01*
X399620Y358504D01*
X399597Y358517D01*
X399454Y358557D01*
X399313Y358602D01*
X399287Y358604D01*
X399262Y358612D01*
X399018Y358631D01*
X389114Y358631D01*
X389014Y358620D01*
X388914Y358618D01*
X388842Y358600D01*
X388768Y358591D01*
X388673Y358558D01*
X388576Y358533D01*
X388510Y358499D01*
X388440Y358474D01*
X388355Y358419D01*
X388266Y358373D01*
X388209Y358325D01*
X388147Y358285D01*
X388077Y358213D01*
X388001Y358148D01*
X387956Y358088D01*
X387905Y358034D01*
X387853Y357948D01*
X387793Y357867D01*
X387764Y357799D01*
X387726Y357735D01*
X387695Y357639D01*
X387655Y357547D01*
X387642Y357474D01*
X387620Y357403D01*
X387612Y357303D01*
X387594Y357204D01*
X387598Y357130D01*
X387592Y357056D01*
X387607Y356956D01*
X387612Y356856D01*
X387632Y356785D01*
X387643Y356711D01*
X387680Y356618D01*
X387708Y356521D01*
X387745Y356456D01*
X387772Y356387D01*
X387829Y356305D01*
X387878Y356217D01*
X387944Y356141D01*
X387971Y356101D01*
X387997Y356077D01*
X388037Y356031D01*
X391669Y352399D01*
X391669Y350519D01*
X382016Y350519D01*
X381990Y350516D01*
X381964Y350518D01*
X381817Y350496D01*
X381670Y350479D01*
X381645Y350471D01*
X381619Y350467D01*
X381482Y350412D01*
X381342Y350362D01*
X381320Y350348D01*
X381295Y350338D01*
X381174Y350253D01*
X381049Y350173D01*
X381031Y350154D01*
X381009Y350139D01*
X380995Y350123D01*
X380910Y350205D01*
X380887Y350219D01*
X380868Y350236D01*
X380738Y350308D01*
X380611Y350384D01*
X380586Y350392D01*
X380563Y350405D01*
X380420Y350445D01*
X380279Y350490D01*
X380253Y350492D01*
X380228Y350500D01*
X379984Y350519D01*
X370331Y350519D01*
X370331Y352399D01*
X373963Y356031D01*
X374025Y356109D01*
X374095Y356182D01*
X374134Y356246D01*
X374180Y356304D01*
X374223Y356395D01*
X374274Y356481D01*
X374297Y356552D01*
X374329Y356619D01*
X374350Y356717D01*
X374380Y356813D01*
X374386Y356887D01*
X374402Y356960D01*
X374400Y357060D01*
X374408Y357160D01*
X374397Y357234D01*
X374396Y357308D01*
X374372Y357405D01*
X374357Y357505D01*
X374329Y357574D01*
X374311Y357646D01*
X374265Y357736D01*
X374228Y357829D01*
X374186Y357890D01*
X374151Y357956D01*
X374086Y358033D01*
X374029Y358115D01*
X373974Y358165D01*
X373926Y358221D01*
X373845Y358281D01*
X373770Y358348D01*
X373705Y358384D01*
X373645Y358429D01*
X373553Y358468D01*
X373465Y358517D01*
X373394Y358537D01*
X373325Y358567D01*
X373226Y358584D01*
X373130Y358612D01*
X373030Y358620D01*
X372982Y358628D01*
X372947Y358626D01*
X372886Y358631D01*
X363714Y358631D01*
X363614Y358620D01*
X363514Y358618D01*
X363442Y358600D01*
X363368Y358591D01*
X363273Y358558D01*
X363176Y358533D01*
X363110Y358499D01*
X363040Y358474D01*
X362955Y358419D01*
X362866Y358373D01*
X362809Y358325D01*
X362747Y358285D01*
X362677Y358213D01*
X362601Y358148D01*
X362556Y358088D01*
X362505Y358034D01*
X362453Y357948D01*
X362393Y357867D01*
X362364Y357799D01*
X362326Y357735D01*
X362295Y357639D01*
X362255Y357547D01*
X362242Y357474D01*
X362220Y357403D01*
X362212Y357303D01*
X362194Y357204D01*
X362198Y357130D01*
X362192Y357056D01*
X362207Y356956D01*
X362212Y356856D01*
X362232Y356785D01*
X362243Y356711D01*
X362280Y356618D01*
X362308Y356521D01*
X362345Y356456D01*
X362372Y356387D01*
X362429Y356305D01*
X362478Y356217D01*
X362544Y356141D01*
X362571Y356101D01*
X362597Y356077D01*
X362637Y356031D01*
X366269Y352399D01*
X366269Y350519D01*
X356616Y350519D01*
X356590Y350516D01*
X356564Y350518D01*
X356417Y350496D01*
X356270Y350479D01*
X356245Y350471D01*
X356219Y350467D01*
X356082Y350412D01*
X355942Y350362D01*
X355920Y350348D01*
X355895Y350338D01*
X355774Y350253D01*
X355649Y350173D01*
X355631Y350154D01*
X355609Y350139D01*
X355595Y350123D01*
X355510Y350205D01*
X355487Y350219D01*
X355468Y350236D01*
X355338Y350308D01*
X355211Y350384D01*
X355186Y350392D01*
X355163Y350405D01*
X355020Y350445D01*
X354879Y350490D01*
X354853Y350492D01*
X354828Y350500D01*
X354584Y350519D01*
X344931Y350519D01*
X344931Y352399D01*
X348563Y356031D01*
X348625Y356109D01*
X348695Y356182D01*
X348734Y356246D01*
X348780Y356304D01*
X348823Y356395D01*
X348874Y356481D01*
X348897Y356552D01*
X348929Y356619D01*
X348950Y356717D01*
X348980Y356813D01*
X348986Y356887D01*
X349002Y356960D01*
X349000Y357060D01*
X349008Y357160D01*
X348997Y357234D01*
X348996Y357308D01*
X348972Y357405D01*
X348957Y357505D01*
X348929Y357574D01*
X348911Y357646D01*
X348865Y357736D01*
X348828Y357829D01*
X348786Y357890D01*
X348751Y357956D01*
X348686Y358033D01*
X348629Y358115D01*
X348574Y358165D01*
X348526Y358221D01*
X348445Y358281D01*
X348370Y358348D01*
X348305Y358384D01*
X348267Y358413D01*
X346412Y360268D01*
X346411Y360268D01*
X340851Y365828D01*
X340851Y367062D01*
X340840Y367162D01*
X340838Y367262D01*
X340820Y367334D01*
X340811Y367408D01*
X340778Y367503D01*
X340753Y367600D01*
X340719Y367666D01*
X340694Y367736D01*
X340639Y367821D01*
X340593Y367910D01*
X340545Y367967D01*
X340505Y368029D01*
X340433Y368099D01*
X340368Y368175D01*
X340308Y368220D01*
X340254Y368271D01*
X340168Y368323D01*
X340087Y368383D01*
X340019Y368412D01*
X339955Y368450D01*
X339859Y368481D01*
X339767Y368521D01*
X339694Y368534D01*
X339623Y368556D01*
X339523Y368564D01*
X339424Y368582D01*
X339350Y368578D01*
X339276Y368584D01*
X339176Y368569D01*
X339076Y368564D01*
X339005Y368544D01*
X338931Y368533D01*
X338838Y368496D01*
X338741Y368468D01*
X338676Y368431D01*
X338607Y368404D01*
X338525Y368347D01*
X338437Y368298D01*
X338361Y368233D01*
X338321Y368205D01*
X338297Y368179D01*
X338251Y368139D01*
X334093Y363981D01*
X326307Y363981D01*
X320801Y369487D01*
X320801Y373860D01*
X320790Y373959D01*
X320788Y374060D01*
X320770Y374132D01*
X320761Y374206D01*
X320728Y374300D01*
X320703Y374398D01*
X320669Y374464D01*
X320644Y374534D01*
X320589Y374618D01*
X320543Y374708D01*
X320495Y374764D01*
X320455Y374827D01*
X320383Y374896D01*
X320318Y374973D01*
X320258Y375017D01*
X320204Y375069D01*
X320118Y375120D01*
X320037Y375180D01*
X319969Y375210D01*
X319905Y375248D01*
X319809Y375278D01*
X319717Y375318D01*
X319644Y375331D01*
X319573Y375354D01*
X319473Y375362D01*
X319374Y375380D01*
X319300Y375376D01*
X319226Y375382D01*
X319126Y375367D01*
X319026Y375362D01*
X318955Y375341D01*
X318881Y375330D01*
X318788Y375293D01*
X318691Y375265D01*
X318626Y375229D01*
X318557Y375201D01*
X318475Y375144D01*
X318387Y375095D01*
X318311Y375030D01*
X318271Y375003D01*
X318247Y374976D01*
X318201Y374937D01*
X314645Y371381D01*
X314566Y371282D01*
X314482Y371188D01*
X314458Y371145D01*
X314428Y371108D01*
X314374Y370993D01*
X314313Y370883D01*
X314300Y370836D01*
X314279Y370792D01*
X314253Y370669D01*
X314218Y370547D01*
X314213Y370487D01*
X314206Y370452D01*
X314207Y370404D01*
X314199Y370303D01*
X314199Y369487D01*
X308693Y363981D01*
X300907Y363981D01*
X295401Y369487D01*
X295401Y377273D01*
X300907Y382779D01*
X308693Y382779D01*
X313596Y377876D01*
X313616Y377860D01*
X313633Y377840D01*
X313753Y377751D01*
X313869Y377659D01*
X313892Y377648D01*
X313914Y377633D01*
X314050Y377574D01*
X314184Y377510D01*
X314210Y377505D01*
X314234Y377495D01*
X314380Y377468D01*
X314525Y377437D01*
X314551Y377437D01*
X314577Y377433D01*
X314725Y377440D01*
X314873Y377443D01*
X314899Y377449D01*
X314925Y377451D01*
X315067Y377492D01*
X315211Y377528D01*
X315234Y377540D01*
X315260Y377547D01*
X315389Y377620D01*
X315521Y377688D01*
X315541Y377705D01*
X315564Y377717D01*
X315750Y377876D01*
X324574Y386700D01*
X335826Y386700D01*
X343100Y379426D01*
X343199Y379347D01*
X343293Y379262D01*
X343335Y379239D01*
X343373Y379209D01*
X343487Y379155D01*
X343598Y379094D01*
X343617Y379089D01*
X344740Y377966D01*
X344760Y377949D01*
X344777Y377929D01*
X344897Y377841D01*
X345013Y377749D01*
X345036Y377738D01*
X345058Y377722D01*
X345194Y377664D01*
X345328Y377600D01*
X345354Y377595D01*
X345378Y377584D01*
X345524Y377558D01*
X345669Y377527D01*
X345695Y377527D01*
X345721Y377523D01*
X345869Y377530D01*
X346017Y377533D01*
X346042Y377539D01*
X346069Y377541D01*
X346211Y377582D01*
X346355Y377618D01*
X346378Y377630D01*
X346404Y377637D01*
X346533Y377710D01*
X346665Y377777D01*
X346685Y377794D01*
X346708Y377807D01*
X346894Y377966D01*
X351707Y382779D01*
X359493Y382779D01*
X364999Y377273D01*
X364999Y369487D01*
X360809Y365297D01*
X360747Y365219D01*
X360677Y365146D01*
X360638Y365082D01*
X360592Y365024D01*
X360549Y364933D01*
X360498Y364847D01*
X360475Y364776D01*
X360443Y364709D01*
X360422Y364611D01*
X360392Y364515D01*
X360386Y364441D01*
X360370Y364368D01*
X360372Y364268D01*
X360364Y364168D01*
X360375Y364094D01*
X360376Y364020D01*
X360400Y363923D01*
X360415Y363823D01*
X360443Y363754D01*
X360461Y363682D01*
X360507Y363592D01*
X360544Y363499D01*
X360586Y363438D01*
X360621Y363372D01*
X360686Y363295D01*
X360743Y363213D01*
X360798Y363163D01*
X360846Y363107D01*
X360927Y363047D01*
X361002Y362980D01*
X361067Y362944D01*
X361127Y362899D01*
X361219Y362860D01*
X361307Y362811D01*
X361378Y362791D01*
X361447Y362761D01*
X361545Y362744D01*
X361642Y362716D01*
X361742Y362708D01*
X361790Y362700D01*
X361825Y362702D01*
X361886Y362697D01*
X374714Y362697D01*
X374814Y362708D01*
X374914Y362710D01*
X374986Y362728D01*
X375060Y362737D01*
X375155Y362770D01*
X375252Y362795D01*
X375318Y362829D01*
X375388Y362854D01*
X375473Y362909D01*
X375562Y362955D01*
X375619Y363003D01*
X375681Y363043D01*
X375751Y363115D01*
X375827Y363180D01*
X375872Y363240D01*
X375923Y363294D01*
X375975Y363380D01*
X376035Y363461D01*
X376064Y363529D01*
X376102Y363593D01*
X376133Y363689D01*
X376173Y363781D01*
X376186Y363854D01*
X376208Y363925D01*
X376216Y364025D01*
X376234Y364124D01*
X376230Y364198D01*
X376236Y364272D01*
X376221Y364372D01*
X376216Y364472D01*
X376196Y364543D01*
X376185Y364617D01*
X376148Y364710D01*
X376120Y364807D01*
X376083Y364872D01*
X376056Y364941D01*
X375999Y365023D01*
X375950Y365111D01*
X375885Y365187D01*
X375857Y365227D01*
X375831Y365251D01*
X375791Y365297D01*
X371601Y369487D01*
X371601Y377273D01*
X372933Y378605D01*
X373012Y378704D01*
X373096Y378798D01*
X373120Y378840D01*
X373150Y378878D01*
X373204Y378992D01*
X373265Y379103D01*
X373278Y379149D01*
X373299Y379193D01*
X373325Y379316D01*
X373360Y379438D01*
X373365Y379499D01*
X373372Y379534D01*
X373371Y379582D01*
X373379Y379682D01*
X373379Y399516D01*
X373376Y399542D01*
X373378Y399568D01*
X373356Y399715D01*
X373339Y399862D01*
X373331Y399887D01*
X373327Y399913D01*
X373272Y400051D01*
X373222Y400190D01*
X373208Y400212D01*
X373198Y400237D01*
X373113Y400358D01*
X373033Y400483D01*
X373014Y400501D01*
X372999Y400523D01*
X372889Y400622D01*
X372782Y400725D01*
X372760Y400739D01*
X372740Y400756D01*
X372610Y400828D01*
X372483Y400904D01*
X372458Y400912D01*
X372435Y400925D01*
X372292Y400965D01*
X372151Y401010D01*
X372125Y401012D01*
X372100Y401020D01*
X371856Y401039D01*
X281122Y401039D01*
X281099Y401037D01*
X281076Y401039D01*
X280926Y401017D01*
X280776Y400999D01*
X280754Y400992D01*
X280731Y400988D01*
X280590Y400933D01*
X280448Y400882D01*
X280428Y400869D01*
X280406Y400861D01*
X280282Y400775D01*
X280155Y400693D01*
X280139Y400676D01*
X280120Y400663D01*
X280018Y400551D01*
X279913Y400442D01*
X279901Y400422D01*
X279885Y400405D01*
X279811Y400273D01*
X279734Y400143D01*
X279727Y400121D01*
X279715Y400101D01*
X279674Y399955D01*
X279628Y399811D01*
X279626Y399788D01*
X279619Y399766D01*
X279599Y399522D01*
X279058Y260335D01*
X279058Y260332D01*
X279058Y260329D01*
X279058Y258819D01*
X278473Y257422D01*
X278472Y257420D01*
X278471Y257416D01*
X277892Y256019D01*
X276819Y254954D01*
X276817Y254952D01*
X276815Y254950D01*
X275743Y253879D01*
X274341Y253304D01*
X274339Y253303D01*
X274336Y253302D01*
X272939Y252723D01*
X271423Y252729D01*
X271421Y252729D01*
X271418Y252729D01*
X221148Y252729D01*
X221048Y252718D01*
X220948Y252716D01*
X220876Y252698D01*
X220802Y252689D01*
X220707Y252656D01*
X220610Y252631D01*
X220544Y252597D01*
X220474Y252572D01*
X220389Y252517D01*
X220300Y252471D01*
X220243Y252423D01*
X220181Y252383D01*
X220111Y252311D01*
X220035Y252246D01*
X219990Y252186D01*
X219939Y252132D01*
X219887Y252046D01*
X219827Y251965D01*
X219798Y251897D01*
X219760Y251833D01*
X219729Y251737D01*
X219689Y251645D01*
X219676Y251572D01*
X219654Y251501D01*
X219646Y251401D01*
X219628Y251302D01*
X219632Y251228D01*
X219626Y251154D01*
X219641Y251054D01*
X219646Y250954D01*
X219666Y250883D01*
X219677Y250809D01*
X219714Y250716D01*
X219742Y250619D01*
X219779Y250554D01*
X219806Y250485D01*
X219863Y250403D01*
X219912Y250315D01*
X219978Y250239D01*
X220005Y250199D01*
X220031Y250175D01*
X220071Y250129D01*
X303862Y166338D01*
X303979Y166245D01*
X304094Y166148D01*
X304116Y166136D01*
X304135Y166121D01*
X304270Y166057D01*
X304404Y165989D01*
X304428Y165983D01*
X304450Y165973D01*
X304597Y165941D01*
X304743Y165905D01*
X304767Y165904D01*
X304791Y165899D01*
X304940Y165902D01*
X305091Y165900D01*
X305115Y165905D01*
X305139Y165905D01*
X305285Y165942D01*
X305432Y165974D01*
X305453Y165984D01*
X305477Y165990D01*
X305611Y166059D01*
X305746Y166124D01*
X305765Y166139D01*
X305787Y166150D01*
X305901Y166247D01*
X306019Y166341D01*
X306034Y166360D01*
X306052Y166376D01*
X306142Y166497D01*
X306235Y166615D01*
X306248Y166641D01*
X306259Y166656D01*
X306278Y166699D01*
X306346Y166832D01*
X306992Y168392D01*
X309636Y171036D01*
X313091Y172467D01*
X316829Y172467D01*
X320284Y171036D01*
X322928Y168392D01*
X324359Y164937D01*
X324359Y144943D01*
X323967Y143996D01*
X323966Y143994D01*
X323965Y143992D01*
X323917Y143820D01*
X323871Y143661D01*
X323871Y143659D01*
X323870Y143657D01*
X323851Y143413D01*
X323851Y95504D01*
X323854Y95478D01*
X323852Y95452D01*
X323874Y95305D01*
X323891Y95158D01*
X323899Y95133D01*
X323903Y95107D01*
X323958Y94969D01*
X324008Y94830D01*
X324022Y94808D01*
X324032Y94783D01*
X324117Y94662D01*
X324197Y94537D01*
X324216Y94519D01*
X324231Y94497D01*
X324341Y94398D01*
X324448Y94295D01*
X324470Y94281D01*
X324490Y94264D01*
X324620Y94192D01*
X324747Y94116D01*
X324772Y94108D01*
X324795Y94095D01*
X324938Y94055D01*
X325079Y94010D01*
X325105Y94008D01*
X325130Y94000D01*
X325374Y93981D01*
X525526Y93981D01*
X525552Y93984D01*
X525578Y93982D01*
X525725Y94004D01*
X525872Y94021D01*
X525897Y94029D01*
X525923Y94033D01*
X526061Y94088D01*
X526200Y94138D01*
X526222Y94152D01*
X526247Y94162D01*
X526368Y94247D01*
X526493Y94327D01*
X526511Y94346D01*
X526533Y94361D01*
X526632Y94471D01*
X526735Y94578D01*
X526749Y94600D01*
X526766Y94620D01*
X526838Y94750D01*
X526914Y94877D01*
X526922Y94902D01*
X526935Y94925D01*
X526975Y95068D01*
X527020Y95209D01*
X527022Y95235D01*
X527030Y95260D01*
X527049Y95504D01*
X527049Y140510D01*
X527035Y140636D01*
X527028Y140762D01*
X527015Y140808D01*
X527009Y140856D01*
X526967Y140975D01*
X526932Y141097D01*
X526908Y141139D01*
X526892Y141184D01*
X526823Y141291D01*
X526762Y141401D01*
X526722Y141447D01*
X526714Y141460D01*
X525271Y144943D01*
X525271Y164937D01*
X526702Y168392D01*
X527413Y169103D01*
X527476Y169182D01*
X527545Y169254D01*
X527583Y169318D01*
X527630Y169376D01*
X527673Y169467D01*
X527724Y169553D01*
X527747Y169624D01*
X527779Y169691D01*
X527800Y169789D01*
X527830Y169885D01*
X527836Y169959D01*
X527852Y170032D01*
X527850Y170132D01*
X527858Y170232D01*
X527847Y170306D01*
X527846Y170380D01*
X527822Y170477D01*
X527807Y170577D01*
X527779Y170646D01*
X527761Y170718D01*
X527715Y170807D01*
X527678Y170901D01*
X527636Y170962D01*
X527601Y171028D01*
X527536Y171105D01*
X527479Y171187D01*
X527424Y171237D01*
X527376Y171293D01*
X527295Y171353D01*
X527220Y171420D01*
X527155Y171456D01*
X527095Y171501D01*
X527003Y171540D01*
X526915Y171589D01*
X526844Y171609D01*
X526775Y171639D01*
X526676Y171656D01*
X526580Y171684D01*
X526480Y171692D01*
X526432Y171700D01*
X526397Y171698D01*
X526336Y171703D01*
X468975Y171703D01*
X331739Y308939D01*
X331739Y330216D01*
X331736Y330242D01*
X331738Y330268D01*
X331716Y330415D01*
X331699Y330562D01*
X331691Y330587D01*
X331687Y330613D01*
X331632Y330751D01*
X331582Y330890D01*
X331568Y330912D01*
X331558Y330937D01*
X331473Y331058D01*
X331393Y331183D01*
X331374Y331201D01*
X331359Y331223D01*
X331249Y331322D01*
X331142Y331425D01*
X331120Y331439D01*
X331100Y331456D01*
X330970Y331528D01*
X330843Y331604D01*
X330818Y331612D01*
X330795Y331625D01*
X330652Y331665D01*
X330511Y331710D01*
X330485Y331712D01*
X330460Y331720D01*
X330216Y331739D01*
X305129Y331739D01*
X302529Y334339D01*
X302529Y337058D01*
X302526Y337084D01*
X302528Y337110D01*
X302506Y337257D01*
X302489Y337404D01*
X302481Y337429D01*
X302477Y337455D01*
X302422Y337593D01*
X302372Y337732D01*
X302358Y337754D01*
X302348Y337779D01*
X302263Y337900D01*
X302183Y338025D01*
X302164Y338043D01*
X302149Y338065D01*
X302039Y338164D01*
X301932Y338267D01*
X301910Y338281D01*
X301890Y338298D01*
X301760Y338370D01*
X301633Y338446D01*
X301608Y338454D01*
X301585Y338467D01*
X301442Y338507D01*
X301301Y338552D01*
X301275Y338554D01*
X301250Y338562D01*
X301006Y338581D01*
X300907Y338581D01*
X295401Y344087D01*
X295401Y351873D01*
X300907Y357379D01*
X308693Y357379D01*
X314199Y351873D01*
X314199Y344087D01*
X308993Y338881D01*
X308931Y338803D01*
X308861Y338730D01*
X308822Y338666D01*
X308776Y338608D01*
X308733Y338517D01*
X308682Y338431D01*
X308659Y338360D01*
X308627Y338293D01*
X308606Y338195D01*
X308576Y338099D01*
X308570Y338025D01*
X308554Y337952D01*
X308556Y337852D01*
X308548Y337752D01*
X308559Y337678D01*
X308560Y337604D01*
X308584Y337507D01*
X308599Y337407D01*
X308627Y337338D01*
X308645Y337266D01*
X308691Y337176D01*
X308728Y337083D01*
X308770Y337022D01*
X308805Y336956D01*
X308870Y336879D01*
X308927Y336797D01*
X308982Y336747D01*
X309030Y336691D01*
X309111Y336631D01*
X309186Y336564D01*
X309251Y336528D01*
X309311Y336483D01*
X309403Y336444D01*
X309491Y336395D01*
X309562Y336375D01*
X309631Y336345D01*
X309729Y336328D01*
X309826Y336300D01*
X309926Y336292D01*
X309974Y336284D01*
X310009Y336286D01*
X310070Y336281D01*
X324930Y336281D01*
X325030Y336292D01*
X325130Y336294D01*
X325202Y336312D01*
X325276Y336321D01*
X325371Y336354D01*
X325468Y336379D01*
X325534Y336413D01*
X325604Y336438D01*
X325689Y336493D01*
X325778Y336539D01*
X325835Y336587D01*
X325897Y336627D01*
X325967Y336699D01*
X326043Y336764D01*
X326088Y336824D01*
X326139Y336878D01*
X326191Y336964D01*
X326251Y337045D01*
X326280Y337113D01*
X326318Y337177D01*
X326349Y337273D01*
X326389Y337365D01*
X326402Y337438D01*
X326424Y337509D01*
X326432Y337609D01*
X326450Y337708D01*
X326446Y337782D01*
X326452Y337856D01*
X326437Y337956D01*
X326432Y338056D01*
X326412Y338127D01*
X326401Y338201D01*
X326364Y338294D01*
X326336Y338391D01*
X326299Y338456D01*
X326272Y338525D01*
X326215Y338607D01*
X326166Y338695D01*
X326101Y338771D01*
X326073Y338811D01*
X326047Y338835D01*
X326007Y338881D01*
X320801Y344087D01*
X320801Y351873D01*
X326307Y357379D01*
X334093Y357379D01*
X339599Y351873D01*
X339599Y344087D01*
X338203Y342691D01*
X338140Y342612D01*
X338071Y342540D01*
X338032Y342476D01*
X337986Y342418D01*
X337943Y342327D01*
X337892Y342241D01*
X337869Y342170D01*
X337837Y342103D01*
X337816Y342005D01*
X337786Y341909D01*
X337780Y341835D01*
X337764Y341762D01*
X337766Y341662D01*
X337758Y341562D01*
X337769Y341488D01*
X337770Y341414D01*
X337794Y341317D01*
X337809Y341217D01*
X337837Y341148D01*
X337855Y341076D01*
X337901Y340987D01*
X337938Y340893D01*
X337980Y340832D01*
X338015Y340766D01*
X338080Y340690D01*
X338137Y340607D01*
X338192Y340557D01*
X338240Y340501D01*
X338321Y340441D01*
X338396Y340374D01*
X338461Y340338D01*
X338521Y340293D01*
X338586Y340265D01*
X340091Y338761D01*
X340091Y312722D01*
X340093Y312705D01*
X340092Y312692D01*
X340103Y312618D01*
X340105Y312596D01*
X340112Y312470D01*
X340125Y312423D01*
X340131Y312375D01*
X340173Y312256D01*
X340208Y312135D01*
X340232Y312093D01*
X340248Y312047D01*
X340317Y311941D01*
X340378Y311831D01*
X340418Y311784D01*
X340437Y311754D01*
X340472Y311721D01*
X340537Y311644D01*
X471966Y180215D01*
X472065Y180136D01*
X472159Y180052D01*
X472202Y180028D01*
X472239Y179998D01*
X472354Y179944D01*
X472464Y179883D01*
X472511Y179870D01*
X472555Y179849D01*
X472678Y179823D01*
X472800Y179788D01*
X472860Y179783D01*
X472895Y179776D01*
X472943Y179777D01*
X473044Y179769D01*
X552118Y179769D01*
X553448Y178439D01*
X553448Y177800D01*
X553451Y177774D01*
X553449Y177748D01*
X553471Y177601D01*
X553488Y177454D01*
X553497Y177429D01*
X553501Y177403D01*
X553556Y177265D01*
X553606Y177126D01*
X553620Y177104D01*
X553629Y177079D01*
X553714Y176958D01*
X553795Y176833D01*
X553813Y176815D01*
X553828Y176793D01*
X553938Y176694D01*
X554045Y176591D01*
X554068Y176577D01*
X554087Y176560D01*
X554217Y176488D01*
X554344Y176412D01*
X554369Y176404D01*
X554392Y176391D01*
X554535Y176351D01*
X554676Y176306D01*
X554702Y176304D01*
X554728Y176296D01*
X554971Y176277D01*
X573695Y176277D01*
X575025Y174947D01*
X575025Y171388D01*
X575036Y171288D01*
X575038Y171188D01*
X575056Y171116D01*
X575065Y171042D01*
X575099Y170947D01*
X575123Y170850D01*
X575157Y170784D01*
X575182Y170714D01*
X575237Y170629D01*
X575283Y170540D01*
X575331Y170483D01*
X575371Y170421D01*
X575443Y170351D01*
X575508Y170275D01*
X575568Y170230D01*
X575622Y170179D01*
X575708Y170127D01*
X575789Y170067D01*
X575857Y170038D01*
X575921Y170000D01*
X576017Y169969D01*
X576109Y169929D01*
X576182Y169916D01*
X576253Y169894D01*
X576353Y169886D01*
X576452Y169868D01*
X576526Y169872D01*
X576600Y169866D01*
X576700Y169881D01*
X576800Y169886D01*
X576871Y169906D01*
X576945Y169917D01*
X577038Y169955D01*
X577135Y169982D01*
X577200Y170019D01*
X577269Y170046D01*
X577351Y170103D01*
X577439Y170152D01*
X577515Y170218D01*
X577555Y170245D01*
X577579Y170271D01*
X577625Y170311D01*
X578520Y171206D01*
X579878Y172193D01*
X581375Y172955D01*
X582931Y173461D01*
X582931Y155956D01*
X582934Y155930D01*
X582932Y155904D01*
X582954Y155757D01*
X582971Y155610D01*
X582979Y155585D01*
X582983Y155559D01*
X583038Y155422D01*
X583088Y155282D01*
X583102Y155260D01*
X583112Y155235D01*
X583197Y155114D01*
X583277Y154989D01*
X583296Y154971D01*
X583311Y154949D01*
X583327Y154935D01*
X583245Y154850D01*
X583231Y154827D01*
X583214Y154808D01*
X583142Y154678D01*
X583066Y154551D01*
X583058Y154526D01*
X583045Y154503D01*
X583005Y154360D01*
X582960Y154219D01*
X582957Y154193D01*
X582950Y154168D01*
X582931Y153924D01*
X582931Y136419D01*
X581375Y136925D01*
X579878Y137687D01*
X578520Y138674D01*
X577625Y139569D01*
X577546Y139632D01*
X577474Y139701D01*
X577410Y139739D01*
X577352Y139786D01*
X577261Y139829D01*
X577175Y139880D01*
X577104Y139903D01*
X577037Y139935D01*
X576939Y139956D01*
X576843Y139986D01*
X576769Y139992D01*
X576696Y140008D01*
X576596Y140006D01*
X576496Y140014D01*
X576422Y140003D01*
X576348Y140002D01*
X576251Y139978D01*
X576151Y139963D01*
X576082Y139935D01*
X576010Y139917D01*
X575921Y139871D01*
X575827Y139834D01*
X575766Y139791D01*
X575700Y139757D01*
X575624Y139692D01*
X575541Y139635D01*
X575491Y139580D01*
X575435Y139532D01*
X575375Y139451D01*
X575308Y139376D01*
X575272Y139311D01*
X575227Y139251D01*
X575188Y139159D01*
X575139Y139071D01*
X575119Y139000D01*
X575089Y138931D01*
X575072Y138832D01*
X575044Y138736D01*
X575036Y138636D01*
X575028Y138588D01*
X575030Y138552D01*
X575025Y138492D01*
X575025Y67628D01*
X575039Y67502D01*
X575046Y67376D01*
X575059Y67329D01*
X575065Y67281D01*
X575107Y67162D01*
X575142Y67041D01*
X575166Y66999D01*
X575182Y66953D01*
X575251Y66847D01*
X575312Y66737D01*
X575352Y66691D01*
X575371Y66660D01*
X575406Y66627D01*
X575471Y66550D01*
X577817Y64204D01*
X577895Y64142D01*
X577968Y64072D01*
X578032Y64034D01*
X578090Y63988D01*
X578181Y63945D01*
X578267Y63893D01*
X578338Y63871D01*
X578405Y63839D01*
X578503Y63818D01*
X578599Y63787D01*
X578673Y63781D01*
X578746Y63765D01*
X578846Y63767D01*
X578946Y63759D01*
X579020Y63770D01*
X579094Y63771D01*
X579191Y63796D01*
X579291Y63811D01*
X579360Y63838D01*
X579432Y63856D01*
X579521Y63902D01*
X579615Y63940D01*
X579676Y63982D01*
X579742Y64016D01*
X579818Y64081D01*
X579901Y64138D01*
X579951Y64194D01*
X580007Y64242D01*
X580067Y64323D01*
X580134Y64397D01*
X580170Y64462D01*
X580215Y64522D01*
X580254Y64614D01*
X580303Y64702D01*
X580323Y64774D01*
X580353Y64842D01*
X580370Y64941D01*
X580398Y65038D01*
X580406Y65138D01*
X580414Y65185D01*
X580412Y65221D01*
X580417Y65281D01*
X580417Y66337D01*
X582633Y68553D01*
X585767Y68553D01*
X587983Y66337D01*
X587983Y64852D01*
X587997Y64727D01*
X588004Y64600D01*
X588017Y64554D01*
X588023Y64506D01*
X588065Y64387D01*
X588100Y64266D01*
X588124Y64223D01*
X588140Y64178D01*
X588209Y64072D01*
X588270Y63961D01*
X588310Y63915D01*
X588329Y63885D01*
X588364Y63852D01*
X588429Y63775D01*
X589499Y62705D01*
X589598Y62626D01*
X589692Y62542D01*
X589734Y62518D01*
X589772Y62488D01*
X589886Y62434D01*
X589997Y62373D01*
X590044Y62360D01*
X590087Y62339D01*
X590211Y62313D01*
X590332Y62278D01*
X590393Y62273D01*
X590428Y62266D01*
X590476Y62267D01*
X590576Y62259D01*
X779780Y62259D01*
X779806Y62262D01*
X779832Y62260D01*
X779979Y62282D01*
X780126Y62299D01*
X780151Y62307D01*
X780177Y62311D01*
X780315Y62366D01*
X780454Y62416D01*
X780476Y62430D01*
X780501Y62440D01*
X780622Y62525D01*
X780747Y62605D01*
X780765Y62624D01*
X780787Y62639D01*
X780886Y62749D01*
X780989Y62856D01*
X781003Y62878D01*
X781020Y62898D01*
X781092Y63028D01*
X781168Y63155D01*
X781176Y63180D01*
X781189Y63203D01*
X781229Y63346D01*
X781274Y63487D01*
X781276Y63513D01*
X781284Y63538D01*
X781303Y63782D01*
X781303Y73776D01*
X781289Y73902D01*
X781282Y74028D01*
X781269Y74074D01*
X781263Y74122D01*
X781221Y74241D01*
X781186Y74363D01*
X781162Y74405D01*
X781146Y74450D01*
X781077Y74557D01*
X781016Y74667D01*
X780976Y74713D01*
X780957Y74743D01*
X780922Y74777D01*
X780857Y74853D01*
X779807Y75903D01*
X779807Y79037D01*
X782023Y81253D01*
X785157Y81253D01*
X787373Y79037D01*
X787373Y75903D01*
X786323Y74853D01*
X786244Y74754D01*
X786160Y74660D01*
X786136Y74618D01*
X786106Y74580D01*
X786052Y74466D01*
X785991Y74355D01*
X785978Y74309D01*
X785957Y74265D01*
X785931Y74142D01*
X785896Y74020D01*
X785891Y73959D01*
X785884Y73924D01*
X785885Y73876D01*
X785877Y73776D01*
X785877Y59630D01*
X785880Y59604D01*
X785878Y59578D01*
X785900Y59431D01*
X785917Y59284D01*
X785925Y59259D01*
X785929Y59233D01*
X785984Y59095D01*
X786034Y58956D01*
X786048Y58934D01*
X786058Y58909D01*
X786143Y58788D01*
X786223Y58663D01*
X786242Y58645D01*
X786257Y58623D01*
X786367Y58524D01*
X786474Y58421D01*
X786496Y58407D01*
X786516Y58390D01*
X786646Y58318D01*
X786773Y58242D01*
X786798Y58234D01*
X786821Y58221D01*
X786964Y58181D01*
X787105Y58136D01*
X787131Y58134D01*
X787156Y58126D01*
X787400Y58107D01*
X892553Y58107D01*
X901980Y48679D01*
X902079Y48600D01*
X902173Y48516D01*
X902216Y48492D01*
X902253Y48462D01*
X902368Y48408D01*
X902478Y48347D01*
X902525Y48334D01*
X902569Y48313D01*
X902692Y48287D01*
X902814Y48252D01*
X902875Y48247D01*
X902909Y48240D01*
X902957Y48241D01*
X903058Y48233D01*
X904537Y48233D01*
X906753Y46017D01*
X906753Y42883D01*
X904537Y40667D01*
X901403Y40667D01*
X899187Y42883D01*
X899187Y44340D01*
X899176Y44440D01*
X899174Y44540D01*
X899156Y44613D01*
X899147Y44686D01*
X899114Y44781D01*
X899089Y44878D01*
X899055Y44945D01*
X899030Y45015D01*
X898975Y45099D01*
X898929Y45188D01*
X898881Y45245D01*
X898841Y45307D01*
X898769Y45377D01*
X898704Y45454D01*
X898644Y45498D01*
X898590Y45550D01*
X898504Y45601D01*
X898423Y45661D01*
X898355Y45690D01*
X898291Y45728D01*
X898195Y45759D01*
X898103Y45799D01*
X898030Y45812D01*
X897959Y45835D01*
X897859Y45843D01*
X897760Y45860D01*
X897686Y45857D01*
X897612Y45863D01*
X897512Y45848D01*
X897412Y45843D01*
X897341Y45822D01*
X897267Y45811D01*
X897174Y45774D01*
X897077Y45746D01*
X897012Y45710D01*
X896943Y45682D01*
X896861Y45625D01*
X896773Y45576D01*
X896697Y45511D01*
X896657Y45483D01*
X896633Y45457D01*
X896587Y45417D01*
X894377Y43207D01*
X891243Y43207D01*
X889027Y45423D01*
X889027Y46930D01*
X889013Y47056D01*
X889006Y47182D01*
X888993Y47229D01*
X888987Y47277D01*
X888945Y47396D01*
X888910Y47517D01*
X888886Y47559D01*
X888870Y47605D01*
X888801Y47711D01*
X888740Y47821D01*
X888700Y47868D01*
X888681Y47898D01*
X888646Y47931D01*
X888581Y48008D01*
X887236Y49353D01*
X887136Y49432D01*
X887043Y49516D01*
X887000Y49540D01*
X886963Y49570D01*
X886848Y49624D01*
X886738Y49685D01*
X886691Y49698D01*
X886648Y49719D01*
X886524Y49745D01*
X886402Y49780D01*
X886342Y49785D01*
X886307Y49792D01*
X886259Y49791D01*
X886159Y49799D01*
X684650Y49799D01*
X684600Y49794D01*
X684549Y49796D01*
X684427Y49774D01*
X684304Y49759D01*
X684256Y49742D01*
X684207Y49733D01*
X684093Y49684D01*
X683975Y49642D01*
X683933Y49615D01*
X683887Y49594D01*
X683787Y49520D01*
X683683Y49453D01*
X683648Y49417D01*
X683607Y49387D01*
X683527Y49292D01*
X683440Y49202D01*
X683415Y49159D01*
X683382Y49121D01*
X683325Y49010D01*
X683262Y48903D01*
X683246Y48855D01*
X683223Y48810D01*
X683193Y48690D01*
X683155Y48571D01*
X683151Y48521D01*
X683139Y48472D01*
X683137Y48348D01*
X683127Y48224D01*
X683135Y48174D01*
X683134Y48124D01*
X683161Y48002D01*
X683179Y47879D01*
X683198Y47832D01*
X683208Y47783D01*
X683262Y47671D01*
X683308Y47555D01*
X683337Y47514D01*
X683358Y47468D01*
X683436Y47371D01*
X683507Y47269D01*
X683544Y47235D01*
X683576Y47196D01*
X683673Y47119D01*
X683766Y47036D01*
X683810Y47011D01*
X683849Y46980D01*
X684067Y46869D01*
X684774Y46576D01*
X687418Y43932D01*
X688849Y40477D01*
X688849Y20483D01*
X687418Y17028D01*
X684774Y14384D01*
X681319Y12953D01*
X677581Y12953D01*
G37*
%LPD*%
%LPC*%
G36*
X639844Y258365D02*
X639844Y258365D01*
X556523Y341687D01*
X556502Y341703D01*
X556485Y341723D01*
X556366Y341811D01*
X556250Y341903D01*
X556226Y341914D01*
X556205Y341930D01*
X556069Y341989D01*
X555934Y342052D01*
X555909Y342058D01*
X555885Y342068D01*
X555738Y342094D01*
X555594Y342125D01*
X555568Y342125D01*
X555542Y342130D01*
X555393Y342122D01*
X555245Y342120D01*
X555220Y342113D01*
X555194Y342112D01*
X555051Y342071D01*
X554907Y342035D01*
X554884Y342023D01*
X554859Y342015D01*
X554729Y341943D01*
X554597Y341875D01*
X554577Y341858D01*
X554555Y341845D01*
X554368Y341687D01*
X552533Y339851D01*
X544747Y339851D01*
X539241Y345357D01*
X539241Y353143D01*
X541891Y355793D01*
X541953Y355871D01*
X542023Y355944D01*
X542062Y356008D01*
X542108Y356066D01*
X542151Y356157D01*
X542202Y356243D01*
X542225Y356314D01*
X542257Y356381D01*
X542278Y356479D01*
X542308Y356575D01*
X542314Y356649D01*
X542330Y356722D01*
X542328Y356822D01*
X542336Y356922D01*
X542325Y356996D01*
X542324Y357070D01*
X542300Y357167D01*
X542285Y357267D01*
X542257Y357336D01*
X542239Y357408D01*
X542193Y357497D01*
X542156Y357591D01*
X542114Y357652D01*
X542079Y357718D01*
X542014Y357794D01*
X541957Y357877D01*
X541902Y357927D01*
X541854Y357983D01*
X541773Y358043D01*
X541698Y358110D01*
X541633Y358146D01*
X541573Y358191D01*
X541481Y358230D01*
X541393Y358279D01*
X541322Y358299D01*
X541253Y358329D01*
X541155Y358346D01*
X541058Y358374D01*
X540958Y358382D01*
X540910Y358390D01*
X540875Y358388D01*
X540814Y358393D01*
X531066Y358393D01*
X530966Y358382D01*
X530866Y358380D01*
X530794Y358362D01*
X530720Y358353D01*
X530625Y358320D01*
X530528Y358295D01*
X530462Y358261D01*
X530392Y358236D01*
X530307Y358181D01*
X530218Y358135D01*
X530161Y358087D01*
X530099Y358047D01*
X530029Y357975D01*
X529953Y357910D01*
X529908Y357850D01*
X529857Y357796D01*
X529805Y357710D01*
X529745Y357629D01*
X529716Y357561D01*
X529678Y357497D01*
X529647Y357401D01*
X529607Y357309D01*
X529594Y357236D01*
X529572Y357165D01*
X529564Y357065D01*
X529546Y356966D01*
X529550Y356892D01*
X529544Y356818D01*
X529559Y356718D01*
X529564Y356618D01*
X529584Y356547D01*
X529595Y356473D01*
X529632Y356380D01*
X529660Y356283D01*
X529697Y356218D01*
X529724Y356149D01*
X529781Y356067D01*
X529830Y355979D01*
X529895Y355903D01*
X529923Y355863D01*
X529949Y355839D01*
X529989Y355793D01*
X532639Y353143D01*
X532639Y345357D01*
X527133Y339851D01*
X519347Y339851D01*
X513841Y345357D01*
X513841Y353143D01*
X519347Y358649D01*
X519446Y358649D01*
X519472Y358652D01*
X519498Y358650D01*
X519645Y358672D01*
X519792Y358689D01*
X519817Y358697D01*
X519843Y358701D01*
X519981Y358756D01*
X520120Y358806D01*
X520142Y358820D01*
X520167Y358830D01*
X520288Y358915D01*
X520413Y358995D01*
X520431Y359014D01*
X520453Y359029D01*
X520552Y359139D01*
X520655Y359246D01*
X520669Y359268D01*
X520686Y359288D01*
X520758Y359418D01*
X520834Y359545D01*
X520842Y359570D01*
X520855Y359593D01*
X520895Y359736D01*
X520940Y359877D01*
X520942Y359903D01*
X520950Y359928D01*
X520969Y360172D01*
X520969Y361605D01*
X522016Y362651D01*
X522078Y362730D01*
X522148Y362802D01*
X522186Y362866D01*
X522232Y362924D01*
X522275Y363015D01*
X522327Y363101D01*
X522349Y363172D01*
X522381Y363239D01*
X522402Y363337D01*
X522433Y363433D01*
X522439Y363507D01*
X522455Y363580D01*
X522453Y363680D01*
X522461Y363780D01*
X522450Y363854D01*
X522449Y363928D01*
X522424Y364025D01*
X522409Y364125D01*
X522382Y364194D01*
X522364Y364266D01*
X522318Y364355D01*
X522280Y364449D01*
X522238Y364510D01*
X522204Y364576D01*
X522139Y364652D01*
X522082Y364735D01*
X522026Y364785D01*
X521978Y364841D01*
X521897Y364901D01*
X521823Y364968D01*
X521758Y365004D01*
X521698Y365049D01*
X521606Y365088D01*
X521518Y365137D01*
X521446Y365157D01*
X521378Y365187D01*
X521279Y365204D01*
X521182Y365232D01*
X521082Y365240D01*
X521035Y365248D01*
X520999Y365246D01*
X520939Y365251D01*
X519347Y365251D01*
X513841Y370757D01*
X513841Y378543D01*
X513911Y378613D01*
X513928Y378634D01*
X513948Y378651D01*
X514036Y378770D01*
X514128Y378886D01*
X514139Y378910D01*
X514155Y378931D01*
X514214Y379067D01*
X514277Y379201D01*
X514282Y379227D01*
X514293Y379251D01*
X514319Y379397D01*
X514350Y379542D01*
X514350Y379568D01*
X514354Y379594D01*
X514347Y379742D01*
X514344Y379890D01*
X514338Y379916D01*
X514337Y379942D01*
X514296Y380084D01*
X514259Y380228D01*
X514247Y380252D01*
X514240Y380277D01*
X514168Y380406D01*
X514100Y380538D01*
X514083Y380558D01*
X514070Y380581D01*
X513911Y380767D01*
X513856Y380823D01*
X513757Y380902D01*
X513663Y380986D01*
X513620Y381010D01*
X513583Y381040D01*
X513468Y381094D01*
X513358Y381155D01*
X513311Y381168D01*
X513267Y381189D01*
X513144Y381215D01*
X513022Y381250D01*
X512962Y381255D01*
X512927Y381262D01*
X512879Y381261D01*
X512778Y381269D01*
X482500Y381269D01*
X482374Y381255D01*
X482248Y381248D01*
X482202Y381235D01*
X482154Y381229D01*
X482035Y381187D01*
X481913Y381152D01*
X481871Y381128D01*
X481826Y381112D01*
X481719Y381043D01*
X481609Y380982D01*
X481563Y380942D01*
X481533Y380923D01*
X481499Y380888D01*
X481423Y380823D01*
X480357Y379757D01*
X477223Y379757D01*
X475007Y381973D01*
X475007Y385107D01*
X477223Y387323D01*
X480357Y387323D01*
X481423Y386257D01*
X481522Y386178D01*
X481616Y386094D01*
X481658Y386070D01*
X481696Y386040D01*
X481810Y385986D01*
X481921Y385925D01*
X481967Y385912D01*
X482011Y385891D01*
X482134Y385865D01*
X482256Y385830D01*
X482317Y385825D01*
X482352Y385818D01*
X482400Y385819D01*
X482500Y385811D01*
X515291Y385811D01*
X517123Y383979D01*
X517143Y383962D01*
X517160Y383942D01*
X517280Y383854D01*
X517396Y383762D01*
X517419Y383751D01*
X517441Y383735D01*
X517577Y383676D01*
X517711Y383613D01*
X517736Y383608D01*
X517761Y383597D01*
X517907Y383571D01*
X518051Y383540D01*
X518078Y383540D01*
X518104Y383536D01*
X518252Y383543D01*
X518400Y383546D01*
X518425Y383552D01*
X518452Y383553D01*
X518594Y383594D01*
X518738Y383631D01*
X518761Y383643D01*
X518786Y383650D01*
X518915Y383722D01*
X519048Y383790D01*
X519068Y383807D01*
X519091Y383820D01*
X519277Y383979D01*
X519347Y384049D01*
X527133Y384049D01*
X532639Y378543D01*
X532639Y370757D01*
X527417Y365535D01*
X527355Y365457D01*
X527285Y365384D01*
X527246Y365320D01*
X527200Y365262D01*
X527157Y365171D01*
X527106Y365085D01*
X527083Y365014D01*
X527051Y364947D01*
X527030Y364849D01*
X527000Y364753D01*
X526994Y364679D01*
X526978Y364606D01*
X526980Y364506D01*
X526972Y364406D01*
X526983Y364332D01*
X526984Y364258D01*
X527008Y364161D01*
X527023Y364061D01*
X527051Y363992D01*
X527069Y363920D01*
X527115Y363830D01*
X527152Y363737D01*
X527194Y363676D01*
X527229Y363610D01*
X527294Y363533D01*
X527351Y363451D01*
X527406Y363401D01*
X527454Y363345D01*
X527535Y363285D01*
X527610Y363218D01*
X527675Y363182D01*
X527735Y363137D01*
X527827Y363098D01*
X527915Y363049D01*
X527986Y363029D01*
X528055Y362999D01*
X528153Y362982D01*
X528250Y362954D01*
X528350Y362946D01*
X528398Y362938D01*
X528433Y362940D01*
X528494Y362935D01*
X543386Y362935D01*
X543486Y362946D01*
X543586Y362948D01*
X543658Y362966D01*
X543732Y362975D01*
X543827Y363008D01*
X543924Y363033D01*
X543990Y363067D01*
X544060Y363092D01*
X544145Y363147D01*
X544234Y363193D01*
X544291Y363241D01*
X544353Y363281D01*
X544423Y363353D01*
X544499Y363418D01*
X544544Y363478D01*
X544595Y363532D01*
X544647Y363618D01*
X544707Y363699D01*
X544736Y363767D01*
X544774Y363831D01*
X544805Y363927D01*
X544845Y364019D01*
X544858Y364092D01*
X544880Y364163D01*
X544888Y364263D01*
X544906Y364362D01*
X544902Y364436D01*
X544908Y364510D01*
X544893Y364610D01*
X544888Y364710D01*
X544868Y364781D01*
X544857Y364855D01*
X544820Y364948D01*
X544792Y365045D01*
X544755Y365110D01*
X544728Y365179D01*
X544671Y365261D01*
X544622Y365349D01*
X544557Y365425D01*
X544529Y365465D01*
X544503Y365489D01*
X544463Y365535D01*
X539241Y370757D01*
X539241Y378543D01*
X544747Y384049D01*
X544846Y384049D01*
X544872Y384052D01*
X544898Y384050D01*
X545045Y384072D01*
X545192Y384089D01*
X545217Y384097D01*
X545243Y384101D01*
X545381Y384156D01*
X545520Y384206D01*
X545542Y384220D01*
X545567Y384230D01*
X545688Y384315D01*
X545813Y384395D01*
X545831Y384414D01*
X545853Y384429D01*
X545952Y384539D01*
X546055Y384646D01*
X546069Y384668D01*
X546086Y384688D01*
X546158Y384818D01*
X546234Y384945D01*
X546242Y384970D01*
X546255Y384993D01*
X546295Y385136D01*
X546340Y385277D01*
X546342Y385303D01*
X546350Y385328D01*
X546369Y385572D01*
X546369Y387450D01*
X546355Y387576D01*
X546348Y387702D01*
X546335Y387748D01*
X546329Y387796D01*
X546287Y387915D01*
X546252Y388037D01*
X546228Y388079D01*
X546212Y388124D01*
X546143Y388231D01*
X546082Y388341D01*
X546042Y388387D01*
X546023Y388417D01*
X545988Y388451D01*
X545923Y388527D01*
X544857Y389593D01*
X544857Y392727D01*
X547073Y394943D01*
X550207Y394943D01*
X552423Y392727D01*
X552423Y389593D01*
X551357Y388527D01*
X551278Y388428D01*
X551194Y388334D01*
X551170Y388292D01*
X551140Y388254D01*
X551086Y388140D01*
X551025Y388029D01*
X551012Y387983D01*
X550991Y387939D01*
X550965Y387816D01*
X550930Y387694D01*
X550925Y387633D01*
X550918Y387598D01*
X550919Y387550D01*
X550911Y387450D01*
X550911Y385572D01*
X550914Y385546D01*
X550912Y385520D01*
X550934Y385373D01*
X550951Y385226D01*
X550959Y385201D01*
X550963Y385175D01*
X551018Y385037D01*
X551068Y384898D01*
X551082Y384876D01*
X551092Y384851D01*
X551177Y384730D01*
X551257Y384605D01*
X551276Y384587D01*
X551291Y384565D01*
X551401Y384466D01*
X551508Y384363D01*
X551530Y384349D01*
X551550Y384332D01*
X551680Y384260D01*
X551807Y384184D01*
X551832Y384176D01*
X551855Y384163D01*
X551998Y384123D01*
X552139Y384078D01*
X552165Y384076D01*
X552190Y384068D01*
X552434Y384049D01*
X552533Y384049D01*
X558039Y378543D01*
X558039Y370757D01*
X552817Y365535D01*
X552755Y365457D01*
X552685Y365384D01*
X552646Y365320D01*
X552600Y365262D01*
X552557Y365171D01*
X552506Y365085D01*
X552483Y365014D01*
X552451Y364947D01*
X552430Y364849D01*
X552400Y364753D01*
X552394Y364679D01*
X552378Y364606D01*
X552380Y364506D01*
X552372Y364406D01*
X552383Y364332D01*
X552384Y364258D01*
X552408Y364161D01*
X552423Y364061D01*
X552451Y363992D01*
X552469Y363920D01*
X552515Y363830D01*
X552552Y363737D01*
X552594Y363676D01*
X552629Y363610D01*
X552694Y363533D01*
X552751Y363451D01*
X552806Y363401D01*
X552854Y363345D01*
X552935Y363285D01*
X553010Y363218D01*
X553075Y363182D01*
X553135Y363137D01*
X553227Y363098D01*
X553315Y363049D01*
X553386Y363029D01*
X553455Y362999D01*
X553553Y362982D01*
X553650Y362954D01*
X553750Y362946D01*
X553798Y362938D01*
X553833Y362940D01*
X553894Y362935D01*
X562297Y362935D01*
X563627Y361605D01*
X563627Y357602D01*
X563638Y357502D01*
X563640Y357402D01*
X563658Y357330D01*
X563667Y357256D01*
X563700Y357161D01*
X563725Y357064D01*
X563759Y356998D01*
X563784Y356928D01*
X563839Y356843D01*
X563885Y356754D01*
X563933Y356697D01*
X563973Y356635D01*
X564045Y356565D01*
X564110Y356489D01*
X564170Y356444D01*
X564224Y356393D01*
X564310Y356341D01*
X564391Y356281D01*
X564459Y356252D01*
X564523Y356214D01*
X564619Y356183D01*
X564711Y356143D01*
X564784Y356130D01*
X564855Y356108D01*
X564955Y356100D01*
X565054Y356082D01*
X565128Y356086D01*
X565202Y356080D01*
X565302Y356095D01*
X565402Y356100D01*
X565473Y356120D01*
X565547Y356131D01*
X565640Y356168D01*
X565737Y356196D01*
X565802Y356233D01*
X565871Y356260D01*
X565953Y356317D01*
X566041Y356366D01*
X566117Y356432D01*
X566157Y356459D01*
X566181Y356485D01*
X566227Y356525D01*
X569621Y359919D01*
X571501Y359919D01*
X571501Y350266D01*
X571504Y350240D01*
X571502Y350214D01*
X571524Y350067D01*
X571541Y349920D01*
X571549Y349895D01*
X571553Y349869D01*
X571608Y349732D01*
X571658Y349592D01*
X571672Y349570D01*
X571682Y349545D01*
X571767Y349424D01*
X571847Y349299D01*
X571866Y349281D01*
X571881Y349259D01*
X571991Y349160D01*
X572098Y349057D01*
X572120Y349043D01*
X572140Y349026D01*
X572270Y348954D01*
X572397Y348878D01*
X572422Y348870D01*
X572445Y348857D01*
X572588Y348817D01*
X572729Y348772D01*
X572755Y348770D01*
X572780Y348763D01*
X573024Y348743D01*
X575056Y348743D01*
X575082Y348746D01*
X575108Y348744D01*
X575255Y348766D01*
X575402Y348783D01*
X575427Y348792D01*
X575453Y348796D01*
X575591Y348850D01*
X575730Y348900D01*
X575752Y348915D01*
X575777Y348924D01*
X575898Y349009D01*
X576023Y349089D01*
X576041Y349108D01*
X576063Y349123D01*
X576162Y349233D01*
X576265Y349340D01*
X576279Y349363D01*
X576296Y349382D01*
X576368Y349512D01*
X576444Y349639D01*
X576452Y349664D01*
X576465Y349687D01*
X576505Y349830D01*
X576550Y349971D01*
X576552Y349997D01*
X576560Y350022D01*
X576579Y350266D01*
X576579Y360075D01*
X576583Y360076D01*
X576667Y360131D01*
X576756Y360177D01*
X576813Y360225D01*
X576875Y360265D01*
X576945Y360337D01*
X577022Y360402D01*
X577066Y360462D01*
X577118Y360516D01*
X577169Y360602D01*
X577229Y360683D01*
X577258Y360751D01*
X577297Y360815D01*
X577327Y360911D01*
X577367Y361003D01*
X577380Y361076D01*
X577403Y361147D01*
X577411Y361247D01*
X577429Y361346D01*
X577425Y361420D01*
X577431Y361494D01*
X577416Y361594D01*
X577411Y361694D01*
X577390Y361765D01*
X577379Y361839D01*
X577342Y361932D01*
X577314Y362029D01*
X577278Y362094D01*
X577250Y362163D01*
X577193Y362245D01*
X577144Y362333D01*
X577079Y362409D01*
X577051Y362449D01*
X577025Y362473D01*
X576985Y362519D01*
X574699Y364805D01*
X574600Y364884D01*
X574507Y364968D01*
X574464Y364992D01*
X574426Y365022D01*
X574312Y365076D01*
X574201Y365137D01*
X574155Y365150D01*
X574111Y365171D01*
X573988Y365197D01*
X573866Y365232D01*
X573805Y365237D01*
X573771Y365244D01*
X573723Y365243D01*
X573622Y365251D01*
X570147Y365251D01*
X564641Y370757D01*
X564641Y378543D01*
X570147Y384049D01*
X577933Y384049D01*
X583439Y378543D01*
X583439Y370757D01*
X581123Y368441D01*
X581106Y368420D01*
X581086Y368403D01*
X580998Y368284D01*
X580906Y368168D01*
X580895Y368144D01*
X580879Y368123D01*
X580820Y367987D01*
X580757Y367853D01*
X580752Y367827D01*
X580741Y367803D01*
X580715Y367656D01*
X580684Y367512D01*
X580684Y367486D01*
X580679Y367460D01*
X580687Y367311D01*
X580690Y367164D01*
X580696Y367138D01*
X580697Y367112D01*
X580739Y366969D01*
X580775Y366826D01*
X580787Y366802D01*
X580794Y366777D01*
X580866Y366647D01*
X580934Y366516D01*
X580951Y366496D01*
X580964Y366473D01*
X581123Y366287D01*
X588578Y358831D01*
X588582Y358828D01*
X588587Y358823D01*
X589408Y358015D01*
X589408Y357983D01*
X589419Y357883D01*
X589421Y357783D01*
X589439Y357711D01*
X589448Y357637D01*
X589481Y357542D01*
X589506Y357445D01*
X589540Y357379D01*
X589565Y357309D01*
X589620Y357224D01*
X589666Y357135D01*
X589714Y357078D01*
X589754Y357016D01*
X589826Y356946D01*
X589891Y356870D01*
X589951Y356825D01*
X590005Y356774D01*
X590091Y356722D01*
X590172Y356662D01*
X590240Y356633D01*
X590304Y356595D01*
X590400Y356564D01*
X590492Y356524D01*
X590565Y356511D01*
X590636Y356489D01*
X590736Y356481D01*
X590835Y356463D01*
X590909Y356467D01*
X590983Y356461D01*
X591083Y356476D01*
X591183Y356481D01*
X591254Y356501D01*
X591328Y356512D01*
X591421Y356549D01*
X591518Y356577D01*
X591583Y356614D01*
X591652Y356641D01*
X591734Y356698D01*
X591822Y356747D01*
X591898Y356813D01*
X591938Y356840D01*
X591962Y356866D01*
X592008Y356906D01*
X595021Y359919D01*
X596901Y359919D01*
X596901Y350266D01*
X596904Y350240D01*
X596902Y350214D01*
X596924Y350067D01*
X596941Y349920D01*
X596949Y349895D01*
X596953Y349869D01*
X597008Y349732D01*
X597058Y349592D01*
X597072Y349570D01*
X597082Y349545D01*
X597167Y349424D01*
X597247Y349299D01*
X597266Y349281D01*
X597281Y349259D01*
X597297Y349245D01*
X597215Y349160D01*
X597201Y349137D01*
X597184Y349118D01*
X597112Y348988D01*
X597036Y348861D01*
X597028Y348836D01*
X597015Y348813D01*
X596975Y348670D01*
X596930Y348529D01*
X596927Y348503D01*
X596920Y348478D01*
X596901Y348234D01*
X596901Y338581D01*
X595021Y338581D01*
X591774Y341828D01*
X591754Y341844D01*
X591737Y341864D01*
X591617Y341952D01*
X591501Y342044D01*
X591478Y342056D01*
X591457Y342071D01*
X591320Y342130D01*
X591186Y342193D01*
X591161Y342199D01*
X591137Y342209D01*
X590990Y342236D01*
X590846Y342267D01*
X590819Y342266D01*
X590794Y342271D01*
X590645Y342263D01*
X590497Y342261D01*
X590472Y342254D01*
X590445Y342253D01*
X590303Y342212D01*
X590159Y342176D01*
X590136Y342164D01*
X590111Y342156D01*
X589981Y342084D01*
X589849Y342016D01*
X589829Y341999D01*
X589806Y341986D01*
X589620Y341828D01*
X588717Y340925D01*
X588714Y340921D01*
X588708Y340916D01*
X587587Y339776D01*
X587557Y339756D01*
X587525Y339723D01*
X587456Y339664D01*
X583514Y335722D01*
X583498Y335702D01*
X583478Y335685D01*
X583390Y335565D01*
X583298Y335449D01*
X583287Y335425D01*
X583271Y335404D01*
X583212Y335268D01*
X583149Y335134D01*
X583143Y335108D01*
X583133Y335084D01*
X583107Y334938D01*
X583076Y334793D01*
X583076Y334767D01*
X583071Y334741D01*
X583079Y334593D01*
X583082Y334445D01*
X583088Y334419D01*
X583089Y334393D01*
X583130Y334251D01*
X583167Y334107D01*
X583179Y334083D01*
X583186Y334058D01*
X583258Y333929D01*
X583326Y333797D01*
X583343Y333777D01*
X583356Y333754D01*
X583514Y333568D01*
X595071Y322011D01*
X595170Y321932D01*
X595264Y321848D01*
X595307Y321824D01*
X595344Y321794D01*
X595459Y321740D01*
X595569Y321679D01*
X595616Y321666D01*
X595660Y321645D01*
X595783Y321619D01*
X595905Y321584D01*
X595966Y321579D01*
X596000Y321572D01*
X596048Y321573D01*
X596149Y321565D01*
X728334Y321565D01*
X728460Y321579D01*
X728586Y321586D01*
X728632Y321599D01*
X728680Y321605D01*
X728799Y321647D01*
X728921Y321682D01*
X728963Y321706D01*
X729008Y321722D01*
X729115Y321791D01*
X729225Y321852D01*
X729271Y321892D01*
X729301Y321911D01*
X729335Y321946D01*
X729411Y322011D01*
X729953Y322553D01*
X733087Y322553D01*
X735303Y320337D01*
X735303Y317203D01*
X733087Y314987D01*
X729953Y314987D01*
X729411Y315529D01*
X729312Y315608D01*
X729218Y315692D01*
X729176Y315716D01*
X729138Y315746D01*
X729024Y315800D01*
X728913Y315861D01*
X728867Y315874D01*
X728823Y315895D01*
X728700Y315921D01*
X728578Y315956D01*
X728517Y315961D01*
X728482Y315968D01*
X728434Y315967D01*
X728334Y315975D01*
X597318Y315975D01*
X597218Y315964D01*
X597117Y315962D01*
X597045Y315944D01*
X596971Y315935D01*
X596877Y315902D01*
X596779Y315877D01*
X596713Y315843D01*
X596643Y315818D01*
X596559Y315763D01*
X596470Y315717D01*
X596413Y315669D01*
X596351Y315629D01*
X596281Y315557D01*
X596204Y315492D01*
X596160Y315432D01*
X596108Y315378D01*
X596057Y315292D01*
X595997Y315211D01*
X595968Y315143D01*
X595929Y315079D01*
X595899Y314983D01*
X595859Y314891D01*
X595846Y314818D01*
X595823Y314747D01*
X595815Y314647D01*
X595797Y314548D01*
X595801Y314474D01*
X595795Y314400D01*
X595810Y314300D01*
X595815Y314200D01*
X595836Y314129D01*
X595847Y314055D01*
X595884Y313962D01*
X595912Y313865D01*
X595948Y313800D01*
X595976Y313731D01*
X596033Y313649D01*
X596082Y313561D01*
X596147Y313485D01*
X596175Y313445D01*
X596201Y313421D01*
X596241Y313375D01*
X642167Y267449D01*
X642266Y267370D01*
X642359Y267286D01*
X642402Y267262D01*
X642440Y267232D01*
X642554Y267178D01*
X642665Y267117D01*
X642711Y267104D01*
X642755Y267083D01*
X642878Y267057D01*
X643000Y267022D01*
X643061Y267017D01*
X643095Y267010D01*
X643143Y267011D01*
X643244Y267003D01*
X647575Y267003D01*
X647621Y267008D01*
X647666Y267005D01*
X647793Y267028D01*
X647922Y267043D01*
X647964Y267058D01*
X648009Y267066D01*
X648128Y267117D01*
X648250Y267160D01*
X648288Y267185D01*
X648330Y267203D01*
X648434Y267279D01*
X648543Y267349D01*
X648574Y267382D01*
X648611Y267409D01*
X648695Y267507D01*
X648785Y267600D01*
X648808Y267639D01*
X648838Y267673D01*
X648897Y267788D01*
X648964Y267899D01*
X648977Y267942D01*
X648998Y267983D01*
X649030Y268108D01*
X649070Y268231D01*
X649073Y268276D01*
X649085Y268320D01*
X649087Y268450D01*
X649098Y268578D01*
X649091Y268623D01*
X649092Y268669D01*
X649065Y268795D01*
X649046Y268923D01*
X649029Y268965D01*
X649020Y269010D01*
X648965Y269127D01*
X648917Y269247D01*
X648891Y269284D01*
X648872Y269325D01*
X648792Y269427D01*
X648718Y269533D01*
X648685Y269563D01*
X648656Y269599D01*
X648471Y269758D01*
X647100Y270754D01*
X645912Y271942D01*
X644925Y273300D01*
X644163Y274797D01*
X643644Y276394D01*
X643381Y278052D01*
X643381Y284481D01*
X653034Y284481D01*
X653060Y284484D01*
X653086Y284482D01*
X653233Y284504D01*
X653380Y284521D01*
X653405Y284529D01*
X653431Y284533D01*
X653568Y284588D01*
X653708Y284638D01*
X653730Y284652D01*
X653755Y284662D01*
X653876Y284747D01*
X654001Y284827D01*
X654019Y284846D01*
X654041Y284861D01*
X654055Y284877D01*
X654140Y284795D01*
X654163Y284781D01*
X654182Y284764D01*
X654312Y284692D01*
X654439Y284616D01*
X654464Y284608D01*
X654487Y284595D01*
X654630Y284555D01*
X654771Y284510D01*
X654797Y284507D01*
X654822Y284500D01*
X655066Y284481D01*
X664719Y284481D01*
X664719Y278052D01*
X664456Y276394D01*
X663937Y274797D01*
X663175Y273300D01*
X662188Y271942D01*
X661000Y270754D01*
X659629Y269758D01*
X659596Y269728D01*
X659557Y269703D01*
X659468Y269610D01*
X659373Y269523D01*
X659347Y269485D01*
X659315Y269452D01*
X659249Y269341D01*
X659176Y269235D01*
X659160Y269192D01*
X659136Y269153D01*
X659097Y269030D01*
X659050Y268910D01*
X659044Y268865D01*
X659030Y268821D01*
X659020Y268692D01*
X659002Y268565D01*
X659006Y268519D01*
X659002Y268474D01*
X659021Y268346D01*
X659033Y268217D01*
X659047Y268174D01*
X659054Y268129D01*
X659102Y268009D01*
X659142Y267886D01*
X659166Y267848D01*
X659183Y267805D01*
X659256Y267699D01*
X659324Y267589D01*
X659356Y267556D01*
X659382Y267519D01*
X659477Y267433D01*
X659568Y267341D01*
X659607Y267316D01*
X659640Y267286D01*
X659753Y267223D01*
X659863Y267154D01*
X659906Y267139D01*
X659945Y267117D01*
X660070Y267082D01*
X660192Y267040D01*
X660237Y267035D01*
X660281Y267022D01*
X660525Y267003D01*
X675935Y267003D01*
X675985Y267008D01*
X676036Y267006D01*
X676158Y267028D01*
X676282Y267043D01*
X676329Y267060D01*
X676378Y267069D01*
X676493Y267118D01*
X676610Y267160D01*
X676652Y267187D01*
X676698Y267207D01*
X676798Y267282D01*
X676902Y267349D01*
X676937Y267385D01*
X676978Y267415D01*
X677058Y267510D01*
X677145Y267600D01*
X677171Y267643D01*
X677203Y267681D01*
X677260Y267792D01*
X677323Y267899D01*
X677339Y267947D01*
X677362Y267992D01*
X677392Y268112D01*
X677430Y268231D01*
X677434Y268281D01*
X677446Y268330D01*
X677448Y268454D01*
X677458Y268578D01*
X677450Y268628D01*
X677451Y268678D01*
X677424Y268800D01*
X677406Y268923D01*
X677387Y268970D01*
X677377Y269019D01*
X677323Y269131D01*
X677277Y269247D01*
X677249Y269288D01*
X677227Y269334D01*
X677149Y269431D01*
X677078Y269533D01*
X677041Y269567D01*
X677010Y269606D01*
X676912Y269683D01*
X676820Y269766D01*
X676775Y269791D01*
X676736Y269822D01*
X676518Y269933D01*
X674126Y270924D01*
X671482Y273568D01*
X670051Y277023D01*
X670051Y297017D01*
X671482Y300472D01*
X674126Y303116D01*
X677581Y304547D01*
X681319Y304547D01*
X684774Y303116D01*
X687418Y300472D01*
X688849Y297017D01*
X688849Y277023D01*
X687418Y273568D01*
X684774Y270924D01*
X682382Y269933D01*
X682338Y269909D01*
X682290Y269892D01*
X682186Y269824D01*
X682077Y269764D01*
X682040Y269730D01*
X681998Y269703D01*
X681911Y269613D01*
X681819Y269530D01*
X681790Y269488D01*
X681755Y269452D01*
X681692Y269345D01*
X681621Y269243D01*
X681602Y269196D01*
X681577Y269153D01*
X681539Y269035D01*
X681493Y268919D01*
X681486Y268869D01*
X681470Y268821D01*
X681460Y268697D01*
X681442Y268574D01*
X681446Y268524D01*
X681442Y268474D01*
X681461Y268351D01*
X681471Y268227D01*
X681487Y268179D01*
X681494Y268129D01*
X681540Y268014D01*
X681578Y267895D01*
X681604Y267852D01*
X681623Y267805D01*
X681694Y267703D01*
X681758Y267597D01*
X681793Y267560D01*
X681822Y267519D01*
X681914Y267436D01*
X682001Y267347D01*
X682043Y267319D01*
X682080Y267286D01*
X682189Y267226D01*
X682294Y267158D01*
X682341Y267141D01*
X682385Y267117D01*
X682505Y267083D01*
X682622Y267042D01*
X682672Y267036D01*
X682721Y267022D01*
X682965Y267003D01*
X820194Y267003D01*
X820220Y267006D01*
X820246Y267004D01*
X820393Y267026D01*
X820540Y267043D01*
X820565Y267051D01*
X820591Y267055D01*
X820729Y267110D01*
X820868Y267160D01*
X820890Y267174D01*
X820915Y267184D01*
X821036Y267269D01*
X821161Y267349D01*
X821179Y267368D01*
X821201Y267383D01*
X821300Y267493D01*
X821403Y267600D01*
X821417Y267622D01*
X821434Y267642D01*
X821506Y267772D01*
X821582Y267899D01*
X821590Y267924D01*
X821603Y267947D01*
X821643Y268090D01*
X821688Y268231D01*
X821690Y268257D01*
X821698Y268282D01*
X821717Y268526D01*
X821717Y269537D01*
X823933Y271753D01*
X827067Y271753D01*
X829283Y269537D01*
X829283Y266403D01*
X828387Y265507D01*
X828324Y265428D01*
X828254Y265356D01*
X828216Y265292D01*
X828170Y265234D01*
X828127Y265143D01*
X828076Y265057D01*
X828053Y264986D01*
X828021Y264919D01*
X828000Y264821D01*
X827969Y264725D01*
X827963Y264651D01*
X827948Y264578D01*
X827949Y264478D01*
X827941Y264378D01*
X827952Y264304D01*
X827954Y264230D01*
X827978Y264133D01*
X827993Y264033D01*
X828021Y263964D01*
X828039Y263892D01*
X828085Y263803D01*
X828122Y263709D01*
X828164Y263648D01*
X828198Y263582D01*
X828263Y263506D01*
X828321Y263423D01*
X828376Y263373D01*
X828424Y263317D01*
X828505Y263257D01*
X828580Y263190D01*
X828645Y263154D01*
X828704Y263109D01*
X828797Y263070D01*
X828885Y263021D01*
X828956Y263001D01*
X829024Y262971D01*
X829123Y262954D01*
X829220Y262926D01*
X829320Y262918D01*
X829367Y262910D01*
X829403Y262912D01*
X829464Y262907D01*
X834182Y262907D01*
X834308Y262921D01*
X834434Y262928D01*
X834480Y262941D01*
X834528Y262947D01*
X834647Y262989D01*
X834769Y263024D01*
X834811Y263048D01*
X834856Y263064D01*
X834963Y263133D01*
X835073Y263194D01*
X835119Y263234D01*
X835149Y263253D01*
X835183Y263288D01*
X835259Y263353D01*
X843417Y271511D01*
X847190Y271511D01*
X847316Y271525D01*
X847442Y271532D01*
X847488Y271545D01*
X847536Y271551D01*
X847655Y271593D01*
X847777Y271628D01*
X847819Y271652D01*
X847864Y271668D01*
X847971Y271737D01*
X848081Y271798D01*
X848127Y271838D01*
X848157Y271857D01*
X848191Y271892D01*
X848267Y271957D01*
X849333Y273023D01*
X852467Y273023D01*
X854683Y270807D01*
X854683Y267673D01*
X852467Y265457D01*
X849333Y265457D01*
X848267Y266523D01*
X848168Y266602D01*
X848074Y266686D01*
X848032Y266710D01*
X847994Y266740D01*
X847880Y266794D01*
X847769Y266855D01*
X847723Y266868D01*
X847679Y266889D01*
X847556Y266915D01*
X847434Y266950D01*
X847373Y266955D01*
X847338Y266962D01*
X847290Y266961D01*
X847190Y266969D01*
X845929Y266969D01*
X845803Y266955D01*
X845677Y266948D01*
X845631Y266935D01*
X845583Y266929D01*
X845464Y266887D01*
X845342Y266852D01*
X845300Y266828D01*
X845255Y266812D01*
X845148Y266743D01*
X845038Y266682D01*
X844992Y266642D01*
X844962Y266623D01*
X844928Y266588D01*
X844852Y266523D01*
X836694Y258365D01*
X639844Y258365D01*
G37*
%LPD*%
%LPC*%
G36*
X230234Y363909D02*
X230234Y363909D01*
X229489Y364654D01*
X229489Y381706D01*
X230574Y382791D01*
X230583Y382797D01*
X230601Y382816D01*
X230623Y382831D01*
X230722Y382941D01*
X230825Y383048D01*
X230839Y383070D01*
X230856Y383090D01*
X230928Y383220D01*
X231004Y383347D01*
X231012Y383372D01*
X231025Y383395D01*
X231065Y383538D01*
X231110Y383679D01*
X231112Y383705D01*
X231120Y383730D01*
X231139Y383974D01*
X231139Y387096D01*
X231136Y387122D01*
X231138Y387148D01*
X231116Y387295D01*
X231099Y387442D01*
X231091Y387467D01*
X231087Y387493D01*
X231032Y387631D01*
X230982Y387770D01*
X230968Y387792D01*
X230958Y387817D01*
X230873Y387938D01*
X230793Y388063D01*
X230774Y388081D01*
X230759Y388103D01*
X230649Y388202D01*
X230542Y388305D01*
X230520Y388319D01*
X230500Y388336D01*
X230370Y388408D01*
X230243Y388484D01*
X230218Y388492D01*
X230195Y388505D01*
X230052Y388545D01*
X229911Y388590D01*
X229885Y388592D01*
X229860Y388600D01*
X229616Y388619D01*
X187254Y388619D01*
X187179Y388611D01*
X187102Y388612D01*
X187006Y388591D01*
X186908Y388579D01*
X186836Y388554D01*
X186762Y388537D01*
X186673Y388495D01*
X186580Y388462D01*
X186516Y388420D01*
X186447Y388388D01*
X186370Y388326D01*
X186287Y388273D01*
X186234Y388218D01*
X186174Y388170D01*
X186114Y388093D01*
X186045Y388022D01*
X186006Y387957D01*
X185959Y387897D01*
X185890Y387763D01*
X185866Y387723D01*
X185861Y387705D01*
X185847Y387679D01*
X184402Y384191D01*
X178419Y378208D01*
X170601Y374969D01*
X162139Y374969D01*
X154321Y378208D01*
X148338Y384191D01*
X146893Y387679D01*
X146856Y387746D01*
X146827Y387817D01*
X146771Y387898D01*
X146724Y387984D01*
X146672Y388040D01*
X146629Y388103D01*
X146556Y388169D01*
X146489Y388242D01*
X146426Y388285D01*
X146370Y388336D01*
X146284Y388384D01*
X146203Y388440D01*
X146132Y388468D01*
X146065Y388505D01*
X145970Y388532D01*
X145878Y388568D01*
X145803Y388579D01*
X145729Y388600D01*
X145580Y388612D01*
X145534Y388619D01*
X145515Y388617D01*
X145486Y388619D01*
X144074Y388619D01*
X143999Y388611D01*
X143922Y388612D01*
X143826Y388591D01*
X143728Y388579D01*
X143656Y388554D01*
X143582Y388537D01*
X143493Y388495D01*
X143400Y388462D01*
X143336Y388420D01*
X143267Y388388D01*
X143190Y388326D01*
X143107Y388273D01*
X143054Y388218D01*
X142994Y388170D01*
X142934Y388093D01*
X142865Y388022D01*
X142826Y387957D01*
X142779Y387897D01*
X142710Y387763D01*
X142686Y387723D01*
X142681Y387705D01*
X142667Y387679D01*
X141222Y384191D01*
X135239Y378208D01*
X127421Y374969D01*
X118959Y374969D01*
X111141Y378208D01*
X105158Y384191D01*
X101919Y392009D01*
X101919Y400471D01*
X105158Y408289D01*
X111141Y414272D01*
X118959Y417511D01*
X127421Y417511D01*
X135239Y414272D01*
X141222Y408289D01*
X142667Y404801D01*
X142704Y404734D01*
X142733Y404663D01*
X142789Y404582D01*
X142836Y404496D01*
X142888Y404440D01*
X142931Y404377D01*
X143004Y404311D01*
X143071Y404238D01*
X143134Y404195D01*
X143190Y404144D01*
X143276Y404096D01*
X143357Y404040D01*
X143428Y404012D01*
X143495Y403975D01*
X143590Y403948D01*
X143682Y403912D01*
X143757Y403901D01*
X143831Y403880D01*
X143980Y403868D01*
X144026Y403861D01*
X144045Y403863D01*
X144074Y403861D01*
X145486Y403861D01*
X145561Y403869D01*
X145638Y403868D01*
X145734Y403889D01*
X145832Y403901D01*
X145904Y403926D01*
X145978Y403943D01*
X146067Y403985D01*
X146160Y404018D01*
X146224Y404060D01*
X146293Y404092D01*
X146370Y404154D01*
X146453Y404207D01*
X146506Y404262D01*
X146566Y404310D01*
X146626Y404387D01*
X146695Y404458D01*
X146734Y404523D01*
X146781Y404583D01*
X146850Y404717D01*
X146874Y404757D01*
X146879Y404775D01*
X146893Y404801D01*
X148338Y408289D01*
X154321Y414272D01*
X162139Y417511D01*
X170601Y417511D01*
X178419Y414272D01*
X184402Y408289D01*
X185847Y404801D01*
X185884Y404734D01*
X185913Y404663D01*
X185969Y404582D01*
X186016Y404496D01*
X186068Y404440D01*
X186111Y404377D01*
X186184Y404311D01*
X186251Y404238D01*
X186314Y404195D01*
X186370Y404144D01*
X186456Y404096D01*
X186537Y404040D01*
X186608Y404012D01*
X186675Y403975D01*
X186770Y403948D01*
X186862Y403912D01*
X186937Y403901D01*
X187011Y403880D01*
X187160Y403868D01*
X187206Y403861D01*
X187225Y403863D01*
X187254Y403861D01*
X240276Y403861D01*
X243077Y402700D01*
X245220Y400557D01*
X246381Y397756D01*
X246381Y383974D01*
X246384Y383948D01*
X246382Y383922D01*
X246404Y383775D01*
X246421Y383628D01*
X246429Y383603D01*
X246433Y383577D01*
X246488Y383439D01*
X246538Y383300D01*
X246552Y383278D01*
X246562Y383253D01*
X246647Y383132D01*
X246727Y383007D01*
X246746Y382989D01*
X246761Y382967D01*
X246853Y382884D01*
X248031Y381706D01*
X248031Y364654D01*
X247286Y363909D01*
X230234Y363909D01*
G37*
%LPD*%
%LPC*%
G36*
X132406Y181762D02*
X132406Y181762D01*
X125985Y183482D01*
X120227Y186806D01*
X115526Y191507D01*
X112202Y197265D01*
X110482Y203686D01*
X110482Y210334D01*
X112202Y216755D01*
X115526Y222513D01*
X120227Y227214D01*
X125985Y230538D01*
X132406Y232258D01*
X139054Y232258D01*
X145475Y230538D01*
X151233Y227214D01*
X155934Y222513D01*
X159258Y216755D01*
X160978Y210334D01*
X160978Y203686D01*
X159258Y197265D01*
X155934Y191507D01*
X151233Y186806D01*
X145475Y183482D01*
X139054Y181762D01*
X132406Y181762D01*
G37*
%LPD*%
%LPC*%
G36*
X963056Y9974D02*
X963056Y9974D01*
X955855Y14785D01*
X951044Y21986D01*
X949354Y30480D01*
X949387Y30647D01*
X949690Y32170D01*
X949690Y32171D01*
X949993Y33694D01*
X950296Y35217D01*
X950902Y38263D01*
X950902Y38264D01*
X951044Y38974D01*
X955855Y46175D01*
X963056Y50986D01*
X971550Y52676D01*
X980044Y50986D01*
X987245Y46175D01*
X992056Y38974D01*
X993746Y30480D01*
X993291Y28191D01*
X992988Y26668D01*
X992685Y25145D01*
X992685Y25144D01*
X992382Y23622D01*
X992382Y23621D01*
X992056Y21986D01*
X987245Y14785D01*
X980044Y9974D01*
X971550Y8284D01*
X963056Y9974D01*
G37*
%LPD*%
%LPC*%
G36*
X963056Y265244D02*
X963056Y265244D01*
X955855Y270055D01*
X951044Y277256D01*
X949354Y285750D01*
X950120Y289600D01*
X950423Y291123D01*
X950726Y292646D01*
X950726Y292647D01*
X951044Y294244D01*
X955855Y301445D01*
X963056Y306256D01*
X971550Y307946D01*
X980044Y306256D01*
X987245Y301445D01*
X992056Y294244D01*
X993746Y285750D01*
X993720Y285621D01*
X993720Y285620D01*
X993417Y284097D01*
X993114Y282574D01*
X992811Y281051D01*
X992811Y281050D01*
X992205Y278004D01*
X992056Y277256D01*
X987245Y270055D01*
X980044Y265244D01*
X971550Y263554D01*
X963056Y265244D01*
G37*
%LPD*%
%LPC*%
G36*
X71969Y326709D02*
X71969Y326709D01*
X64151Y329948D01*
X58168Y335931D01*
X54929Y343749D01*
X54929Y352211D01*
X58168Y360029D01*
X64151Y366012D01*
X71969Y369251D01*
X80431Y369251D01*
X88249Y366012D01*
X94232Y360029D01*
X97471Y352211D01*
X97471Y343749D01*
X94232Y335931D01*
X88249Y329948D01*
X80431Y326709D01*
X71969Y326709D01*
G37*
%LPD*%
%LPC*%
G36*
X71969Y374969D02*
X71969Y374969D01*
X64151Y378208D01*
X58168Y384191D01*
X54929Y392009D01*
X54929Y400471D01*
X58168Y408289D01*
X64151Y414272D01*
X71969Y417511D01*
X80431Y417511D01*
X88249Y414272D01*
X94232Y408289D01*
X97471Y400471D01*
X97471Y392009D01*
X94232Y384191D01*
X88249Y378208D01*
X80431Y374969D01*
X71969Y374969D01*
G37*
%LPD*%
%LPC*%
G36*
X446971Y342449D02*
X446971Y342449D01*
X439804Y345418D01*
X434318Y350904D01*
X431349Y358071D01*
X431349Y365829D01*
X434318Y372996D01*
X439804Y378482D01*
X446971Y381451D01*
X454729Y381451D01*
X461896Y378482D01*
X467382Y372996D01*
X470351Y365829D01*
X470351Y358071D01*
X467382Y350904D01*
X461896Y345418D01*
X454729Y342449D01*
X446971Y342449D01*
G37*
%LPD*%
%LPC*%
G36*
X923221Y342449D02*
X923221Y342449D01*
X916054Y345418D01*
X910568Y350904D01*
X907599Y358071D01*
X907599Y365829D01*
X910568Y372996D01*
X916054Y378482D01*
X923221Y381451D01*
X930979Y381451D01*
X938146Y378482D01*
X943632Y372996D01*
X946601Y365829D01*
X946601Y358071D01*
X943632Y350904D01*
X938146Y345418D01*
X930979Y342449D01*
X923221Y342449D01*
G37*
%LPD*%
%LPC*%
G36*
X1024821Y266249D02*
X1024821Y266249D01*
X1017654Y269218D01*
X1012168Y274704D01*
X1009199Y281871D01*
X1009199Y289629D01*
X1012168Y296796D01*
X1017654Y302282D01*
X1024821Y305251D01*
X1032579Y305251D01*
X1039746Y302282D01*
X1045232Y296796D01*
X1048201Y289629D01*
X1048201Y281871D01*
X1045232Y274704D01*
X1039746Y269218D01*
X1032579Y266249D01*
X1024821Y266249D01*
G37*
%LPD*%
%LPC*%
G36*
X79387Y163057D02*
X79387Y163057D01*
X79545Y164459D01*
X80208Y167363D01*
X81192Y170174D01*
X82484Y172857D01*
X84069Y175380D01*
X85926Y177708D01*
X88032Y179814D01*
X89133Y180692D01*
X89135Y180695D01*
X89139Y180697D01*
X89258Y180818D01*
X89379Y180939D01*
X89381Y180943D01*
X89383Y180945D01*
X89471Y181088D01*
X89562Y181236D01*
X89563Y181239D01*
X89565Y181243D01*
X89618Y181403D01*
X89673Y181566D01*
X89673Y181570D01*
X89674Y181573D01*
X89690Y181740D01*
X89706Y181913D01*
X89705Y181917D01*
X89706Y181921D01*
X89682Y182089D01*
X89659Y182258D01*
X89658Y182262D01*
X89658Y182266D01*
X89596Y182425D01*
X89535Y182584D01*
X89533Y182587D01*
X89532Y182591D01*
X89436Y182731D01*
X89341Y182873D01*
X89338Y182876D01*
X89336Y182879D01*
X89208Y182996D01*
X89085Y183110D01*
X89082Y183112D01*
X89079Y183115D01*
X88932Y183198D01*
X88783Y183283D01*
X88779Y183285D01*
X88776Y183286D01*
X88616Y183333D01*
X88449Y183383D01*
X88445Y183383D01*
X88442Y183384D01*
X88270Y183394D01*
X88101Y183404D01*
X88097Y183404D01*
X88094Y183404D01*
X87923Y183374D01*
X87757Y183346D01*
X87754Y183344D01*
X87750Y183344D01*
X87522Y183256D01*
X85894Y182472D01*
X83083Y181488D01*
X80179Y180825D01*
X78777Y180667D01*
X78777Y203963D01*
X102073Y203963D01*
X101915Y202561D01*
X101252Y199657D01*
X100268Y196846D01*
X98976Y194163D01*
X97391Y191640D01*
X95534Y189312D01*
X93428Y187206D01*
X92327Y186328D01*
X92325Y186325D01*
X92321Y186323D01*
X92201Y186201D01*
X92081Y186081D01*
X92079Y186077D01*
X92077Y186075D01*
X91988Y185929D01*
X91898Y185784D01*
X91897Y185781D01*
X91895Y185777D01*
X91842Y185617D01*
X91787Y185454D01*
X91787Y185450D01*
X91786Y185447D01*
X91770Y185280D01*
X91754Y185107D01*
X91755Y185103D01*
X91754Y185099D01*
X91778Y184931D01*
X91801Y184762D01*
X91802Y184758D01*
X91802Y184754D01*
X91864Y184595D01*
X91925Y184436D01*
X91927Y184433D01*
X91928Y184429D01*
X92024Y184289D01*
X92119Y184147D01*
X92122Y184144D01*
X92124Y184141D01*
X92252Y184024D01*
X92375Y183910D01*
X92378Y183908D01*
X92381Y183905D01*
X92528Y183822D01*
X92677Y183737D01*
X92681Y183735D01*
X92684Y183734D01*
X92844Y183687D01*
X93011Y183637D01*
X93015Y183637D01*
X93018Y183636D01*
X93190Y183626D01*
X93359Y183616D01*
X93363Y183616D01*
X93366Y183616D01*
X93537Y183646D01*
X93703Y183674D01*
X93706Y183676D01*
X93710Y183676D01*
X93938Y183764D01*
X95566Y184548D01*
X98377Y185532D01*
X101281Y186195D01*
X102683Y186353D01*
X102683Y163057D01*
X79387Y163057D01*
G37*
%LPD*%
%LPC*%
G36*
X462951Y12953D02*
X462951Y12953D01*
X459496Y14384D01*
X456852Y17028D01*
X455421Y20483D01*
X455421Y40477D01*
X456852Y43932D01*
X459496Y46576D01*
X462951Y48007D01*
X466689Y48007D01*
X470144Y46576D01*
X472788Y43932D01*
X474219Y40477D01*
X474219Y20483D01*
X472788Y17028D01*
X470144Y14384D01*
X466689Y12953D01*
X462951Y12953D01*
G37*
%LPD*%
%LPC*%
G36*
X239431Y12953D02*
X239431Y12953D01*
X235976Y14384D01*
X233332Y17028D01*
X231901Y20483D01*
X231901Y40477D01*
X233332Y43932D01*
X235976Y46576D01*
X239431Y48007D01*
X243169Y48007D01*
X246624Y46576D01*
X249268Y43932D01*
X250699Y40477D01*
X250699Y20483D01*
X249268Y17028D01*
X246624Y14384D01*
X243169Y12953D01*
X239431Y12953D01*
G37*
%LPD*%
%LPC*%
G36*
X338491Y137413D02*
X338491Y137413D01*
X335036Y138844D01*
X332392Y141488D01*
X330961Y144943D01*
X330961Y164937D01*
X332392Y168392D01*
X335036Y171036D01*
X338491Y172467D01*
X342229Y172467D01*
X345684Y171036D01*
X348328Y168392D01*
X349759Y164937D01*
X349759Y144943D01*
X348328Y141488D01*
X345684Y138844D01*
X342229Y137413D01*
X338491Y137413D01*
G37*
%LPD*%
%LPC*%
G36*
X462951Y269493D02*
X462951Y269493D01*
X459496Y270924D01*
X456852Y273568D01*
X455421Y277023D01*
X455421Y297017D01*
X456852Y300472D01*
X459496Y303116D01*
X462951Y304547D01*
X466689Y304547D01*
X470144Y303116D01*
X472788Y300472D01*
X474219Y297017D01*
X474219Y277023D01*
X472788Y273568D01*
X470144Y270924D01*
X466689Y269493D01*
X462951Y269493D01*
G37*
%LPD*%
%LPC*%
G36*
X108777Y163057D02*
X108777Y163057D01*
X108777Y186353D01*
X110179Y186195D01*
X113083Y185532D01*
X115894Y184548D01*
X118577Y183256D01*
X121100Y181671D01*
X123428Y179814D01*
X125534Y177708D01*
X127391Y175380D01*
X128976Y172857D01*
X130268Y170174D01*
X131252Y167363D01*
X131915Y164459D01*
X132073Y163057D01*
X108777Y163057D01*
G37*
%LPD*%
%LPC*%
G36*
X78777Y210057D02*
X78777Y210057D01*
X78777Y233353D01*
X80179Y233195D01*
X83083Y232532D01*
X85894Y231548D01*
X88577Y230256D01*
X91100Y228671D01*
X93428Y226814D01*
X95534Y224708D01*
X97391Y222380D01*
X98976Y219857D01*
X100268Y217174D01*
X101252Y214363D01*
X101915Y211459D01*
X102073Y210057D01*
X78777Y210057D01*
G37*
%LPD*%
%LPC*%
G36*
X49387Y210057D02*
X49387Y210057D01*
X49545Y211459D01*
X50208Y214363D01*
X51192Y217174D01*
X52484Y219857D01*
X54069Y222380D01*
X55926Y224708D01*
X58032Y226814D01*
X60360Y228671D01*
X62883Y230256D01*
X65566Y231548D01*
X68377Y232532D01*
X71281Y233195D01*
X72683Y233353D01*
X72683Y210057D01*
X49387Y210057D01*
G37*
%LPD*%
%LPC*%
G36*
X108777Y156963D02*
X108777Y156963D01*
X132073Y156963D01*
X131915Y155561D01*
X131252Y152657D01*
X130268Y149846D01*
X128976Y147163D01*
X127391Y144640D01*
X125534Y142312D01*
X123428Y140206D01*
X121100Y138349D01*
X118577Y136764D01*
X115894Y135472D01*
X113083Y134488D01*
X110179Y133825D01*
X108777Y133667D01*
X108777Y156963D01*
G37*
%LPD*%
%LPC*%
G36*
X101281Y133825D02*
X101281Y133825D01*
X98377Y134488D01*
X95566Y135472D01*
X92883Y136764D01*
X90360Y138349D01*
X88032Y140206D01*
X85926Y142312D01*
X84069Y144640D01*
X82484Y147163D01*
X81192Y149846D01*
X80208Y152657D01*
X79545Y155561D01*
X79387Y156963D01*
X102683Y156963D01*
X102683Y133667D01*
X101281Y133825D01*
G37*
%LPD*%
%LPC*%
G36*
X71281Y180825D02*
X71281Y180825D01*
X68377Y181488D01*
X65566Y182472D01*
X62883Y183764D01*
X60360Y185349D01*
X58032Y187206D01*
X55926Y189312D01*
X54069Y191640D01*
X52484Y194163D01*
X51192Y196846D01*
X50208Y199657D01*
X49545Y202561D01*
X49387Y203963D01*
X72683Y203963D01*
X72683Y180667D01*
X71281Y180825D01*
G37*
%LPD*%
%LPC*%
G36*
X849507Y310499D02*
X849507Y310499D01*
X846934Y311565D01*
X844965Y313534D01*
X843899Y316107D01*
X843899Y318893D01*
X844965Y321466D01*
X846934Y323435D01*
X849507Y324501D01*
X852293Y324501D01*
X854866Y323435D01*
X856835Y321466D01*
X857901Y318893D01*
X857901Y316107D01*
X856835Y313534D01*
X854866Y311565D01*
X852293Y310499D01*
X849507Y310499D01*
G37*
%LPD*%
%LPC*%
G36*
X977777Y354949D02*
X977777Y354949D01*
X975204Y356015D01*
X973235Y357984D01*
X972169Y360557D01*
X972169Y363343D01*
X973235Y365916D01*
X975204Y367885D01*
X977777Y368951D01*
X980563Y368951D01*
X983136Y367885D01*
X985105Y365916D01*
X986171Y363343D01*
X986171Y360557D01*
X985105Y357984D01*
X983136Y356015D01*
X980563Y354949D01*
X977777Y354949D01*
G37*
%LPD*%
%LPC*%
G36*
X1026037Y354949D02*
X1026037Y354949D01*
X1023464Y356015D01*
X1021495Y357984D01*
X1020429Y360557D01*
X1020429Y363343D01*
X1021495Y365916D01*
X1023464Y367885D01*
X1026037Y368951D01*
X1028823Y368951D01*
X1031396Y367885D01*
X1033365Y365916D01*
X1034431Y363343D01*
X1034431Y360557D01*
X1033365Y357984D01*
X1031396Y356015D01*
X1028823Y354949D01*
X1026037Y354949D01*
G37*
%LPD*%
%LPC*%
G36*
X368299Y157479D02*
X368299Y157479D01*
X368299Y173461D01*
X369855Y172955D01*
X371352Y172193D01*
X372710Y171206D01*
X373898Y170018D01*
X374885Y168660D01*
X375647Y167163D01*
X376166Y165566D01*
X376429Y163908D01*
X376429Y157479D01*
X368299Y157479D01*
G37*
%LPD*%
%LPC*%
G36*
X656589Y289559D02*
X656589Y289559D01*
X656589Y305541D01*
X658145Y305035D01*
X659642Y304273D01*
X661000Y303286D01*
X662188Y302098D01*
X663175Y300740D01*
X663937Y299243D01*
X664456Y297646D01*
X664719Y295988D01*
X664719Y289559D01*
X656589Y289559D01*
G37*
%LPD*%
%LPC*%
G36*
X218439Y33019D02*
X218439Y33019D01*
X218439Y49001D01*
X219995Y48495D01*
X221492Y47733D01*
X222850Y46746D01*
X224038Y45558D01*
X225025Y44200D01*
X225787Y42703D01*
X226306Y41106D01*
X226569Y39448D01*
X226569Y33019D01*
X218439Y33019D01*
G37*
%LPD*%
%LPC*%
G36*
X441959Y33019D02*
X441959Y33019D01*
X441959Y49001D01*
X443515Y48495D01*
X445012Y47733D01*
X446370Y46746D01*
X447558Y45558D01*
X448545Y44200D01*
X449307Y42703D01*
X449826Y41106D01*
X450089Y39448D01*
X450089Y33019D01*
X441959Y33019D01*
G37*
%LPD*%
%LPC*%
G36*
X588009Y157479D02*
X588009Y157479D01*
X588009Y173461D01*
X589565Y172955D01*
X591062Y172193D01*
X592420Y171206D01*
X593608Y170018D01*
X594595Y168660D01*
X595357Y167163D01*
X595876Y165566D01*
X596139Y163908D01*
X596139Y157479D01*
X588009Y157479D01*
G37*
%LPD*%
%LPC*%
G36*
X441959Y289559D02*
X441959Y289559D01*
X441959Y305541D01*
X443515Y305035D01*
X445012Y304273D01*
X446370Y303286D01*
X447558Y302098D01*
X448545Y300740D01*
X449307Y299243D01*
X449826Y297646D01*
X450089Y295988D01*
X450089Y289559D01*
X441959Y289559D01*
G37*
%LPD*%
%LPC*%
G36*
X218439Y289559D02*
X218439Y289559D01*
X218439Y305541D01*
X219995Y305035D01*
X221492Y304273D01*
X222850Y303286D01*
X224038Y302098D01*
X225025Y300740D01*
X225787Y299243D01*
X226306Y297646D01*
X226569Y295988D01*
X226569Y289559D01*
X218439Y289559D01*
G37*
%LPD*%
%LPC*%
G36*
X441959Y284481D02*
X441959Y284481D01*
X450089Y284481D01*
X450089Y278052D01*
X449826Y276394D01*
X449307Y274797D01*
X448545Y273300D01*
X447558Y271942D01*
X446370Y270754D01*
X445012Y269767D01*
X443515Y269005D01*
X441959Y268499D01*
X441959Y284481D01*
G37*
%LPD*%
%LPC*%
G36*
X441959Y27941D02*
X441959Y27941D01*
X450089Y27941D01*
X450089Y21512D01*
X449826Y19854D01*
X449307Y18257D01*
X448545Y16760D01*
X447558Y15402D01*
X446370Y14214D01*
X445012Y13227D01*
X443515Y12465D01*
X441959Y11959D01*
X441959Y27941D01*
G37*
%LPD*%
%LPC*%
G36*
X588009Y152401D02*
X588009Y152401D01*
X596139Y152401D01*
X596139Y145972D01*
X595876Y144314D01*
X595357Y142717D01*
X594595Y141220D01*
X593608Y139862D01*
X592420Y138674D01*
X591062Y137687D01*
X589565Y136925D01*
X588009Y136419D01*
X588009Y152401D01*
G37*
%LPD*%
%LPC*%
G36*
X368299Y152401D02*
X368299Y152401D01*
X376429Y152401D01*
X376429Y145972D01*
X376166Y144314D01*
X375647Y142717D01*
X374885Y141220D01*
X373898Y139862D01*
X372710Y138674D01*
X371352Y137687D01*
X369855Y136925D01*
X368299Y136419D01*
X368299Y152401D01*
G37*
%LPD*%
%LPC*%
G36*
X218439Y27941D02*
X218439Y27941D01*
X226569Y27941D01*
X226569Y21512D01*
X226306Y19854D01*
X225787Y18257D01*
X225025Y16760D01*
X224038Y15402D01*
X222850Y14214D01*
X221492Y13227D01*
X219995Y12465D01*
X218439Y11959D01*
X218439Y27941D01*
G37*
%LPD*%
%LPC*%
G36*
X656589Y27941D02*
X656589Y27941D01*
X664719Y27941D01*
X664719Y21512D01*
X664456Y19854D01*
X663937Y18257D01*
X663175Y16760D01*
X662188Y15402D01*
X661000Y14214D01*
X659642Y13227D01*
X658145Y12465D01*
X656589Y11959D01*
X656589Y27941D01*
G37*
%LPD*%
%LPC*%
G36*
X205231Y289559D02*
X205231Y289559D01*
X205231Y295988D01*
X205494Y297646D01*
X206013Y299243D01*
X206775Y300740D01*
X207762Y302098D01*
X208950Y303286D01*
X210308Y304273D01*
X211805Y305035D01*
X213361Y305541D01*
X213361Y289559D01*
X205231Y289559D01*
G37*
%LPD*%
%LPC*%
G36*
X355091Y157479D02*
X355091Y157479D01*
X355091Y163908D01*
X355354Y165566D01*
X355873Y167163D01*
X356635Y168660D01*
X357622Y170018D01*
X358810Y171206D01*
X360168Y172193D01*
X361665Y172955D01*
X363221Y173461D01*
X363221Y157479D01*
X355091Y157479D01*
G37*
%LPD*%
%LPC*%
G36*
X428751Y33019D02*
X428751Y33019D01*
X428751Y39448D01*
X429014Y41106D01*
X429533Y42703D01*
X430295Y44200D01*
X431282Y45558D01*
X432470Y46746D01*
X433828Y47733D01*
X435325Y48495D01*
X436881Y49001D01*
X436881Y33019D01*
X428751Y33019D01*
G37*
%LPD*%
%LPC*%
G36*
X205231Y33019D02*
X205231Y33019D01*
X205231Y39448D01*
X205494Y41106D01*
X206013Y42703D01*
X206775Y44200D01*
X207762Y45558D01*
X208950Y46746D01*
X210308Y47733D01*
X211805Y48495D01*
X213361Y49001D01*
X213361Y33019D01*
X205231Y33019D01*
G37*
%LPD*%
%LPC*%
G36*
X643381Y289559D02*
X643381Y289559D01*
X643381Y295988D01*
X643644Y297646D01*
X644163Y299243D01*
X644925Y300740D01*
X645912Y302098D01*
X647100Y303286D01*
X648458Y304273D01*
X649955Y305035D01*
X651511Y305541D01*
X651511Y289559D01*
X643381Y289559D01*
G37*
%LPD*%
%LPC*%
G36*
X428751Y289559D02*
X428751Y289559D01*
X428751Y295988D01*
X429014Y297646D01*
X429533Y299243D01*
X430295Y300740D01*
X431282Y302098D01*
X432470Y303286D01*
X433828Y304273D01*
X435325Y305035D01*
X436881Y305541D01*
X436881Y289559D01*
X428751Y289559D01*
G37*
%LPD*%
%LPC*%
G36*
X435325Y12465D02*
X435325Y12465D01*
X433828Y13227D01*
X432470Y14214D01*
X431282Y15402D01*
X430295Y16760D01*
X429533Y18257D01*
X429014Y19854D01*
X428751Y21512D01*
X428751Y27941D01*
X436881Y27941D01*
X436881Y11959D01*
X435325Y12465D01*
G37*
%LPD*%
%LPC*%
G36*
X649955Y12465D02*
X649955Y12465D01*
X648458Y13227D01*
X647100Y14214D01*
X645912Y15402D01*
X644925Y16760D01*
X644163Y18257D01*
X643644Y19854D01*
X643381Y21512D01*
X643381Y27941D01*
X651511Y27941D01*
X651511Y11959D01*
X649955Y12465D01*
G37*
%LPD*%
%LPC*%
G36*
X211805Y12465D02*
X211805Y12465D01*
X210308Y13227D01*
X208950Y14214D01*
X207762Y15402D01*
X206775Y16760D01*
X206013Y18257D01*
X205494Y19854D01*
X205231Y21512D01*
X205231Y27941D01*
X213361Y27941D01*
X213361Y11959D01*
X211805Y12465D01*
G37*
%LPD*%
%LPC*%
G36*
X361665Y136925D02*
X361665Y136925D01*
X360168Y137687D01*
X358810Y138674D01*
X357622Y139862D01*
X356635Y141220D01*
X355873Y142717D01*
X355354Y144314D01*
X355091Y145972D01*
X355091Y152401D01*
X363221Y152401D01*
X363221Y136419D01*
X361665Y136925D01*
G37*
%LPD*%
%LPC*%
G36*
X601979Y351789D02*
X601979Y351789D01*
X601979Y359919D01*
X603859Y359919D01*
X610109Y353669D01*
X610109Y351789D01*
X601979Y351789D01*
G37*
%LPD*%
%LPC*%
G36*
X601979Y338581D02*
X601979Y338581D01*
X601979Y346711D01*
X610109Y346711D01*
X610109Y344831D01*
X603859Y338581D01*
X601979Y338581D01*
G37*
%LPD*%
%LPC*%
G36*
X358139Y337311D02*
X358139Y337311D01*
X358139Y345441D01*
X366269Y345441D01*
X366269Y343561D01*
X360019Y337311D01*
X358139Y337311D01*
G37*
%LPD*%
%LPC*%
G36*
X383539Y337311D02*
X383539Y337311D01*
X383539Y345441D01*
X391669Y345441D01*
X391669Y343561D01*
X385419Y337311D01*
X383539Y337311D01*
G37*
%LPD*%
%LPC*%
G36*
X376581Y337311D02*
X376581Y337311D01*
X370331Y343561D01*
X370331Y345441D01*
X378461Y345441D01*
X378461Y337311D01*
X376581Y337311D01*
G37*
%LPD*%
%LPC*%
G36*
X351181Y337311D02*
X351181Y337311D01*
X344931Y343561D01*
X344931Y345441D01*
X353061Y345441D01*
X353061Y337311D01*
X351181Y337311D01*
G37*
%LPD*%
%LPC*%
G36*
X241259Y350679D02*
X241259Y350679D01*
X241259Y358721D01*
X243126Y358721D01*
X249301Y352546D01*
X249301Y350679D01*
X241259Y350679D01*
G37*
%LPD*%
%LPC*%
G36*
X241259Y345681D02*
X241259Y345681D01*
X249301Y345681D01*
X249301Y343814D01*
X243126Y337639D01*
X241259Y337639D01*
X241259Y345681D01*
G37*
%LPD*%
%LPC*%
G36*
X228219Y350679D02*
X228219Y350679D01*
X228219Y352546D01*
X234394Y358721D01*
X236261Y358721D01*
X236261Y350679D01*
X228219Y350679D01*
G37*
%LPD*%
%LPC*%
G36*
X234394Y337639D02*
X234394Y337639D01*
X228219Y343814D01*
X228219Y345681D01*
X236261Y345681D01*
X236261Y337639D01*
X234394Y337639D01*
G37*
%LPD*%
%LPC*%
G36*
X105729Y160009D02*
X105729Y160009D01*
X105729Y160011D01*
X105731Y160011D01*
X105731Y160009D01*
X105729Y160009D01*
G37*
%LPD*%
%LPC*%
G36*
X75729Y207009D02*
X75729Y207009D01*
X75729Y207011D01*
X75731Y207011D01*
X75731Y207009D01*
X75729Y207009D01*
G37*
%LPD*%
D10*
X585470Y163068D02*
X585470Y146812D01*
X560070Y146812D02*
X560070Y163068D01*
X534670Y163068D02*
X534670Y146812D01*
X365760Y146812D02*
X365760Y163068D01*
X340360Y163068D02*
X340360Y146812D01*
X314960Y146812D02*
X314960Y163068D01*
D11*
X135730Y207010D03*
X75730Y207010D03*
X105730Y160010D03*
D12*
X599440Y374650D03*
X599440Y349250D03*
X574040Y374650D03*
X574040Y349250D03*
X548640Y374650D03*
X548640Y349250D03*
X523240Y374650D03*
X523240Y349250D03*
X381000Y373380D03*
X381000Y347980D03*
X355600Y373380D03*
X355600Y347980D03*
X330200Y373380D03*
X330200Y347980D03*
X304800Y373380D03*
X304800Y347980D03*
D13*
X165100Y347980D03*
X123190Y347980D03*
X76200Y347980D03*
X166370Y396240D03*
X123190Y396240D03*
X76200Y396240D03*
D10*
X241300Y38608D02*
X241300Y22352D01*
X215900Y22352D02*
X215900Y38608D01*
X464820Y38608D02*
X464820Y22352D01*
X439420Y22352D02*
X439420Y38608D01*
X679450Y38608D02*
X679450Y22352D01*
X654050Y22352D02*
X654050Y38608D01*
X215900Y278892D02*
X215900Y295148D01*
X241300Y295148D02*
X241300Y278892D01*
X439420Y278892D02*
X439420Y295148D01*
X464820Y295148D02*
X464820Y278892D01*
X654050Y278892D02*
X654050Y295148D01*
X679450Y295148D02*
X679450Y278892D01*
D14*
X238760Y348180D03*
D15*
X238760Y373180D03*
D16*
X916940Y194310D03*
X890270Y194310D03*
X890270Y135890D03*
X916940Y135890D03*
X875030Y177800D03*
X875030Y153670D03*
X933450Y153670D03*
X933450Y179070D03*
D17*
X238760Y348180D02*
X215900Y348180D01*
X215900Y287020D01*
D16*
X731520Y318770D03*
D18*
X594360Y318770D01*
X574040Y369417D02*
X574040Y374650D01*
X578485Y334645D02*
X594360Y318770D01*
X578485Y334645D02*
X586730Y342890D01*
X586613Y356844D01*
X574040Y369417D01*
D17*
X314960Y154940D02*
X304483Y154940D01*
X199073Y260350D01*
X314960Y154940D02*
X316230Y153670D01*
X316230Y86360D01*
X534670Y86360D01*
X534670Y154940D01*
X381000Y373380D02*
X381000Y408660D01*
X271437Y260350D02*
X199073Y260350D01*
X271437Y260350D02*
X272014Y408660D01*
X381000Y408660D02*
X600710Y408660D01*
X600710Y375920D01*
X599440Y374650D01*
D19*
X604520Y369570D02*
X725089Y369570D01*
X604520Y369570D02*
X599440Y374650D01*
D16*
X784860Y320040D03*
D19*
X774619Y320040D01*
X725089Y369570D01*
D17*
X381000Y408660D02*
X272014Y408660D01*
X123190Y347980D02*
X123190Y336233D01*
X199073Y260350D01*
D16*
X774700Y171450D03*
D18*
X828329Y317020D02*
X832330Y321021D01*
X828329Y317020D02*
X822671Y317020D01*
X797080Y382559D02*
X813781Y399260D01*
X928370Y311150D02*
X935990Y311150D01*
X917114Y224790D02*
X774700Y224790D01*
X774700Y171450D01*
X917114Y224790D02*
X917114Y277421D01*
X860351Y334184D01*
X843989Y334184D01*
X832330Y322525D01*
X832330Y321021D01*
X822671Y317020D02*
X797080Y342611D01*
X797080Y382559D01*
X813781Y399260D02*
X841029Y399260D01*
X875799Y364490D01*
X888570Y364490D01*
D16*
X935990Y311150D03*
X735330Y208280D03*
X744220Y232410D03*
D20*
X735330Y232410D01*
X735330Y208280D01*
X735330Y171450D01*
X774700Y171450D01*
D18*
X888570Y350950D02*
X888570Y364490D01*
X888570Y350950D02*
X928370Y311150D01*
D16*
X890270Y330200D03*
D18*
X946630Y64280D02*
X946630Y54321D01*
X942629Y50320D01*
X936780Y50320D01*
X920750Y34290D01*
X817880Y34290D01*
D16*
X817880Y34290D03*
D18*
X890270Y325120D02*
X890270Y330200D01*
X932244Y260287D02*
X952500Y240030D01*
X952500Y93980D01*
X931672Y73152D01*
X931672Y64280D01*
X946630Y64280D01*
X932244Y260287D02*
X932244Y283147D01*
X890270Y325120D01*
D20*
X548640Y374650D02*
X548640Y391160D01*
X722250Y360982D02*
X802562Y280670D01*
X854710Y280670D01*
X861060Y287020D01*
X863600Y287020D01*
D16*
X863600Y287020D03*
X548640Y391160D03*
X622300Y337820D03*
D21*
X622300Y345440D01*
X722250Y360982D02*
X722583Y361315D01*
X638175Y361315D01*
X622300Y345440D01*
D20*
X552170Y349250D02*
X548640Y349250D01*
X844358Y269240D02*
X850900Y269240D01*
X640784Y260636D02*
X552170Y349250D01*
X640784Y260636D02*
X835754Y260636D01*
X844358Y269240D01*
D16*
X850900Y269240D03*
D20*
X523240Y374650D02*
X514350Y383540D01*
X478790Y383540D01*
X723726Y364490D02*
X803692Y284524D01*
X836974Y284524D02*
X838200Y285750D01*
X836974Y284524D02*
X803692Y284524D01*
D16*
X838200Y285750D03*
X478790Y383540D03*
X631190Y361950D03*
D21*
X633730Y364490D02*
X723726Y364490D01*
X633730Y364490D02*
X631190Y361950D01*
D16*
X927100Y57150D03*
D18*
X927100Y76200D01*
X947420Y96520D01*
X947420Y238760D01*
X927100Y259080D01*
X927100Y280647D01*
X848471Y360680D01*
X820420Y360680D01*
X812800Y378460D02*
X821690Y387350D01*
X812800Y378460D02*
X812800Y368300D01*
X820420Y360680D01*
D16*
X821690Y387350D03*
X939800Y57150D03*
D18*
X929929Y50320D02*
X922114Y50320D01*
X919480Y52954D01*
X919480Y60960D01*
X922020Y63500D01*
X922020Y77470D01*
X942340Y97790D01*
X942340Y237490D01*
X922020Y257810D01*
X922116Y279490D01*
X936759Y57150D02*
X939800Y57150D01*
X936759Y57150D02*
X929929Y50320D01*
X862422Y339184D02*
X831944Y339184D01*
X825500Y332740D01*
X862422Y339184D02*
X922116Y279490D01*
D16*
X825500Y332740D03*
D21*
X886416Y237776D02*
X457904Y237776D01*
X399780Y295900D01*
D20*
X886416Y237776D02*
X886460Y237732D01*
D21*
X886460Y264160D01*
X894077Y264160D01*
X894036Y279356D01*
D20*
X876344Y279356D02*
X876300Y279400D01*
D21*
X876344Y279356D02*
X894036Y279356D01*
D16*
X876300Y279400D03*
X396240Y327660D03*
D21*
X399780Y324120D02*
X399780Y295900D01*
X399780Y324120D02*
X396240Y327660D01*
D22*
X335037Y384794D02*
X325363Y384794D01*
X335037Y384794D02*
X342884Y376947D01*
X313949Y373380D02*
X304800Y373380D01*
X313949Y373380D02*
X325363Y384794D01*
D21*
X342884Y376947D02*
X342884Y366670D01*
X348890Y360664D01*
X402574Y360664D01*
X402574Y298090D01*
X459364Y241300D01*
X882650Y241300D01*
X882650Y269240D01*
X889000Y269240D01*
D16*
X889000Y269240D03*
X892810Y46990D03*
D20*
X887730Y52070D01*
X547370Y133350D02*
X547354Y148230D01*
X547354Y173974D01*
X469916Y173974D02*
X334010Y309880D01*
X469916Y173974D02*
X547354Y173974D01*
X334010Y309880D02*
X334010Y334010D01*
X306070Y334010D01*
X304800Y335280D01*
X304800Y347980D01*
X569026Y64704D02*
X581660Y52070D01*
X887730Y52070D01*
X569026Y64704D02*
X569026Y132014D01*
X548706Y132014D02*
X547370Y133350D01*
X548706Y132014D02*
X569026Y132014D01*
D16*
X902970Y44450D03*
D20*
X471472Y177498D02*
X337820Y311150D01*
X337820Y337820D01*
X330200Y337820D01*
X330200Y347980D01*
X902970Y44478D02*
X902970Y44450D01*
X902970Y44478D02*
X891612Y55836D01*
X551177Y177498D02*
X471472Y177498D01*
X551177Y177498D02*
X551177Y174006D01*
X572754Y174006D01*
X572754Y66056D01*
X582974Y55836D01*
X891612Y55836D01*
D16*
X231140Y212090D03*
X189230Y50800D03*
D20*
X189230Y170180D02*
X231140Y212090D01*
X189230Y170180D02*
X189230Y50800D01*
D16*
X584200Y64770D03*
D23*
X783590Y59972D02*
X783590Y77470D01*
X588998Y59972D02*
X584200Y64770D01*
X588998Y59972D02*
X783590Y59972D01*
D16*
X783590Y77470D03*
D20*
X561356Y360664D02*
X523240Y360664D01*
X641672Y264732D02*
X825500Y264732D01*
X825500Y267970D01*
X561356Y345048D02*
X561356Y360664D01*
X523240Y360664D02*
X523240Y349250D01*
X561356Y345048D02*
X641672Y264732D01*
D16*
X825500Y267970D03*
X751840Y109220D03*
D20*
X751840Y119380D01*
X730250Y119380D01*
X730250Y232410D01*
D16*
X730250Y232410D03*
D17*
X238760Y396240D02*
X166370Y396240D01*
X238760Y396240D02*
X238760Y373180D01*
X166370Y396240D02*
X123190Y396240D01*
M02*
